<?xml version="1.0" encoding="utf-8"?>
<!-- Generator: Adobe Illustrator 26.5.0, SVG Export Plug-In . SVG Version: 6.00 Build 0)  -->
<svg version="1.1" id="Livello_1" xmlns="http://www.w3.org/2000/svg" xmlns:xlink="http://www.w3.org/1999/xlink" x="0px" y="0px"
	 viewBox="0 0 80 80" style="enable-background:new 0 0 80 80;" xml:space="preserve">
<style type="text/css">
	.st0{fill:#575756;}
	.st1{fill:#FFFFFF;}
	.st2{fill:#E23201;}
</style>
<g>
	<path class="st0" d="M79.7,40c0,22.1-17.8,40-39.7,40S0.3,62.1,0.3,40S18.1,0,40,0S79.7,17.9,79.7,40"/>
</g>
<g>
	<path class="st1" d="M1.5,41.4"/>
</g>
<rect x="2.2" y="37.4" class="st1" width="75.5" height="5"/>
<g id="Page-1">
	<g id="_x30_3b_x5F_single-v2-tab2" transform="translate(-672.000000, -1488.000000)">
		<g id="Group-4" transform="translate(672.000000, 1488.000000)">
			<g id="Group-Copy-4">
				<g id="Oval-Copy">
					<path class="st0" d="M40,80C17.9,80,0,62.1,0,40S17.9,0,40,0s40,17.9,40,40S62.1,80,40,80z M40,5C20.7,5,5,20.7,5,40
						s15.7,35,35,35s35-15.7,35-35S59.3,5,40,5z"/>
				</g>
			</g>
		</g>
	</g>
</g>
<circle class="st1" cx="40" cy="40" r="16.4"/>
<g>
	<path class="st2" d="M27,40c0,7.2,5.8,13,13,13V27C32.8,27,27,32.8,27,40z"/>
	<path class="st2" d="M53,40c0-7.2-5.8-13-13-13v26C47.2,53,53,47.2,53,40z"/>
</g>
</svg>
