<?xml version="1.0" encoding="utf-8"?>
<!-- Generator: Adobe Illustrator 26.5.0, SVG Export Plug-In . SVG Version: 6.00 Build 0)  -->
<svg version="1.1" id="Livello_1" xmlns="http://www.w3.org/2000/svg" xmlns:xlink="http://www.w3.org/1999/xlink" x="0px" y="0px"
	 viewBox="0 0 80 80" style="enable-background:new 0 0 80 80;" xml:space="preserve">
<style type="text/css">
	.st0{fill:#575756;}
	.st1{clip-path:url(#SVGID_00000152230702992479189170000008489049786755066268_);}
	.st2{fill:#FFFFFF;}
	.st3{fill:#AAAAAA;}
</style>
<g>
	<path class="st0" d="M79.7,40c0,22.1-17.8,40-39.7,40S0.3,62.1,0.3,40S18.1,0,40,0S79.7,17.9,79.7,40"/>
</g>
<circle class="st0" cx="40" cy="40" r="39.8"/>
<g>
	<g>
		<defs>
			<circle id="SVGID_1_" cx="40" cy="40" r="39.8"/>
		</defs>
		<clipPath id="SVGID_00000042695497175557438570000007647365150895889551_">
			<use xlink:href="#SVGID_1_"  style="overflow:visible;"/>
		</clipPath>
		<g style="clip-path:url(#SVGID_00000042695497175557438570000007647365150895889551_);">
			<g>
				<g>
					<path class="st2" d="M1.8,17.1"/>
					<rect x="-0.4" y="11.7" class="st2" width="19.2" height="13"/>
				</g>
				<g>
					<path class="st2" d="M63.3,17.1"/>
					<rect x="61.2" y="11.7" class="st2" width="19.2" height="13"/>
				</g>
			</g>
		</g>
	</g>
</g>
<g id="Page-1">
	<g id="_x30_3b_x5F_single-v2-tab2" transform="translate(-672.000000, -1488.000000)">
		<g id="Group-4" transform="translate(672.000000, 1488.000000)">
			<g id="Group-Copy-4">
				<g id="Oval-Copy">
					<path class="st0" d="M40,80C17.9,80,0,62.1,0,40S17.9,0,40,0s40,17.9,40,40S62.1,80,40,80z M40,5C20.7,5,5,20.7,5,40
						s15.7,35,35,35s35-15.7,35-35S59.3,5,40,5z"/>
				</g>
			</g>
		</g>
	</g>
</g>
<path class="st3" d="M56.3,55.1c-1.3-1.7-3-3.4-2.7-8.3c0.1-2,2.2-5.9,3.4-7.6c0.9-1.4,4.1-4.7,4.1-4.7l0-7H48.9v25.6H40h-0.1h-8.9
	V27.6H18.8l0,7c0,0,3.2,3.3,4.1,4.7c1.2,1.7,3.3,5.6,3.4,7.6c0.3,4.9-1.4,6.6-2.7,8.3c-1.1,1.4-5.6,4-5.6,4v6.5h5.6l6.9-5.8h9.4H40
	h9.4l6.9,5.8h5.6v-6.5C61.9,59.1,57.4,56.6,56.3,55.1z"/>
<rect x="17.4" y="23.7" class="st2" width="1.4" height="3.9"/>
<rect x="61.2" y="23.7" class="st2" width="1.4" height="3.9"/>
</svg>
