<?xml version="1.0" encoding="UTF-8"?>
<svg width="49px" height="48px" viewBox="0 0 49 48" version="1.1" xmlns="http://www.w3.org/2000/svg" xmlns:xlink="http://www.w3.org/1999/xlink">
    <title>Fill 1</title>
    <g id="Page-1" stroke="none" stroke-width="1" fill="none" fill-rule="evenodd">
        <g id="03b_single-v2-tab2" transform="translate(-82.000000, -2277.000000)" fill="#CC171A">
            <path d="M118.724191,2304.18541 L109.374647,2304.18541 C109.374647,2304.18541 103.550938,2303.65046 103.550938,2298.3617 L103.550938,2279.06687 C103.550938,2279.06687 103.441516,2277 101.484069,2277 C100.827534,2277 100.389844,2277.231 100.098051,2277.53495 L84.5600569,2293.07295 C84.5600569,2293.07295 82.7241907,2295.00608 82.7241907,2297.92401 L82.7241907,2319.00608 C82.7241907,2319.00608 82.4931876,2325 88.7181117,2325 L109.909601,2325 C109.909601,2325 113.362489,2324.93921 115.405042,2322.51976 L130.286501,2307.65046 C130.286501,2307.65046 130.955194,2307.06687 130.967352,2306.24012 C130.991668,2305.42553 130.468872,2304.17325 128.900482,2304.17325 C127.319935,2304.17325 118.724191,2304.18541 118.724191,2304.18541" id="Fill-1"></path>
        </g>
    </g>
</svg>