<?xml version="1.0" encoding="utf-8"?>
<!-- Generator: Adobe Illustrator 26.5.0, SVG Export Plug-In . SVG Version: 6.00 Build 0)  -->
<svg version="1.1" id="Livello_1" xmlns="http://www.w3.org/2000/svg" xmlns:xlink="http://www.w3.org/1999/xlink" x="0px" y="0px"
	 viewBox="0 0 80 80" style="enable-background:new 0 0 80 80;" xml:space="preserve">
<style type="text/css">
	.st0{fill:#575756;}
	.st1{clip-path:url(#SVGID_00000133527985045888368500000003291472890662907010_);}
	.st2{fill:#FFFFFF;}
	.st3{fill:#AAAAAA;}
</style>
<g>
	<path class="st0" d="M79.7,40c0,22.1-17.8,40-39.7,40S0.3,62.1,0.3,40S18.1,0,40,0S79.7,17.9,79.7,40"/>
</g>
<circle class="st0" cx="40" cy="40" r="39.8"/>
<g>
	<defs>
		<circle id="SVGID_1_" cx="40" cy="40" r="39.8"/>
	</defs>
	<clipPath id="SVGID_00000168099515689446012490000014159815030742098359_">
		<use xlink:href="#SVGID_1_"  style="overflow:visible;"/>
	</clipPath>
	<g style="clip-path:url(#SVGID_00000168099515689446012490000014159815030742098359_);">
		<rect x="18.8" y="37.9" class="st2" width="42.4" height="39.2"/>
		<g>
			<polygon class="st2" points="48.2,24.7 48.2,33.5 31.8,33.5 31.8,24.7 18.8,24.7 18.8,56.7 31.8,56.7 31.8,46.5 48.2,46.5 
				48.2,56.7 61.2,56.7 61.2,24.7 			"/>
			<g>
				<path class="st2" d="M1.8,17.1"/>
				<rect x="-0.4" y="11.7" class="st2" width="19.2" height="13"/>
			</g>
			<g>
				<path class="st2" d="M63.3,17.1"/>
				<rect x="61.2" y="11.7" class="st2" width="19.2" height="13"/>
			</g>
			<rect x="12.7" y="19.7" class="st3" width="6.1" height="5"/>
			<rect x="61.2" y="19.7" class="st3" width="6.1" height="5"/>
			<polygon class="st3" points="48.2,37.9 48.2,46.7 31.8,46.7 31.8,37.9 18.8,37.9 18.8,69.9 31.8,69.9 31.8,59.7 48.2,59.7 
				48.2,69.9 61.2,69.9 61.2,37.9 			"/>
		</g>
	</g>
</g>
<g id="Page-1">
	<g id="_x30_3b_x5F_single-v2-tab2" transform="translate(-672.000000, -1488.000000)">
		<g id="Group-4" transform="translate(672.000000, 1488.000000)">
			<g id="Group-Copy-4">
				<g id="Oval-Copy">
					<path class="st0" d="M40,80C17.9,80,0,62.1,0,40S17.9,0,40,0s40,17.9,40,40S62.1,80,40,80z M40,5C20.7,5,5,20.7,5,40
						s15.7,35,35,35s35-15.7,35-35S59.3,5,40,5z"/>
				</g>
			</g>
		</g>
	</g>
</g>
</svg>
