<?xml version="1.0" encoding="utf-8"?>
<!-- Generator: Adobe Illustrator 26.5.0, SVG Export Plug-In . SVG Version: 6.00 Build 0)  -->
<svg version="1.1" id="Livello_1" xmlns="http://www.w3.org/2000/svg" xmlns:xlink="http://www.w3.org/1999/xlink" x="0px" y="0px"
	 viewBox="0 0 80 80" style="enable-background:new 0 0 80 80;" xml:space="preserve">
<style type="text/css">
	.st0{clip-path:url(#SVGID_00000166662049666120802940000006238545116446820239_);fill:#CCC7C0;}
	.st1{clip-path:url(#SVGID_00000157283694204300861360000008262455929777674173_);fill:#575756;}
	.st2{clip-path:url(#SVGID_00000069372365550104166840000013340031000420993442_);fill:#FFFFFF;}
	.st3{clip-path:url(#SVGID_00000112630176839049300810000001539863435502145928_);fill:#FFFFFF;}
	.st4{clip-path:url(#SVGID_00000016058425573714048600000001328185377577054140_);fill:#FFFFFF;}
	.st5{clip-path:url(#SVGID_00000157994329372582840610000010287005226854331530_);fill:#FFFFFF;}
	.st6{clip-path:url(#SVGID_00000150073992637103500780000015918802218834342591_);fill:#FFFFFF;}
	.st7{fill:#575756;}
</style>
<g>
	<g>
		<g>
			<defs>
				<rect id="SVGID_1_" y="0" width="80" height="80"/>
			</defs>
			<clipPath id="SVGID_00000118379720319513629710000005411028205272057777_">
				<use xlink:href="#SVGID_1_"  style="overflow:visible;"/>
			</clipPath>
			<path style="clip-path:url(#SVGID_00000118379720319513629710000005411028205272057777_);fill:#CCC7C0;" d="M80,40
				c0,22.1-17.9,40-40,40S0,62.1,0,40S17.9,0,40,0S80,17.9,80,40"/>
		</g>
		<g>
			<defs>
				<rect id="SVGID_00000046307388253765671860000016876350481016890262_" y="0" width="80" height="80"/>
			</defs>
			<clipPath id="SVGID_00000026163759310705556310000003240453253982423465_">
				<use xlink:href="#SVGID_00000046307388253765671860000016876350481016890262_"  style="overflow:visible;"/>
			</clipPath>
			<path style="clip-path:url(#SVGID_00000026163759310705556310000003240453253982423465_);fill:#575756;" d="M80,40
				c0,22.1-17.9,40-40,40S0,62.1,0,40S17.9,0,40,0S80,17.9,80,40"/>
		</g>
	</g>
	<g>
		<g>
			<defs>
				<circle id="SVGID_00000047062387305742527610000007782323990458293902_" cx="40" cy="40" r="40"/>
			</defs>
			<clipPath id="SVGID_00000176730848753706426690000016235465704802780308_">
				<use xlink:href="#SVGID_00000047062387305742527610000007782323990458293902_"  style="overflow:visible;"/>
			</clipPath>
			<polygon style="clip-path:url(#SVGID_00000176730848753706426690000016235465704802780308_);fill:#FFFFFF;" points="37.6,61.9 
				25.4,61.9 -7.4,61.9 -7.4,66.6 20.8,66.6 37.6,66.6 			"/>
		</g>
		<g>
			<defs>
				<circle id="SVGID_00000092421170851210425670000005301918762161196201_" cx="40" cy="40" r="40"/>
			</defs>
			<clipPath id="SVGID_00000083811040363408942130000013671114056756349831_">
				<use xlink:href="#SVGID_00000092421170851210425670000005301918762161196201_"  style="overflow:visible;"/>
			</clipPath>
			
				<rect x="44.2" y="61.9" style="clip-path:url(#SVGID_00000083811040363408942130000013671114056756349831_);fill:#FFFFFF;" width="52.1" height="4.7"/>
		</g>
		<g>
			<defs>
				<circle id="SVGID_00000072250675509980145970000013897663240179570102_" cx="40" cy="40" r="40"/>
			</defs>
			<clipPath id="SVGID_00000174571513249623641480000013734605979437741713_">
				<use xlink:href="#SVGID_00000072250675509980145970000013897663240179570102_"  style="overflow:visible;"/>
			</clipPath>
			<polygon style="clip-path:url(#SVGID_00000174571513249623641480000013734605979437741713_);fill:#FFFFFF;" points="35.7,25.9 
				37.6,25.9 37.6,37.5 44.2,30.9 44.2,25.9 46.1,25.9 46.1,21 51.2,21 51.2,0 30.6,0 30.6,21 35.7,21 			"/>
		</g>
		<g>
			<defs>
				<circle id="SVGID_00000044155721720169921010000013785712417068061316_" cx="40" cy="40" r="40"/>
			</defs>
			<clipPath id="SVGID_00000100364059828076590260000006927212461169218692_">
				<use xlink:href="#SVGID_00000044155721720169921010000013785712417068061316_"  style="overflow:visible;"/>
			</clipPath>
			<polygon style="clip-path:url(#SVGID_00000100364059828076590260000006927212461169218692_);fill:#FFFFFF;" points="44.2,44 
				44.2,36.2 37.6,42.8 37.6,50.7 			"/>
		</g>
		<g>
			<defs>
				<circle id="SVGID_00000054267158521143678680000002563726020827386513_" cx="40" cy="40" r="40"/>
			</defs>
			<clipPath id="SVGID_00000095322858759998233860000005093913685804992184_">
				<use xlink:href="#SVGID_00000054267158521143678680000002563726020827386513_"  style="overflow:visible;"/>
			</clipPath>
			<polygon style="clip-path:url(#SVGID_00000095322858759998233860000005093913685804992184_);fill:#FFFFFF;" points="40.2,53.4 
				44.2,53.4 44.2,49.4 			"/>
		</g>
	</g>
</g>
<g id="Page-1">
	<g id="_x30_3b_x5F_single-v2-tab2" transform="translate(-672.000000, -1488.000000)">
		<g id="Group-4" transform="translate(672.000000, 1488.000000)">
			<g id="Group-Copy-4">
				<g id="Oval-Copy">
					<path class="st7" d="M40,80C17.9,80,0,62.1,0,40S17.9,0,40,0s40,17.9,40,40S62.1,80,40,80z M40,5C20.7,5,5,20.7,5,40
						s15.7,35,35,35s35-15.7,35-35S59.3,5,40,5z"/>
				</g>
			</g>
		</g>
	</g>
</g>
</svg>
