<?xml version="1.0" encoding="UTF-8"?>
<svg width="28px" height="22px" viewBox="0 0 28 22" version="1.1" xmlns="http://www.w3.org/2000/svg" xmlns:xlink="http://www.w3.org/1999/xlink">
    <title>Shape</title>
    <g id="Page-1" stroke="none" stroke-width="1" fill="none" fill-rule="evenodd">
        <g id="02b_expertise-windtower-v2" transform="translate(-108.000000, -919.000000)" fill="#00665B" fill-rule="nonzero">
            <g id="email_black_24dp" transform="translate(105.000000, 913.000000)">
                <path d="M31,8.75 C31,7.2375 29.74,6 28.2,6 L5.8,6 C4.26,6 3,7.2375 3,8.75 L3,25.25 C3,26.7625 4.26,28 5.8,28 L28.2,28 C29.74,28 31,26.7625 31,25.25 L31,8.75 Z M28.2,8.75 L17,15.625 L5.8,8.75 L28.2,8.75 Z M28.2,25.25 L5.8,25.25 L5.8,11.5 L17,18.375 L28.2,11.5 L28.2,25.25 Z" id="Shape"></path>
            </g>
        </g>
    </g>
</svg>