<?xml version="1.0" encoding="UTF-8"?>
<svg id="Livello_1" xmlns="http://www.w3.org/2000/svg" width="80" height="80" version="1.1" viewBox="0 0 80 80">
  <!-- Generator: Adobe Illustrator 29.4.0, SVG Export Plug-In . SVG Version: 2.1.0 Build 152)  -->
  <g>
    <path d="M80,40c0,22.1-17.9,40-40,40S0,62.1,0,40,17.9,0,40,0s40,17.9,40,40" fill="#7a7d83"/>
    <path d="M80,40c0,22.1-17.9,40-40,40S0,62.1,0,40,17.9,0,40,0s40,17.9,40,40" fill="#575756"/>
  </g>
  <g id="Page-1">
    <g id="_x30_3b_x5F_single-v2-tab2">
      <g id="Group-4">
        <g id="Group-Copy-4">
          <g id="Oval-Copy">
            <path d="M40,80C17.9,80,0,62.1,0,40S17.9,0,40,0s40,17.9,40,40-17.9,40-40,40ZM40,5C20.7,5,5,20.7,5,40s15.7,35,35,35,35-15.7,35-35S59.3,5,40,5Z" fill="#575756"/>
          </g>
        </g>
      </g>
    </g>
  </g>
  <rect x="19.6" y="47.9" width="40.9" height="6.3" fill="#fff"/>
  <path d="M45.3,41.4c-1-1-1-2.6,0-3.5h0c1-1,2.6-1,3.5,0h0c1,1,1,2.5,0,3.5h0c-.5.5-1.1.7-1.8.7h0c-.6,0-1.3-.2-1.8-.7ZM50.9,35.7c-1-1-1-2.6,0-3.5h0c1-1,2.6-1,3.5,0h0c1,1,1,2.6,0,3.5h0c-.5.5-1.1.7-1.8.7h0c-.6,0-1.3-.2-1.8-.7ZM56.6,30.1c-1-1-1-2.6,0-3.5h0c1-1,2.6-1,3.5,0h0c1,1,1,2.6,0,3.5h0c-.5.5-1.1.7-1.8.7h0c-.6,0-1.3-.2-1.8-.7Z" fill="#fff"/>
  <path d="M31,41.4c-1-1-1-2.6,0-3.5h0c1-1,2.6-1,3.5,0h0c1,1,1,2.6,0,3.5h0c-.5.5-1.1.7-1.8.7h0c-.6,0-1.3-.2-1.8-.7ZM25.3,35.7c-1-1-1-2.6,0-3.5h0c1-1,2.6-1,3.5,0h0c1,1,1,2.6,0,3.5h0c-.5.5-1.1.7-1.8.7h0c-.6,0-1.3-.2-1.8-.7ZM19.7,30.1c-1-1-1-2.6,0-3.5h0c1-1,2.6-1,3.5,0h0c1,1,1,2.6,0,3.5h0c-.5.5-1.1.7-1.8.7h0c-.6,0-1.3-.2-1.8-.7Z" fill="#fff"/>
</svg>