<?xml version="1.0" encoding="utf-8"?>
<!-- Generator: Adobe Illustrator 26.5.0, SVG Export Plug-In . SVG Version: 6.00 Build 0)  -->
<svg version="1.1" id="Livello_1" xmlns="http://www.w3.org/2000/svg" xmlns:xlink="http://www.w3.org/1999/xlink" x="0px" y="0px"
	 viewBox="0 0 80 80" style="enable-background:new 0 0 80 80;" xml:space="preserve">
<style type="text/css">
	.st0{fill:#575756;}
	.st1{fill:#FFFFFF;}
</style>
<g>
	<path class="st0" d="M79.7,40c0,22.1-17.8,40-39.7,40S0.3,62.1,0.3,40S18.1,0,40,0S79.7,17.9,79.7,40"/>
</g>
<circle class="st0" cx="40" cy="40" r="39.8"/>
<g id="Page-1">
	<g id="_x30_3b_x5F_single-v2-tab2" transform="translate(-672.000000, -1488.000000)">
		<g id="Group-4" transform="translate(672.000000, 1488.000000)">
			<g id="Group-Copy-4">
				<g id="Oval-Copy">
					<path class="st0" d="M40,80C17.9,80,0,62.1,0,40S17.9,0,40,0s40,17.9,40,40S62.1,80,40,80z M40,5C20.7,5,5,20.7,5,40
						s15.7,35,35,35s35-15.7,35-35S59.3,5,40,5z"/>
				</g>
			</g>
		</g>
	</g>
</g>
<g>
	<g>
		<path class="st1" d="M51.1,39.2c0,6.1-5,11.1-11.1,11.1c-6.1,0-11.1-5-11.1-11.1s5-11.1,11.1-11.1C46.1,28.1,51.1,33.1,51.1,39.2"
			/>
	</g>
	<g>
		<polygon class="st1" points="60.4,34.6 60.4,31.5 68.1,39.2 60.4,47 60.4,43.8 55.4,43.8 55.4,34.6 		"/>
		<polygon class="st1" points="46.3,18.5 43.6,16.8 54.2,14.1 56.9,24.7 54.2,23.1 51.6,27.4 43.8,22.8 		"/>
		<polygon class="st1" points="19.6,43.8 19.6,47 11.9,39.2 19.6,31.5 19.6,34.6 24.6,34.6 24.6,43.8 		"/>
		<polygon class="st1" points="33.7,60.3 36.4,61.9 25.8,64.6 23.1,54 25.8,55.6 28.4,51.3 36.2,56 		"/>
		<polygon class="st1" points="25.3,23.5 22.7,25.3 24.7,14.5 35.4,16.6 32.8,18.4 35.6,22.5 28.1,27.6 		"/>
		<polygon class="st1" points="55.5,55.2 58.1,53.4 56.1,64.2 45.4,62.2 48,60.4 45.2,56.3 52.7,51.1 		"/>
	</g>
</g>
</svg>
