<?xml version="1.0" encoding="utf-8"?>
<!-- Generator: Adobe Illustrator 26.5.0, SVG Export Plug-In . SVG Version: 6.00 Build 0)  -->
<svg version="1.1" id="Livello_1" xmlns="http://www.w3.org/2000/svg" xmlns:xlink="http://www.w3.org/1999/xlink" x="0px" y="0px"
	 viewBox="0 0 80 80" style="enable-background:new 0 0 80 80;" xml:space="preserve">
<style type="text/css">
	.st0{fill:#575756;}
	.st1{fill:#FFFFFF;}
</style>
<g>
	<path class="st0" d="M79.7,40c0,22.1-17.8,40-39.7,40S0.3,62.1,0.3,40S18.1,0,40,0S79.7,17.9,79.7,40"/>
</g>
<circle class="st0" cx="40" cy="40" r="39.8"/>
<g id="Page-1">
	<g id="_x30_3b_x5F_single-v2-tab2" transform="translate(-672.000000, -1488.000000)">
		<g id="Group-4" transform="translate(672.000000, 1488.000000)">
			<g id="Group-Copy-4">
				<g id="Oval-Copy">
					<path class="st0" d="M40,80C17.9,80,0,62.1,0,40S17.9,0,40,0s40,17.9,40,40S62.1,80,40,80z M40,5C20.7,5,5,20.7,5,40
						s15.7,35,35,35s35-15.7,35-35S59.3,5,40,5z"/>
				</g>
			</g>
		</g>
	</g>
</g>
<g>
	<g>
		<path class="st1" d="M50.8,39.5c0,6.1-4.9,11-11,11c-6.1,0-11-4.9-11-11s4.9-11,11-11C45.9,28.5,50.8,33.4,50.8,39.5"/>
	</g>
	<g>
		<polygon class="st1" points="60.6,35 60.6,31.8 68.2,39.5 60.6,47.1 60.6,44 55.6,44 55.6,35 		"/>
		<polygon class="st1" points="19.4,44 19.4,47.1 11.8,39.5 19.4,31.8 19.4,35 24.4,35 24.4,44 		"/>
		<polygon class="st1" points="35.3,19.2 32.2,19.2 39.8,11.5 47.5,19.1 44.3,19.1 44.4,24.1 35.3,24.1 		"/>
		<polygon class="st1" points="44.3,60.8 47.5,60.8 39.9,68.5 32.2,60.9 35.3,60.9 35.3,55.9 44.3,55.9 		"/>
	</g>
</g>
</svg>
