<?xml version="1.0" encoding="utf-8"?>
<!-- Generator: Adobe Illustrator 26.5.0, SVG Export Plug-In . SVG Version: 6.00 Build 0)  -->
<svg version="1.1" id="Livello_1" xmlns="http://www.w3.org/2000/svg" xmlns:xlink="http://www.w3.org/1999/xlink" x="0px" y="0px"
	 viewBox="0 0 80 80" style="enable-background:new 0 0 80 80;" xml:space="preserve">
<style type="text/css">
	.st0{fill:#CCC7C0;}
	.st1{fill:#575756;}
	.st2{fill:#AAAAAA;}
	.st3{clip-path:url(#SVGID_00000072988539922013989180000010310638822036246947_);fill:#FFFFFF;}
	.st4{clip-path:url(#SVGID_00000107563131912549929690000009064729724674083726_);fill:#575756;}
	.st5{clip-path:url(#SVGID_00000088111980675428085570000000360830926527051149_);fill:#FFFFFF;}
	.st6{clip-path:url(#SVGID_00000029761797106294129480000006047152726750965437_);fill:#FFFFFF;}
	.st7{clip-path:url(#SVGID_00000010271827438024694280000015681402284762877832_);fill:#FFFFFF;}
	.st8{clip-path:url(#SVGID_00000078008352319813100690000010668874158174276248_);fill:#FFFFFF;}
	.st9{clip-path:url(#SVGID_00000088850164109135331920000014211595278482250887_);fill:#FFFFFF;}
	.st10{clip-path:url(#SVGID_00000106141309065777624090000013306080463174737297_);fill:#FFFFFF;}
	.st11{clip-path:url(#SVGID_00000045615713228759756350000016212596558878130593_);fill:#FFFFFF;}
	.st12{clip-path:url(#SVGID_00000178890851958830517930000001149540127474632356_);fill:#FFFFFF;}
	.st13{clip-path:url(#SVGID_00000021807732913685105730000013938524963588487089_);fill:#FFFFFF;}
	.st14{clip-path:url(#SVGID_00000037669299660872587860000015704487348121246129_);fill:#FFFFFF;}
	.st15{clip-path:url(#SVGID_00000061446294646160344060000006458611813163603115_);fill:#FFFFFF;}
	.st16{clip-path:url(#SVGID_00000036940675590092584560000001717789667551018141_);fill:#FFFFFF;}
	.st17{clip-path:url(#SVGID_00000173859899701866189170000012915638109755724471_);fill:#FFFFFF;}
	.st18{clip-path:url(#SVGID_00000098909737507280248130000016995497246164008094_);fill:#FFFFFF;}
	.st19{clip-path:url(#SVGID_00000117639435682651589780000007877061028564685997_);fill:#FFFFFF;}
	.st20{clip-path:url(#SVGID_00000052077447693058910470000008979577375095215500_);fill:#FFFFFF;}
	.st21{clip-path:url(#SVGID_00000029042779321633622240000016199275938231289509_);fill:#FFFFFF;}
	.st22{clip-path:url(#SVGID_00000093873617670931197140000004347414684831107250_);fill:#FFFFFF;}
	.st23{clip-path:url(#SVGID_00000145777711600206397220000014970530680999978938_);fill:#FFFFFF;}
	.st24{clip-path:url(#SVGID_00000158737982108182909060000000240386287492139448_);fill:#FFFFFF;}
</style>
<g>
	<g>
		<path class="st0" d="M79.8,40C79.8,62.1,62,80,40,80S0.2,62.1,0.2,40S18,0,40,0S79.8,17.9,79.8,40"/>
		<path class="st1" d="M79.8,40C79.8,62.1,62,80,40,80S0.2,62.1,0.2,40S18,0,40,0S79.8,17.9,79.8,40"/>
	</g>
	<g>
		<path class="st2" d="M31.9,21c5.6,0,10.2,4.6,10.2,10.2s-4.6,10.2-10.2,10.2s-10.2-4.6-10.2-10.2S26.2,21,31.9,21 M31.9,15
			c-9,0-16.2,7.3-16.2,16.2S23,47.4,31.9,47.4s16.2-7.3,16.2-16.2S40.8,15,31.9,15L31.9,15z"/>
	</g>
	<g>
		<g>
			<g>
				<g>
					<g>
						<defs>
							
								<ellipse id="SVGID_1_" transform="matrix(0.7071 -0.7071 0.7071 0.7071 -16.5685 39.9994)" cx="40" cy="40" rx="39.8" ry="40"/>
						</defs>
						<clipPath id="SVGID_00000061454525015016723330000001229400508538268601_">
							<use xlink:href="#SVGID_1_"  style="overflow:visible;"/>
						</clipPath>
						<path style="clip-path:url(#SVGID_00000061454525015016723330000001229400508538268601_);fill:#FFFFFF;" d="M39.9,80.9
							c-11.6-11.6-11.6-30.4,0-42s30.5-11.6,42.1,0s11.6,30.4,0,42S51.5,92.5,39.9,80.9"/>
					</g>
				</g>
			</g>
		</g>
		<g>
			<g>
				<g>
					<g>
						<defs>
							
								<ellipse id="SVGID_00000044168880642353961280000016545856397688506030_" transform="matrix(0.7071 -0.7071 0.7071 0.7071 -16.5685 39.9994)" cx="40" cy="40" rx="39.8" ry="40"/>
						</defs>
						<clipPath id="SVGID_00000093154629185202623010000004309461685027561878_">
							<use xlink:href="#SVGID_00000044168880642353961280000016545856397688506030_"  style="overflow:visible;"/>
						</clipPath>
						<path style="clip-path:url(#SVGID_00000093154629185202623010000004309461685027561878_);fill:#575756;" d="M56.5,64.3
							c-2.5-2.5-2.5-6.4,0-8.9s6.4-2.5,8.9,0s2.5,6.4,0,8.9C63,66.8,59,66.8,56.5,64.3"/>
					</g>
				</g>
			</g>
		</g>
		<g>
			<g>
				<g>
					<g>
						<defs>
							
								<ellipse id="SVGID_00000006669916758337329080000005350512105033239960_" transform="matrix(0.7071 -0.7071 0.7071 0.7071 -16.5685 39.9994)" cx="40" cy="40" rx="39.8" ry="40"/>
						</defs>
						<clipPath id="SVGID_00000108998791288038720420000001203248683616675244_">
							<use xlink:href="#SVGID_00000006669916758337329080000005350512105033239960_"  style="overflow:visible;"/>
						</clipPath>
						<path style="clip-path:url(#SVGID_00000108998791288038720420000001203248683616675244_);fill:#FFFFFF;" d="M36.6,76.3
							c0,0-0.3,1-0.4,2.1C36,79,36,79.5,35.9,80s-0.1,0.7-0.1,0.7s1.2,0.1,2.3,0.1s2.2-0.1,2.2-0.1s-0.9-1.1-2-2.1
							C37.5,77.5,36.6,76.3,36.6,76.3"/>
					</g>
				</g>
			</g>
		</g>
		<g>
			<g>
				<g>
					<g>
						<defs>
							
								<ellipse id="SVGID_00000000901212901316382390000006317088949753310887_" transform="matrix(0.7071 -0.7071 0.7071 0.7071 -16.5685 39.9994)" cx="40" cy="40" rx="39.8" ry="40"/>
						</defs>
						<clipPath id="SVGID_00000052079537018171033940000001030006868098875269_">
							<use xlink:href="#SVGID_00000000901212901316382390000006317088949753310887_"  style="overflow:visible;"/>
						</clipPath>
						<path style="clip-path:url(#SVGID_00000052079537018171033940000001030006868098875269_);fill:#FFFFFF;" d="M33.8,71.2
							c0,0-0.4,1-0.8,2c-0.2,0.5-0.4,1-0.6,1.4s-0.2,0.6-0.2,0.6s1.1,0.3,2.2,0.5c0.6,0.1,1.1,0.2,1.4,0.3c0.4,0.1,0.6,0.1,0.6,0.1
							L36.3,76c-0.1-0.1-0.2-0.4-0.3-0.6c-0.3-0.4-0.6-1.1-1-1.7s-0.6-1.3-0.8-1.8C34,71.5,33.8,71.2,33.8,71.2"/>
					</g>
				</g>
			</g>
		</g>
		<g>
			<g>
				<g>
					<g>
						<defs>
							
								<ellipse id="SVGID_00000086679053454646017390000016097583577695154077_" transform="matrix(0.7071 -0.7071 0.7071 0.7071 -16.5685 39.9994)" cx="40" cy="40" rx="39.8" ry="40"/>
						</defs>
						<clipPath id="SVGID_00000044141509629651796790000008940394105863760794_">
							<use xlink:href="#SVGID_00000086679053454646017390000016097583577695154077_"  style="overflow:visible;"/>
						</clipPath>
						<path style="clip-path:url(#SVGID_00000044141509629651796790000008940394105863760794_);fill:#FFFFFF;" d="M32.2,65.7
							c0,0-0.6,0.9-1.3,1.8c-0.3,0.4-0.6,0.9-0.8,1.3s-0.4,0.6-0.4,0.6s1.1,0.5,2.1,0.9c0.5,0.2,1,0.4,1.4,0.6
							c0.4,0.1,0.6,0.2,0.6,0.2s-0.1-0.1-0.1-0.2s-0.1-0.4-0.2-0.6c-0.2-0.5-0.4-1.1-0.7-1.8c-0.2-0.6-0.4-1.3-0.5-1.9
							C32.2,66,32.2,65.7,32.2,65.7"/>
					</g>
				</g>
			</g>
		</g>
		<g>
			<g>
				<g>
					<g>
						<defs>
							
								<ellipse id="SVGID_00000137107784285970380480000011828158754163937427_" transform="matrix(0.7071 -0.7071 0.7071 0.7071 -16.5685 39.9994)" cx="40" cy="40" rx="39.8" ry="40"/>
						</defs>
						<clipPath id="SVGID_00000028325624580466403840000011935212429287049096_">
							<use xlink:href="#SVGID_00000137107784285970380480000011828158754163937427_"  style="overflow:visible;"/>
						</clipPath>
						<path style="clip-path:url(#SVGID_00000028325624580466403840000011935212429287049096_);fill:#FFFFFF;" d="M31.6,59.9
							c0,0-0.8,0.7-1.6,1.5c-0.8,0.8-1.6,1.7-1.6,1.7s1,0.7,1.9,1.3s1.8,1.1,1.8,1.1s-0.1-1.4-0.4-2.8
							C31.7,61.4,31.6,59.9,31.6,59.9"/>
					</g>
				</g>
			</g>
		</g>
		<g>
			<g>
				<g>
					<g>
						<defs>
							
								<ellipse id="SVGID_00000099623722857856703580000001191083308460929193_" transform="matrix(0.7071 -0.7071 0.7071 0.7071 -16.5685 39.9994)" cx="40" cy="40" rx="39.8" ry="40"/>
						</defs>
						<clipPath id="SVGID_00000160881004903538915160000008715392154517937304_">
							<use xlink:href="#SVGID_00000099623722857856703580000001191083308460929193_"  style="overflow:visible;"/>
						</clipPath>
						<path style="clip-path:url(#SVGID_00000160881004903538915160000008715392154517937304_);fill:#FFFFFF;" d="M32.2,54.2
							c0,0-0.3,0.1-0.6,0.4c-0.4,0.2-0.8,0.5-1.3,0.8c-0.9,0.6-1.9,1.3-1.9,1.3s0.2,0.2,0.5,0.5s0.7,0.7,1.1,1.1
							c0.8,0.8,1.6,1.6,1.6,1.6s0.1-1.5,0.1-2.8c0.1-0.7,0.1-1.4,0.3-2c0-0.3,0.1-0.5,0.1-0.6C32.1,54.3,32.2,54.2,32.2,54.2"/>
					</g>
				</g>
			</g>
		</g>
		<g>
			<g>
				<g>
					<g>
						<defs>
							
								<ellipse id="SVGID_00000036973765965457065830000013189281109073083565_" transform="matrix(0.7071 -0.7071 0.7071 0.7071 -16.5685 39.9994)" cx="40" cy="40" rx="39.8" ry="40"/>
						</defs>
						<clipPath id="SVGID_00000040576751701502357420000018375308746316214949_">
							<use xlink:href="#SVGID_00000036973765965457065830000013189281109073083565_"  style="overflow:visible;"/>
						</clipPath>
						<path style="clip-path:url(#SVGID_00000040576751701502357420000018375308746316214949_);fill:#FFFFFF;" d="M33.8,48.6
							c0,0-0.3,0.1-0.6,0.2c-0.4,0.1-0.9,0.4-1.4,0.6c-1,0.4-2.1,0.9-2.1,0.9s0.1,0.3,0.4,0.6c0.2,0.4,0.6,0.8,0.8,1.3
							c0.6,0.9,1.3,1.8,1.3,1.8s0.1-0.4,0.2-0.9s0.3-1.3,0.5-1.9c0.2-0.6,0.5-1.3,0.6-1.9C33.6,49.1,33.6,48.9,33.8,48.6
							C33.8,48.7,33.8,48.6,33.8,48.6"/>
					</g>
				</g>
			</g>
		</g>
		<g>
			<g>
				<g>
					<g>
						<defs>
							
								<ellipse id="SVGID_00000042712173721180847400000000174858808849605770_" transform="matrix(0.7071 -0.7071 0.7071 0.7071 -16.5685 39.9994)" cx="40" cy="40" rx="39.8" ry="40"/>
						</defs>
						<clipPath id="SVGID_00000128469963981650981680000007090757333448509317_">
							<use xlink:href="#SVGID_00000042712173721180847400000000174858808849605770_"  style="overflow:visible;"/>
						</clipPath>
						<path style="clip-path:url(#SVGID_00000128469963981650981680000007090757333448509317_);fill:#FFFFFF;" d="M36.5,43.6
							c0,0-0.3,0-0.6,0.1S35,43.9,34.5,44c-1.1,0.2-2.2,0.5-2.2,0.5s0.1,0.2,0.2,0.6c0.1,0.4,0.4,0.9,0.6,1.4c0.4,1,0.8,2,0.8,2
							s0.1-0.3,0.4-0.8s0.5-1.2,0.8-1.8c0.4-0.6,0.7-1.3,1-1.7c0.1-0.3,0.3-0.4,0.3-0.6C36.5,43.7,36.5,43.6,36.5,43.6"/>
					</g>
				</g>
			</g>
		</g>
		<g>
			<g>
				<g>
					<g>
						<defs>
							
								<ellipse id="SVGID_00000114059145191218672580000009902437371091184522_" transform="matrix(0.7071 -0.7071 0.7071 0.7071 -16.5685 39.9994)" cx="40" cy="40" rx="39.8" ry="40"/>
						</defs>
						<clipPath id="SVGID_00000069386456824082890520000012074348738292993194_">
							<use xlink:href="#SVGID_00000114059145191218672580000009902437371091184522_"  style="overflow:visible;"/>
						</clipPath>
						<path style="clip-path:url(#SVGID_00000069386456824082890520000012074348738292993194_);fill:#FFFFFF;" d="M40.2,39.1
							c0,0-1.1-0.1-2.2-0.1c-1.1,0-2.3,0.1-2.3,0.1s0,0.3,0.1,0.7c0.1,0.5,0.1,1,0.3,1.6c0.2,1.1,0.4,2.1,0.4,2.1s0.3-0.3,0.6-0.7
							s0.7-1,1.1-1.6C39.3,40.1,40.2,39.1,40.2,39.1"/>
					</g>
				</g>
			</g>
		</g>
		<g>
			<g>
				<g>
					<g>
						<defs>
							
								<ellipse id="SVGID_00000086693341836952159760000002628578833154117017_" transform="matrix(0.7071 -0.7071 0.7071 0.7071 -16.5685 39.9994)" cx="40" cy="40" rx="39.8" ry="40"/>
						</defs>
						<clipPath id="SVGID_00000172407115513297451650000013029021745768882052_">
							<use xlink:href="#SVGID_00000086693341836952159760000002628578833154117017_"  style="overflow:visible;"/>
						</clipPath>
						<path style="clip-path:url(#SVGID_00000172407115513297451650000013029021745768882052_);fill:#FFFFFF;" d="M44.6,35.5
							c0,0-1-0.3-2.1-0.4c-0.6-0.1-1.1-0.2-1.6-0.3s-0.7-0.1-0.7-0.1s-0.1,1.2-0.1,2.3s0.1,2.2,0.1,2.2s1.1-0.9,2.1-2
							c0.6-0.4,1.1-0.8,1.6-1.1C44.2,35.8,44.6,35.5,44.6,35.5"/>
					</g>
				</g>
			</g>
		</g>
		<g>
			<g>
				<g>
					<g>
						<defs>
							
								<ellipse id="SVGID_00000163753705353976820900000008544673481111424659_" transform="matrix(0.7071 -0.7071 0.7071 0.7071 -16.5685 39.9994)" cx="40" cy="40" rx="39.8" ry="40"/>
						</defs>
						<clipPath id="SVGID_00000126297910944946929110000007073119500345378742_">
							<use xlink:href="#SVGID_00000163753705353976820900000008544673481111424659_"  style="overflow:visible;"/>
						</clipPath>
						<path style="clip-path:url(#SVGID_00000126297910944946929110000007073119500345378742_);fill:#FFFFFF;" d="M49.7,32.7
							c0,0-1-0.4-2-0.8c-0.5-0.2-1-0.4-1.4-0.6c-0.4-0.1-0.6-0.2-0.6-0.2s-0.3,1.1-0.5,2.2c-0.1,0.6-0.2,1.1-0.3,1.4
							s-0.1,0.6-0.1,0.6l0.1-0.1c0.1-0.1,0.4-0.2,0.6-0.3c0.4-0.3,1.1-0.6,1.7-1c0.6-0.4,1.3-0.6,1.8-0.8
							C49.3,32.9,49.7,32.7,49.7,32.7"/>
					</g>
				</g>
			</g>
		</g>
		<g>
			<g>
				<g>
					<g>
						<defs>
							
								<ellipse id="SVGID_00000173878630237827413930000002183842458509117865_" transform="matrix(0.7071 -0.7071 0.7071 0.7071 -16.5685 39.9994)" cx="40" cy="40" rx="39.8" ry="40"/>
						</defs>
						<clipPath id="SVGID_00000181064826959201837140000011961756658193291958_">
							<use xlink:href="#SVGID_00000173878630237827413930000002183842458509117865_"  style="overflow:visible;"/>
						</clipPath>
						<path style="clip-path:url(#SVGID_00000181064826959201837140000011961756658193291958_);fill:#FFFFFF;" d="M55.1,31.1
							c0,0-0.9-0.6-1.8-1.3c-0.4-0.3-0.9-0.6-1.3-0.8s-0.6-0.4-0.6-0.4s-0.5,1.1-0.9,2.1c-0.2,0.5-0.4,1-0.6,1.4
							c-0.2,0.4-0.2,0.6-0.2,0.6s0.1-0.1,0.2-0.1c0.1,0,0.4-0.1,0.6-0.2c0.5-0.2,1.1-0.4,1.8-0.7c0.6-0.2,1.3-0.4,1.9-0.5
							C54.8,31.2,55.1,31.1,55.1,31.1"/>
					</g>
				</g>
			</g>
		</g>
		<g>
			<g>
				<g>
					<g>
						<defs>
							
								<ellipse id="SVGID_00000035530681730785227300000003623868042890261401_" transform="matrix(0.7071 -0.7071 0.7071 0.7071 -16.5685 39.9994)" cx="40" cy="40" rx="39.8" ry="40"/>
						</defs>
						<clipPath id="SVGID_00000036946293738358333670000011755101113693593530_">
							<use xlink:href="#SVGID_00000035530681730785227300000003623868042890261401_"  style="overflow:visible;"/>
						</clipPath>
						<path style="clip-path:url(#SVGID_00000036946293738358333670000011755101113693593530_);fill:#FFFFFF;" d="M60.9,30.5
							c0,0-0.7-0.8-1.6-1.6c-0.4-0.4-0.8-0.8-1.1-1.1c-0.3-0.3-0.5-0.5-0.5-0.5s-0.7,1-1.3,1.9c-0.3,0.4-0.6,0.9-0.8,1.3
							s-0.4,0.6-0.4,0.6s0.1-0.1,0.2-0.1c0.1,0,0.4-0.1,0.6-0.1c0.5-0.1,1.2-0.2,2-0.3C59.5,30.5,60.9,30.5,60.9,30.5"/>
					</g>
				</g>
			</g>
		</g>
		<g>
			<g>
				<g>
					<g>
						<defs>
							
								<ellipse id="SVGID_00000143608217932457177320000009092774088918112932_" transform="matrix(0.7071 -0.7071 0.7071 0.7071 -16.5685 39.9994)" cx="40" cy="40" rx="39.8" ry="40"/>
						</defs>
						<clipPath id="SVGID_00000044872151008610302510000002355819077647819411_">
							<use xlink:href="#SVGID_00000143608217932457177320000009092774088918112932_"  style="overflow:visible;"/>
						</clipPath>
						<path style="clip-path:url(#SVGID_00000044872151008610302510000002355819077647819411_);fill:#FFFFFF;" d="M66.7,31
							c0,0-0.5-0.9-1.1-1.8s-1.3-1.9-1.3-1.9s-0.9,0.8-1.7,1.6c-0.8,0.8-1.6,1.6-1.6,1.6s1.5,0.1,2.8,0.1C65.2,30.9,66.7,31,66.7,31
							"/>
					</g>
				</g>
			</g>
		</g>
		<g>
			<g>
				<g>
					<g>
						<defs>
							
								<ellipse id="SVGID_00000156563337102717718990000000384191603652093585_" transform="matrix(0.7071 -0.7071 0.7071 0.7071 -16.5685 39.9994)" cx="40" cy="40" rx="39.8" ry="40"/>
						</defs>
						<clipPath id="SVGID_00000123412008893274296980000003044457157098334393_">
							<use xlink:href="#SVGID_00000156563337102717718990000000384191603652093585_"  style="overflow:visible;"/>
						</clipPath>
						<path style="clip-path:url(#SVGID_00000123412008893274296980000003044457157098334393_);fill:#FFFFFF;" d="M72.2,32.8
							c0,0-0.1-0.2-0.2-0.6c-0.1-0.4-0.4-0.9-0.6-1.4c-0.4-1-0.9-2.1-0.9-2.1s-0.3,0.1-0.6,0.4s-0.8,0.6-1.3,0.8
							c-0.9,0.6-1.8,1.3-1.8,1.3s0.4,0.1,0.9,0.2c0.6,0.1,1.3,0.3,1.9,0.5s1.3,0.5,1.9,0.6C71.7,32.6,72,32.6,72.2,32.8
							C72.2,32.7,72.2,32.8,72.2,32.8"/>
					</g>
				</g>
			</g>
		</g>
		<g>
			<g>
				<g>
					<g>
						<defs>
							
								<ellipse id="SVGID_00000152960840940689861020000015822186729564646290_" transform="matrix(0.7071 -0.7071 0.7071 0.7071 -16.5685 39.9994)" cx="40" cy="40" rx="39.8" ry="40"/>
						</defs>
						<clipPath id="SVGID_00000176736217266054161800000009456974179224777895_">
							<use xlink:href="#SVGID_00000152960840940689861020000015822186729564646290_"  style="overflow:visible;"/>
						</clipPath>
						<path style="clip-path:url(#SVGID_00000176736217266054161800000009456974179224777895_);fill:#FFFFFF;" d="M77.3,35.4
							c0,0,0-0.3-0.1-0.6c-0.1-0.4-0.2-0.9-0.3-1.4c-0.2-1.1-0.5-2.2-0.5-2.2s-0.2,0.1-0.6,0.2s-0.9,0.4-1.4,0.6c-1,0.4-2,0.8-2,0.8
							s0.3,0.1,0.8,0.4c0.5,0.2,1.2,0.5,1.8,0.8c0.6,0.4,1.3,0.7,1.7,1c0.3,0.1,0.4,0.3,0.6,0.3C77.2,35.3,77.3,35.4,77.3,35.4"/>
					</g>
				</g>
			</g>
		</g>
		<g>
			<g>
				<g>
					<g>
						<defs>
							
								<ellipse id="SVGID_00000139267931850687225270000017564817819998808206_" transform="matrix(0.7071 -0.7071 0.7071 0.7071 -16.5685 39.9994)" cx="40" cy="40" rx="39.8" ry="40"/>
						</defs>
						<clipPath id="SVGID_00000140004666028074626780000003919045133661472410_">
							<use xlink:href="#SVGID_00000139267931850687225270000017564817819998808206_"  style="overflow:visible;"/>
						</clipPath>
						<path style="clip-path:url(#SVGID_00000140004666028074626780000003919045133661472410_);fill:#FFFFFF;" d="M81.8,39.1
							c0,0,0.1-1.1,0.1-2.2s-0.1-2.3-0.1-2.3s-0.3,0-0.7,0.1c-0.4,0-1,0.1-1.6,0.3c-1.1,0.2-2.1,0.4-2.1,0.4s1.1,0.8,2.3,1.7
							C80.7,38.2,81.8,39.1,81.8,39.1"/>
					</g>
				</g>
			</g>
		</g>
		<g>
			<g>
				<g>
					<g>
						<defs>
							
								<ellipse id="SVGID_00000005226121866612415920000009238979251098110380_" transform="matrix(0.7071 -0.7071 0.7071 0.7071 -16.5685 39.9994)" cx="40" cy="40" rx="39.8" ry="40"/>
						</defs>
						<clipPath id="SVGID_00000045604959908348171270000009163446160007263927_">
							<use xlink:href="#SVGID_00000005226121866612415920000009238979251098110380_"  style="overflow:visible;"/>
						</clipPath>
						<path style="clip-path:url(#SVGID_00000045604959908348171270000009163446160007263927_);fill:#FFFFFF;" d="M85.4,43.5
							c0,0,0.3-1,0.4-2.1c0.1-0.6,0.3-1.1,0.4-1.6c0.1-0.4,0.1-0.6,0.1-0.6s-1.2-0.1-2.3-0.1s-2.2,0.1-2.2,0.1s1.1,1.1,2,2.1
							C84.6,42.3,85.4,43.5,85.4,43.5"/>
					</g>
				</g>
			</g>
		</g>
		<g>
			<g>
				<g>
					<g>
						<defs>
							
								<ellipse id="SVGID_00000080897806105911420460000010026245048077099171_" transform="matrix(0.7071 -0.7071 0.7071 0.7071 -16.5685 39.9994)" cx="40" cy="40" rx="39.8" ry="40"/>
						</defs>
						<clipPath id="SVGID_00000138543621028073989900000003793849796298608780_">
							<use xlink:href="#SVGID_00000080897806105911420460000010026245048077099171_"  style="overflow:visible;"/>
						</clipPath>
						<path style="clip-path:url(#SVGID_00000138543621028073989900000003793849796298608780_);fill:#FFFFFF;" d="M88.2,48.6
							c0,0,0.4-1,0.8-2c0.2-0.5,0.4-1,0.6-1.4c0.1-0.4,0.3-0.7,0.3-0.7s-1.1-0.3-2.2-0.5c-0.6-0.1-1.1-0.3-1.6-0.3
							c-0.4-0.1-0.6-0.1-0.6-0.1s0.1,0.1,0.1,0.2c0.1,0.1,0.2,0.4,0.3,0.6c0.3,0.4,0.6,1.1,1,1.7c0.4,0.6,0.6,1.3,0.8,1.8
							C88.1,48.3,88.2,48.6,88.2,48.6"/>
					</g>
				</g>
			</g>
		</g>
		<g>
			<g>
				<g>
					<g>
						<defs>
							
								<ellipse id="SVGID_00000148630928624466394270000006635461922420469642_" transform="matrix(0.7071 -0.7071 0.7071 0.7071 -16.5685 39.9994)" cx="40" cy="40" rx="39.8" ry="40"/>
						</defs>
						<clipPath id="SVGID_00000173870420025093596010000001721019127907749784_">
							<use xlink:href="#SVGID_00000148630928624466394270000006635461922420469642_"  style="overflow:visible;"/>
						</clipPath>
						<path style="clip-path:url(#SVGID_00000173870420025093596010000001721019127907749784_);fill:#FFFFFF;" d="M44.7,84.4
							c0,0,0,0.3,0.1,0.6c0.1,0.4,0.2,0.9,0.3,1.4c0.2,1.1,0.5,2.2,0.5,2.2s0.2-0.1,0.6-0.2c0.6,0,1.1-0.2,1.6-0.4
							c1-0.4,2-0.8,2-0.8s-0.3-0.1-0.8-0.4c-0.5-0.2-1.2-0.5-1.8-0.8c-0.6-0.4-1.3-0.7-1.7-1c-0.2-0.4-0.4-0.4-0.5-0.5
							C44.7,84.5,44.7,84.4,44.7,84.4"/>
					</g>
				</g>
			</g>
		</g>
		<g>
			<g>
				<g>
					<g>
						<defs>
							
								<ellipse id="SVGID_00000057114352198391418420000000677479154349995443_" transform="matrix(0.7071 -0.7071 0.7071 0.7071 -16.5685 39.9994)" cx="40" cy="40" rx="39.8" ry="40"/>
						</defs>
						<clipPath id="SVGID_00000098901754629068474640000011866104683486068369_">
							<use xlink:href="#SVGID_00000057114352198391418420000000677479154349995443_"  style="overflow:visible;"/>
						</clipPath>
						<path style="clip-path:url(#SVGID_00000098901754629068474640000011866104683486068369_);fill:#FFFFFF;" d="M40.1,80.7
							c0,0-0.1,1.1-0.1,2.2s0.1,2.3,0.1,2.3s0.3,0,0.7-0.1c0.4,0,1-0.1,1.6-0.3c1.1-0.2,2.1-0.4,2.1-0.4s-1.1-0.8-2.3-1.7
							C41.3,81.7,40.1,80.7,40.1,80.7"/>
					</g>
				</g>
			</g>
		</g>
	</g>
</g>
<g id="Page-1">
	<g id="_x30_3b_x5F_single-v2-tab2" transform="translate(-672.000000, -1488.000000)">
		<g id="Group-4" transform="translate(672.000000, 1488.000000)">
			<g id="Group-Copy-4">
				<g id="Oval-Copy">
					<path class="st1" d="M40,80C17.9,80,0,62.1,0,40S17.9,0,40,0s40,17.9,40,40S62.1,80,40,80z M40,5C20.7,5,5,20.7,5,40
						s15.7,35,35,35s35-15.7,35-35S59.3,5,40,5z"/>
				</g>
			</g>
		</g>
	</g>
</g>
</svg>
