<?xml version="1.0" encoding="utf-8"?>
<!-- Generator: Adobe Illustrator 26.5.0, SVG Export Plug-In . SVG Version: 6.00 Build 0)  -->
<svg version="1.1" id="Livello_1" xmlns="http://www.w3.org/2000/svg" xmlns:xlink="http://www.w3.org/1999/xlink" x="0px" y="0px"
	 viewBox="0 0 80 80" style="enable-background:new 0 0 80 80;" xml:space="preserve">
<style type="text/css">
	.st0{fill:#7A7D83;}
	.st1{fill:#575756;}
	.st2{clip-path:url(#SVGID_00000152945585024010979530000011917201165053127844_);fill:#FFFFFF;}
	.st3{clip-path:url(#SVGID_00000158739847859942874580000017203258556262965381_);}
	.st4{clip-path:url(#SVGID_00000030446913078281890060000001917126606427769275_);}
</style>
<g>
	<path class="st0" d="M80,40c0,22.1-17.9,40-40,40S0,62.1,0,40S17.9,0,40,0S80,17.9,80,40"/>
	<path class="st1" d="M80,40c0,22.1-17.9,40-40,40S0,62.1,0,40S17.9,0,40,0S80,17.9,80,40"/>
</g>
<g>
	<g>
		<defs>
			<circle id="SVGID_1_" cx="40" cy="40" r="40"/>
		</defs>
		<clipPath id="SVGID_00000048463814538311752660000004897323019331839676_">
			<use xlink:href="#SVGID_1_"  style="overflow:visible;"/>
		</clipPath>
		
			<rect x="-4.6" y="24.5" style="clip-path:url(#SVGID_00000048463814538311752660000004897323019331839676_);fill:#FFFFFF;" width="87.6" height="33.5"/>
	</g>
	<g>
		<defs>
			<circle id="SVGID_00000114035793477298324610000017839850337955852715_" cx="40" cy="40" r="40"/>
		</defs>
		<clipPath id="SVGID_00000005961013045466582690000013131575300114785471_">
			<use xlink:href="#SVGID_00000114035793477298324610000017839850337955852715_"  style="overflow:visible;"/>
		</clipPath>
		<g style="clip-path:url(#SVGID_00000005961013045466582690000013131575300114785471_);">
			<path class="st1" d="M26.3,40.5H24l-0.9-2.3H19l-0.9,2.3h-2.2l4-10.3h2.2L26.3,40.5z M22.5,36.4L21,32.6l-1.4,3.8
				C19.6,36.4,22.5,36.4,22.5,36.4z"/>
			<path class="st1" d="M27.4,30.2h4.1c0.8,0,1.4,0,1.8,0.1c0.4,0.1,0.8,0.2,1.1,0.4c0.3,0.2,0.6,0.5,0.8,0.9s0.3,0.8,0.3,1.2
				c0,0.5-0.1,0.9-0.4,1.3c-0.3,0.4-0.6,0.7-1.1,0.9c0.6,0.2,1.1,0.5,1.5,0.9c0.3,0.4,0.5,1,0.5,1.6c0,0.5-0.1,0.9-0.3,1.4
				c-0.2,0.4-0.5,0.8-0.9,1.1s-0.8,0.4-1.4,0.5c-0.3,0-1.2,0.1-2.5,0.1h-3.5C27.4,40.6,27.4,30.2,27.4,30.2z M29.5,31.9v2.4h1.4
				c0.8,0,1.3,0,1.5,0c0.4,0,0.6-0.2,0.8-0.4s0.3-0.5,0.3-0.8s-0.1-0.6-0.3-0.8s-0.4-0.3-0.8-0.4c-0.2,0-0.8,0-1.8,0H29.5z M29.5,36
				v2.8h1.9c0.8,0,1.2,0,1.4-0.1c0.3-0.1,0.6-0.2,0.8-0.4s0.3-0.5,0.3-0.9c0-0.3-0.1-0.6-0.2-0.8c-0.1-0.2-0.4-0.4-0.7-0.5
				S32.1,36,31.2,36H29.5z"/>
			<path class="st1" d="M44.4,36.7l2,0.6c-0.3,1.1-0.8,2-1.5,2.5s-1.6,0.8-2.7,0.8c-1.4,0-2.5-0.5-3.4-1.4s-1.3-2.2-1.3-3.8
				c0-1.7,0.4-3.1,1.3-4c0.9-1,2.1-1.4,3.5-1.4c1.3,0,2.3,0.4,3.1,1.1c0.5,0.4,0.8,1.1,1.1,1.9l-2.1,0.5c-0.1-0.5-0.4-1-0.8-1.3
				c-0.4-0.3-0.9-0.5-1.4-0.5c-0.8,0-1.4,0.3-1.9,0.8s-0.7,1.4-0.7,2.7s0.2,2.2,0.7,2.8s1.1,0.8,1.8,0.8c0.6,0,1-0.2,1.4-0.5
				S44.2,37.5,44.4,36.7z"/>
			<path class="st1" d="M48,37.8v-2h3.9v2H48z"/>
		</g>
	</g>
	<g>
		<defs>
			<circle id="SVGID_00000143618377126728956780000002877289634777857439_" cx="40" cy="40" r="40"/>
		</defs>
		<clipPath id="SVGID_00000115507983694852718640000006692852114229851788_">
			<use xlink:href="#SVGID_00000143618377126728956780000002877289634777857439_"  style="overflow:visible;"/>
		</clipPath>
		<g style="clip-path:url(#SVGID_00000115507983694852718640000006692852114229851788_);">
			<path class="st1" d="M21.6,53.1h-2v-7.5c-0.7,0.7-1.6,1.2-2.6,1.5v-1.8c0.5-0.2,1.1-0.5,1.7-1s1-1,1.2-1.7h1.6L21.6,53.1
				L21.6,53.1z"/>
			<path class="st1" d="M31.3,51.3v1.8h-6.9c0.1-0.7,0.3-1.4,0.7-2c0.4-0.6,1.1-1.4,2.2-2.5c0.9-0.8,1.4-1.4,1.6-1.7
				c0.3-0.4,0.4-0.8,0.4-1.2s-0.1-0.8-0.4-1c-0.2-0.2-0.6-0.4-1-0.4s-0.7,0.1-1,0.4c-0.2,0.2-0.4,0.7-0.4,1.2l-2-0.2
				c0.1-1.1,0.5-1.9,1.1-2.3c0.6-0.5,1.4-0.7,2.3-0.7c1,0,1.8,0.3,2.4,0.8s0.9,1.2,0.9,2c0,0.5-0.1,0.9-0.3,1.3
				c-0.2,0.4-0.4,0.9-0.8,1.3c-0.2,0.3-0.7,0.7-1.3,1.3c-0.6,0.6-1,1-1.2,1.1c-0.2,0.2-0.3,0.4-0.4,0.6h4.1V51.3z"/>
			<path class="st1" d="M32.5,50.4l1.9-0.2c0.1,0.5,0.2,0.9,0.5,1.1c0.3,0.3,0.6,0.4,1,0.4s0.8-0.2,1-0.5c0.3-0.3,0.4-0.7,0.4-1.3
				c0-0.5-0.1-0.9-0.4-1.2c-0.3-0.3-0.6-0.4-1-0.4c-0.3,0-0.6,0-0.9,0.1l0.2-1.6c0.5,0,0.9-0.1,1.2-0.3s0.4-0.6,0.4-1
				c0-0.3-0.1-0.6-0.3-0.8s-0.5-0.3-0.8-0.3s-0.6,0.1-0.9,0.4c-0.2,0.2-0.4,0.6-0.4,1l-1.8-0.3c0.1-0.6,0.3-1.1,0.6-1.5
				s0.6-0.7,1.1-0.9s1-0.3,1.5-0.3c1,0,1.8,0.3,2.3,0.9c0.5,0.5,0.7,1.1,0.7,1.7c0,0.9-0.5,1.6-1.5,2.2c0.6,0.1,1.1,0.4,1.4,0.9
				c0.4,0.4,0.5,1,0.5,1.6c0,0.9-0.3,1.7-1,2.3s-1.5,1-2.5,1c-0.9,0-1.7-0.3-2.3-0.8S32.6,51.3,32.5,50.4z"/>
		</g>
	</g>
</g>
<g id="Page-1">
	<g id="_x30_3b_x5F_single-v2-tab2" transform="translate(-672.000000, -1488.000000)">
		<g id="Group-4" transform="translate(672.000000, 1488.000000)">
			<g id="Group-Copy-4">
				<g id="Oval-Copy">
					<path class="st1" d="M40,80C17.9,80,0,62.1,0,40S17.9,0,40,0s40,17.9,40,40S62.1,80,40,80z M40,5C20.7,5,5,20.7,5,40
						s15.7,35,35,35s35-15.7,35-35S59.3,5,40,5z"/>
				</g>
			</g>
		</g>
	</g>
</g>
</svg>
