<?xml version="1.0" encoding="utf-8"?>
<!-- Generator: Adobe Illustrator 26.5.0, SVG Export Plug-In . SVG Version: 6.00 Build 0)  -->
<svg version="1.1" id="Livello_1" xmlns="http://www.w3.org/2000/svg" xmlns:xlink="http://www.w3.org/1999/xlink" x="0px" y="0px"
	 viewBox="0 0 80 80" style="enable-background:new 0 0 80 80;" xml:space="preserve">
<style type="text/css">
	.st0{fill:#CCC7C0;}
	.st1{fill:#575756;}
	.st2{clip-path:url(#SVGID_00000044155073381982362920000008107475529207895437_);fill:#FFFFFF;}
	.st3{clip-path:url(#SVGID_00000151529305826358284280000016358223519943864744_);fill:#FFFFFF;}
	.st4{clip-path:url(#SVGID_00000065076619875707252800000013078165535447678899_);fill:#FFFFFF;}
</style>
<g>
	<g>
		<path class="st0" d="M80,40c0,22.1-17.9,40-40,40S0,62.1,0,40S17.9,0,40,0S80,17.9,80,40"/>
	</g>
	<g>
		<path class="st1" d="M80,40c0,22.1-17.9,40-40,40S0,62.1,0,40S17.9,0,40,0S80,17.9,80,40"/>
	</g>
</g>
<g>
	<g>
		<g>
			<defs>
				<circle id="SVGID_1_" cx="40" cy="40" r="40"/>
			</defs>
			<clipPath id="SVGID_00000088840006277703914530000002238997231776992152_">
				<use xlink:href="#SVGID_1_"  style="overflow:visible;"/>
			</clipPath>
			
				<rect x="-7.4" y="61.9" style="clip-path:url(#SVGID_00000088840006277703914530000002238997231776992152_);fill:#FFFFFF;" width="103.7" height="4.7"/>
		</g>
	</g>
	<g>
		<g>
			<defs>
				<circle id="SVGID_00000121999346656122620060000002471910433803243649_" cx="40" cy="40" r="40"/>
			</defs>
			<clipPath id="SVGID_00000108296989229176934520000016473387031644056752_">
				<use xlink:href="#SVGID_00000121999346656122620060000002471910433803243649_"  style="overflow:visible;"/>
			</clipPath>
			<polygon style="clip-path:url(#SVGID_00000108296989229176934520000016473387031644056752_);fill:#FFFFFF;" points="51.3,-18.3 
				30.6,-18.3 30.6,24.1 32.3,24.1 32.3,26.7 35.1,26.7 35.1,46.4 46.8,46.4 46.8,26.7 49.6,26.7 49.6,24.1 51.3,24.1 			"/>
		</g>
	</g>
	<g>
		<g>
			<defs>
				<circle id="SVGID_00000165203017021477071620000014834688563955056783_" cx="40" cy="40" r="40"/>
			</defs>
			<clipPath id="SVGID_00000140715978947362265420000009440185117003209357_">
				<use xlink:href="#SVGID_00000165203017021477071620000014834688563955056783_"  style="overflow:visible;"/>
			</clipPath>
			<polygon style="clip-path:url(#SVGID_00000140715978947362265420000009440185117003209357_);fill:#FFFFFF;" points="43.1,46.3 
				38.7,46.3 41,49 			"/>
		</g>
	</g>
</g>
<rect x="35.6" y="59.3" class="st1" width="10.9" height="11"/>
<g id="Page-1">
	<g id="_x30_3b_x5F_single-v2-tab2" transform="translate(-672.000000, -1488.000000)">
		<g id="Group-4" transform="translate(672.000000, 1488.000000)">
			<g id="Group-Copy-4">
				<g id="Oval-Copy">
					<path class="st1" d="M40,80C17.9,80,0,62.1,0,40S17.9,0,40,0s40,17.9,40,40S62.1,80,40,80z M40,5C20.7,5,5,20.7,5,40
						s15.7,35,35,35s35-15.7,35-35S59.3,5,40,5z"/>
				</g>
			</g>
		</g>
	</g>
</g>
</svg>
