<?xml version="1.0" encoding="utf-8"?>
<!-- Generator: Adobe Illustrator 26.5.0, SVG Export Plug-In . SVG Version: 6.00 Build 0)  -->
<svg version="1.1" id="Livello_1" xmlns="http://www.w3.org/2000/svg" xmlns:xlink="http://www.w3.org/1999/xlink" x="0px" y="0px"
	 viewBox="0 0 80 80" style="enable-background:new 0 0 80 80;" xml:space="preserve">
<style type="text/css">
	.st0{clip-path:url(#SVGID_00000085952754672704415310000002336751431390875063_);fill:#7A7D83;}
	.st1{clip-path:url(#SVGID_00000172410623857633653370000007362049154456793523_);fill:#575756;}
	.st2{clip-path:url(#SVGID_00000147212054083982550070000013492588514926184370_);fill:#FFFFFF;}
	.st3{clip-path:url(#SVGID_00000060025363985056490500000005824796719862779814_);fill:#FFFFFF;}
	.st4{clip-path:url(#SVGID_00000011744940818111332620000002802376781644591244_);fill:#575756;}
	.st5{clip-path:url(#SVGID_00000137842849986888604060000009219037559414538408_);fill:#FFFFFF;}
	.st6{clip-path:url(#SVGID_00000164480862933105070290000008123076047860067996_);fill:#575756;}
	.st7{clip-path:url(#SVGID_00000078044170805395193450000007831414943290471320_);fill:#FFFFFF;}
	.st8{fill:#575756;}
</style>
<g>
	<g>
		<defs>
			<rect id="SVGID_1_" x="0.3" y="0" width="79.8" height="79.8"/>
		</defs>
		<clipPath id="SVGID_00000165216002132182595270000010412372378059778482_">
			<use xlink:href="#SVGID_1_"  style="overflow:visible;"/>
		</clipPath>
		<path style="clip-path:url(#SVGID_00000165216002132182595270000010412372378059778482_);fill:#7A7D83;" d="M80.1,39.9
			c0,22-17.9,39.9-39.9,39.9S0.3,62,0.3,39.9C0.3,17.9,18.2,0,40.2,0S80.1,17.9,80.1,39.9"/>
	</g>
	<g>
		<defs>
			<rect id="SVGID_00000049921911338710902910000002454525209334642855_" x="0.3" y="0" width="79.8" height="79.8"/>
		</defs>
		<clipPath id="SVGID_00000044166696713427504160000014991424084748408989_">
			<use xlink:href="#SVGID_00000049921911338710902910000002454525209334642855_"  style="overflow:visible;"/>
		</clipPath>
		<path style="clip-path:url(#SVGID_00000044166696713427504160000014991424084748408989_);fill:#575756;" d="M80.1,39.9
			c0,22-17.9,39.9-39.9,39.9S0.3,62,0.3,39.9C0.3,17.9,18.2,0,40.2,0S80.1,17.9,80.1,39.9"/>
	</g>
</g>
<g>
	<g>
		<defs>
			<circle id="SVGID_00000054263475413052451020000015029839799843464357_" cx="40.2" cy="39.9" r="39.9"/>
		</defs>
		<clipPath id="SVGID_00000121996656457473041330000011132016013732826016_">
			<use xlink:href="#SVGID_00000054263475413052451020000015029839799843464357_"  style="overflow:visible;"/>
		</clipPath>
		<path style="clip-path:url(#SVGID_00000121996656457473041330000011132016013732826016_);fill:#FFFFFF;" d="M30.1-0.2v20.6h1.7
			v9.5h1.8v11.3h5.6c0,0,0.1-1.5,1.2-2.6c1.1-1.1,2.5-1.3,2.5-1.3v3.8h4V29.9h1.8v-9.5h1.7V-0.2H30.1z"/>
	</g>
	<g>
		<defs>
			<circle id="SVGID_00000016038878122164481130000009734991550318445476_" cx="38.1" cy="37.2" r="39.9"/>
		</defs>
		<clipPath id="SVGID_00000131368665613920812100000006163001719407923345_">
			<use xlink:href="#SVGID_00000016038878122164481130000009734991550318445476_"  style="overflow:visible;"/>
		</clipPath>
		
			<rect x="31.8" y="40.2" transform="matrix(0.8661 -0.4999 0.4999 0.8661 -16.7055 22.7699)" style="clip-path:url(#SVGID_00000131368665613920812100000006163001719407923345_);fill:#FFFFFF;" width="4.7" height="4.7"/>
	</g>
	<g>
		<defs>
			<circle id="SVGID_00000160186292945722744210000016405180747860015030_" cx="40.2" cy="39.9" r="39.9"/>
		</defs>
		<clipPath id="SVGID_00000063629414447042369200000013871025887961289362_">
			<use xlink:href="#SVGID_00000160186292945722744210000016405180747860015030_"  style="overflow:visible;"/>
		</clipPath>
		<path style="clip-path:url(#SVGID_00000063629414447042369200000013871025887961289362_);fill:#575756;" d="M35.4,42.6
			c0,0.7-0.5,1.2-1.2,1.2S33,43.3,33,42.6s0.5-1.2,1.2-1.2C34.9,41.4,35.4,41.9,35.4,42.6"/>
	</g>
	<g>
		<defs>
			<circle id="SVGID_00000116234413903433942850000016057620523429500599_" cx="39.6" cy="43.1" r="39.9"/>
		</defs>
		<clipPath id="SVGID_00000138547606643446966050000006318396661958251951_">
			<use xlink:href="#SVGID_00000116234413903433942850000016057620523429500599_"  style="overflow:visible;"/>
		</clipPath>
		
			<rect x="43.6" y="40.2" transform="matrix(0.8661 -0.4999 0.4999 0.8661 -15.1186 28.6648)" style="clip-path:url(#SVGID_00000138547606643446966050000006318396661958251951_);fill:#FFFFFF;" width="4.7" height="4.7"/>
	</g>
	<g>
		<defs>
			<circle id="SVGID_00000005268196800958653990000006545907032700436352_" cx="40.2" cy="39.9" r="39.9"/>
		</defs>
		<clipPath id="SVGID_00000036216646204476490570000014556845644835671963_">
			<use xlink:href="#SVGID_00000005268196800958653990000006545907032700436352_"  style="overflow:visible;"/>
		</clipPath>
		<path style="clip-path:url(#SVGID_00000036216646204476490570000014556845644835671963_);fill:#575756;" d="M47.2,42.6
			c0,0.7-0.5,1.2-1.2,1.2s-1.2-0.5-1.2-1.2s0.5-1.2,1.2-1.2C46.7,41.4,47.2,41.9,47.2,42.6"/>
	</g>
	<g>
		<defs>
			<circle id="SVGID_00000006690749659401997100000000681158533405276560_" cx="40.2" cy="39.9" r="39.9"/>
		</defs>
		<clipPath id="SVGID_00000082364628037851443830000000983906011559245241_">
			<use xlink:href="#SVGID_00000006690749659401997100000000681158533405276560_"  style="overflow:visible;"/>
		</clipPath>
		<polygon style="clip-path:url(#SVGID_00000082364628037851443830000000983906011559245241_);fill:#FFFFFF;" points="47.6,60.5 
			47.6,62.9 32.7,62.9 32.7,60.5 25.1,60.5 -7.2,60.5 -7.2,65.1 20.5,65.1 31.8,65.1 32.7,65.1 47.6,65.1 47.9,65.1 94.5,65.1 
			94.5,60.5 		"/>
	</g>
</g>
<g id="Page-1">
	<g id="_x30_3b_x5F_single-v2-tab2" transform="translate(-672.000000, -1488.000000)">
		<g id="Group-4" transform="translate(672.000000, 1488.000000)">
			<g id="Group-Copy-4">
				<g id="Oval-Copy">
					<path class="st8" d="M40,80C17.9,80,0,62.1,0,40S17.9,0,40,0s40,17.9,40,40S62.1,80,40,80z M40,5C20.7,5,5,20.7,5,40
						s15.7,35,35,35s35-15.7,35-35S59.3,5,40,5z"/>
				</g>
			</g>
		</g>
	</g>
</g>
</svg>
