<?xml version="1.0" encoding="utf-8"?>
<!-- Generator: Adobe Illustrator 26.5.0, SVG Export Plug-In . SVG Version: 6.00 Build 0)  -->
<svg version="1.1" id="Livello_1" xmlns="http://www.w3.org/2000/svg" xmlns:xlink="http://www.w3.org/1999/xlink" x="0px" y="0px"
	 viewBox="0 0 80 80" style="enable-background:new 0 0 80 80;" xml:space="preserve">
<style type="text/css">
	.st0{fill:#CCC7C0;}
	.st1{fill:#575756;}
	.st2{fill:#AAAAAA;}
	.st3{clip-path:url(#SVGID_00000147198426483257579300000001362977457856717211_);fill:#FFFFFF;}
	.st4{clip-path:url(#SVGID_00000127755830321532575430000008537550345918295199_);fill:#575756;}
	.st5{clip-path:url(#SVGID_00000009571932194409639400000008149114038000578481_);fill:#FFFFFF;}
	.st6{clip-path:url(#SVGID_00000081609258454996714160000007557688501763125414_);fill:#FFFFFF;}
	.st7{clip-path:url(#SVGID_00000071548458940499682700000006090892459574585736_);fill:#FFFFFF;}
	.st8{clip-path:url(#SVGID_00000088127617679728270330000003451952154597644697_);fill:#FFFFFF;}
	.st9{clip-path:url(#SVGID_00000085244942453540501630000006682964086394955932_);fill:#FFFFFF;}
	.st10{clip-path:url(#SVGID_00000180328648257539115150000002318726602919590025_);fill:#FFFFFF;}
	.st11{clip-path:url(#SVGID_00000017490905512303411710000014852904715206636950_);fill:#FFFFFF;}
	.st12{clip-path:url(#SVGID_00000167371666787301654170000006779375501615482814_);fill:#FFFFFF;}
	.st13{clip-path:url(#SVGID_00000145021754232960022560000015850867657555177135_);fill:#FFFFFF;}
	.st14{clip-path:url(#SVGID_00000129893451315302737540000005898052341881274550_);fill:#FFFFFF;}
	.st15{clip-path:url(#SVGID_00000052079293875404438940000000657555730865354120_);fill:#FFFFFF;}
	.st16{clip-path:url(#SVGID_00000122719271248147314220000005616989051405386122_);fill:#FFFFFF;}
	.st17{clip-path:url(#SVGID_00000040564191681909812960000009955902859595659709_);fill:#FFFFFF;}
	.st18{clip-path:url(#SVGID_00000179639799962238795920000007435989212071417504_);fill:#FFFFFF;}
	.st19{clip-path:url(#SVGID_00000114759537050170057870000010089888592136774056_);fill:#FFFFFF;}
	.st20{clip-path:url(#SVGID_00000060000063861716070520000015154770253999103918_);fill:#FFFFFF;}
	.st21{clip-path:url(#SVGID_00000080924705583943746790000003786606023089873288_);fill:#FFFFFF;}
	.st22{clip-path:url(#SVGID_00000052079635172839900000000009522983470660434320_);fill:#FFFFFF;}
	.st23{clip-path:url(#SVGID_00000041257879940513154890000013343964309571440515_);fill:#FFFFFF;}
	.st24{clip-path:url(#SVGID_00000152255879500712814220000014593449598097046955_);fill:#FFFFFF;}
</style>
<g>
	<g>
		<path class="st0" d="M79.8,40C79.8,62.1,62,80,40,80S0.2,62.1,0.2,40S18,0,40,0S79.8,17.9,79.8,40"/>
		<path class="st1" d="M79.8,40C79.8,62.1,62,80,40,80S0.2,62.1,0.2,40S18,0,40,0S79.8,17.9,79.8,40"/>
	</g>
	<g>
		<g>
			<g>
				<rect x="18.7" y="28.7" class="st2" width="26.4" height="5.6"/>
			</g>
			<g>
				<rect x="42.5" y="18.1" class="st2" width="5.6" height="26.4"/>
			</g>
			<g>
				<rect x="15.7" y="18.1" class="st2" width="5.6" height="26.4"/>
			</g>
		</g>
	</g>
	<g>
		<g>
			<g>
				<g>
					<defs>
						
							<ellipse id="SVGID_1_" transform="matrix(0.7071 -0.7071 0.7071 0.7071 -16.5687 39.9996)" cx="40" cy="40" rx="39.8" ry="40"/>
					</defs>
					<clipPath id="SVGID_00000093174247404448403730000006745050007670646656_">
						<use xlink:href="#SVGID_1_"  style="overflow:visible;"/>
					</clipPath>
					<path style="clip-path:url(#SVGID_00000093174247404448403730000006745050007670646656_);fill:#FFFFFF;" d="M39.9,80.9
						c-11.6-11.6-11.6-30.4,0-42s30.5-11.6,42.1,0s11.6,30.4,0,42S51.5,92.5,39.9,80.9"/>
				</g>
			</g>
		</g>
		<g>
			<g>
				<g>
					<defs>
						
							<ellipse id="SVGID_00000003827302451544876730000012514149748409501571_" transform="matrix(0.7071 -0.7071 0.7071 0.7071 -16.5687 39.9996)" cx="40" cy="40" rx="39.8" ry="40"/>
					</defs>
					<clipPath id="SVGID_00000150803342743407014900000012792017148022699656_">
						<use xlink:href="#SVGID_00000003827302451544876730000012514149748409501571_"  style="overflow:visible;"/>
					</clipPath>
					<path style="clip-path:url(#SVGID_00000150803342743407014900000012792017148022699656_);fill:#575756;" d="M56.5,64.3
						c-2.5-2.5-2.5-6.4,0-8.9s6.4-2.5,8.9,0s2.5,6.4,0,8.9C63,66.8,59,66.8,56.5,64.3"/>
				</g>
			</g>
		</g>
		<g>
			<g>
				<g>
					<defs>
						
							<ellipse id="SVGID_00000162339398910326963740000017614922765802404481_" transform="matrix(0.7071 -0.7071 0.7071 0.7071 -16.5687 39.9996)" cx="40" cy="40" rx="39.8" ry="40"/>
					</defs>
					<clipPath id="SVGID_00000061434303956152505230000015950606190483395001_">
						<use xlink:href="#SVGID_00000162339398910326963740000017614922765802404481_"  style="overflow:visible;"/>
					</clipPath>
					<path style="clip-path:url(#SVGID_00000061434303956152505230000015950606190483395001_);fill:#FFFFFF;" d="M36.6,76.3
						c0,0-0.3,1-0.4,2.1C36,79,36,79.5,35.9,80s-0.1,0.7-0.1,0.7s1.2,0.1,2.3,0.1s2.2-0.1,2.2-0.1s-0.9-1.1-2-2.1
						C37.5,77.5,36.6,76.3,36.6,76.3"/>
				</g>
			</g>
		</g>
		<g>
			<g>
				<g>
					<defs>
						
							<ellipse id="SVGID_00000133524811082583442520000009914256600693217720_" transform="matrix(0.7071 -0.7071 0.7071 0.7071 -16.5687 39.9996)" cx="40" cy="40" rx="39.8" ry="40"/>
					</defs>
					<clipPath id="SVGID_00000132785742423809881120000005477951422338683572_">
						<use xlink:href="#SVGID_00000133524811082583442520000009914256600693217720_"  style="overflow:visible;"/>
					</clipPath>
					<path style="clip-path:url(#SVGID_00000132785742423809881120000005477951422338683572_);fill:#FFFFFF;" d="M33.8,71.2
						c0,0-0.4,1-0.8,2c-0.2,0.5-0.4,1-0.6,1.4s-0.2,0.6-0.2,0.6s1.1,0.3,2.2,0.5c0.6,0.1,1.1,0.2,1.4,0.3c0.4,0.1,0.6,0.1,0.6,0.1
						L36.3,76c-0.1-0.1-0.2-0.4-0.3-0.6c-0.3-0.4-0.6-1.1-1-1.7s-0.6-1.3-0.8-1.8C34,71.5,33.8,71.2,33.8,71.2"/>
				</g>
			</g>
		</g>
		<g>
			<g>
				<g>
					<defs>
						
							<ellipse id="SVGID_00000154408854829912293940000003949789626537358484_" transform="matrix(0.7071 -0.7071 0.7071 0.7071 -16.5687 39.9996)" cx="40" cy="40" rx="39.8" ry="40"/>
					</defs>
					<clipPath id="SVGID_00000073711642543379202760000006790341157626685096_">
						<use xlink:href="#SVGID_00000154408854829912293940000003949789626537358484_"  style="overflow:visible;"/>
					</clipPath>
					<path style="clip-path:url(#SVGID_00000073711642543379202760000006790341157626685096_);fill:#FFFFFF;" d="M32.2,65.7
						c0,0-0.6,0.9-1.3,1.8c-0.3,0.4-0.6,0.9-0.8,1.3s-0.4,0.6-0.4,0.6s1.1,0.5,2.1,0.9c0.5,0.2,1,0.4,1.4,0.6
						c0.4,0.1,0.6,0.2,0.6,0.2s-0.1-0.1-0.1-0.2s-0.1-0.4-0.2-0.6c-0.2-0.5-0.4-1.1-0.7-1.8c-0.2-0.6-0.4-1.3-0.5-1.9
						C32.2,66,32.2,65.7,32.2,65.7"/>
				</g>
			</g>
		</g>
		<g>
			<g>
				<g>
					<defs>
						
							<ellipse id="SVGID_00000004526030295235038620000018037406532710927517_" transform="matrix(0.7071 -0.7071 0.7071 0.7071 -16.5687 39.9996)" cx="40" cy="40" rx="39.8" ry="40"/>
					</defs>
					<clipPath id="SVGID_00000088090859523909857320000015395614401348580024_">
						<use xlink:href="#SVGID_00000004526030295235038620000018037406532710927517_"  style="overflow:visible;"/>
					</clipPath>
					<path style="clip-path:url(#SVGID_00000088090859523909857320000015395614401348580024_);fill:#FFFFFF;" d="M31.6,59.9
						c0,0-0.8,0.7-1.6,1.5c-0.8,0.8-1.6,1.7-1.6,1.7s1,0.7,1.9,1.3s1.8,1.1,1.8,1.1s-0.1-1.4-0.4-2.8C31.7,61.4,31.6,59.9,31.6,59.9
						"/>
				</g>
			</g>
		</g>
		<g>
			<g>
				<g>
					<defs>
						
							<ellipse id="SVGID_00000032611725338833210660000009033681534176261289_" transform="matrix(0.7071 -0.7071 0.7071 0.7071 -16.5687 39.9996)" cx="40" cy="40" rx="39.8" ry="40"/>
					</defs>
					<clipPath id="SVGID_00000050662083948742053520000010773826104310120894_">
						<use xlink:href="#SVGID_00000032611725338833210660000009033681534176261289_"  style="overflow:visible;"/>
					</clipPath>
					<path style="clip-path:url(#SVGID_00000050662083948742053520000010773826104310120894_);fill:#FFFFFF;" d="M32.2,54.2
						c0,0-0.3,0.1-0.6,0.4c-0.4,0.2-0.8,0.5-1.3,0.8c-0.9,0.6-1.9,1.3-1.9,1.3s0.2,0.2,0.5,0.5s0.7,0.7,1.1,1.1
						c0.8,0.8,1.6,1.6,1.6,1.6s0.1-1.5,0.1-2.8c0.1-0.7,0.1-1.4,0.3-2c0-0.3,0.1-0.5,0.1-0.6C32.1,54.3,32.2,54.2,32.2,54.2"/>
				</g>
			</g>
		</g>
		<g>
			<g>
				<g>
					<defs>
						
							<ellipse id="SVGID_00000010997198613003146790000001564045617048513186_" transform="matrix(0.7071 -0.7071 0.7071 0.7071 -16.5687 39.9996)" cx="40" cy="40" rx="39.8" ry="40"/>
					</defs>
					<clipPath id="SVGID_00000045585573725737459840000012817137936585364611_">
						<use xlink:href="#SVGID_00000010997198613003146790000001564045617048513186_"  style="overflow:visible;"/>
					</clipPath>
					<path style="clip-path:url(#SVGID_00000045585573725737459840000012817137936585364611_);fill:#FFFFFF;" d="M33.8,48.6
						c0,0-0.3,0.1-0.6,0.2c-0.4,0.1-0.9,0.4-1.4,0.6c-1,0.4-2.1,0.9-2.1,0.9s0.1,0.3,0.4,0.6c0.2,0.4,0.6,0.8,0.8,1.3
						c0.6,0.9,1.3,1.8,1.3,1.8s0.1-0.4,0.2-0.9s0.3-1.3,0.5-1.9c0.2-0.6,0.5-1.3,0.6-1.9C33.6,49.1,33.6,48.9,33.8,48.6
						C33.8,48.7,33.8,48.6,33.8,48.6"/>
				</g>
			</g>
		</g>
		<g>
			<g>
				<g>
					<defs>
						
							<ellipse id="SVGID_00000065787787693766690870000010841929111870155964_" transform="matrix(0.7071 -0.7071 0.7071 0.7071 -16.5687 39.9996)" cx="40" cy="40" rx="39.8" ry="40"/>
					</defs>
					<clipPath id="SVGID_00000015346861394237420520000012185547342703997573_">
						<use xlink:href="#SVGID_00000065787787693766690870000010841929111870155964_"  style="overflow:visible;"/>
					</clipPath>
					<path style="clip-path:url(#SVGID_00000015346861394237420520000012185547342703997573_);fill:#FFFFFF;" d="M36.5,43.6
						c0,0-0.3,0-0.6,0.1S35,43.9,34.5,44c-1.1,0.2-2.2,0.5-2.2,0.5s0.1,0.2,0.2,0.6c0.1,0.4,0.4,0.9,0.6,1.4c0.4,1,0.8,2,0.8,2
						s0.1-0.3,0.4-0.8s0.5-1.2,0.8-1.8c0.4-0.6,0.7-1.3,1-1.7c0.1-0.3,0.3-0.4,0.3-0.6C36.5,43.7,36.5,43.6,36.5,43.6"/>
				</g>
			</g>
		</g>
		<g>
			<g>
				<g>
					<defs>
						
							<ellipse id="SVGID_00000121983738820220446200000003642741440797251255_" transform="matrix(0.7071 -0.7071 0.7071 0.7071 -16.5687 39.9996)" cx="40" cy="40" rx="39.8" ry="40"/>
					</defs>
					<clipPath id="SVGID_00000004524399472567279570000008974001657278033552_">
						<use xlink:href="#SVGID_00000121983738820220446200000003642741440797251255_"  style="overflow:visible;"/>
					</clipPath>
					<path style="clip-path:url(#SVGID_00000004524399472567279570000008974001657278033552_);fill:#FFFFFF;" d="M40.2,39.1
						c0,0-1.1-0.1-2.2-0.1c-1.1,0-2.3,0.1-2.3,0.1s0,0.3,0.1,0.7c0.1,0.5,0.1,1,0.3,1.6c0.2,1.1,0.4,2.1,0.4,2.1s0.3-0.3,0.6-0.7
						s0.7-1,1.1-1.6C39.3,40.1,40.2,39.1,40.2,39.1"/>
				</g>
			</g>
		</g>
		<g>
			<g>
				<g>
					<defs>
						
							<ellipse id="SVGID_00000041297203739182627780000006519866780985227393_" transform="matrix(0.7071 -0.7071 0.7071 0.7071 -16.5687 39.9996)" cx="40" cy="40" rx="39.8" ry="40"/>
					</defs>
					<clipPath id="SVGID_00000049221676239126121880000005504735783542961035_">
						<use xlink:href="#SVGID_00000041297203739182627780000006519866780985227393_"  style="overflow:visible;"/>
					</clipPath>
					<path style="clip-path:url(#SVGID_00000049221676239126121880000005504735783542961035_);fill:#FFFFFF;" d="M44.6,35.5
						c0,0-1-0.3-2.1-0.4c-0.6-0.1-1.1-0.2-1.6-0.3s-0.7-0.1-0.7-0.1s-0.1,1.2-0.1,2.3s0.1,2.2,0.1,2.2s1.1-0.9,2.1-2
						c0.6-0.4,1.1-0.8,1.6-1.1C44.2,35.8,44.6,35.5,44.6,35.5"/>
				</g>
			</g>
		</g>
		<g>
			<g>
				<g>
					<defs>
						
							<ellipse id="SVGID_00000050653730759657905510000017224892758378367675_" transform="matrix(0.7071 -0.7071 0.7071 0.7071 -16.5687 39.9996)" cx="40" cy="40" rx="39.8" ry="40"/>
					</defs>
					<clipPath id="SVGID_00000098185460467690050900000006111149044601038489_">
						<use xlink:href="#SVGID_00000050653730759657905510000017224892758378367675_"  style="overflow:visible;"/>
					</clipPath>
					<path style="clip-path:url(#SVGID_00000098185460467690050900000006111149044601038489_);fill:#FFFFFF;" d="M49.7,32.7
						c0,0-1-0.4-2-0.8c-0.5-0.2-1-0.4-1.4-0.6c-0.4-0.1-0.6-0.2-0.6-0.2s-0.3,1.1-0.5,2.2c-0.1,0.6-0.2,1.1-0.3,1.4
						s-0.1,0.6-0.1,0.6l0.1-0.1c0.1-0.1,0.4-0.2,0.6-0.3c0.4-0.3,1.1-0.6,1.7-1c0.6-0.4,1.3-0.6,1.8-0.8
						C49.3,32.9,49.7,32.7,49.7,32.7"/>
				</g>
			</g>
		</g>
		<g>
			<g>
				<g>
					<defs>
						
							<ellipse id="SVGID_00000060744996706162769380000017555234982913990578_" transform="matrix(0.7071 -0.7071 0.7071 0.7071 -16.5687 39.9996)" cx="40" cy="40" rx="39.8" ry="40"/>
					</defs>
					<clipPath id="SVGID_00000167398556770995739680000002486314073042840758_">
						<use xlink:href="#SVGID_00000060744996706162769380000017555234982913990578_"  style="overflow:visible;"/>
					</clipPath>
					<path style="clip-path:url(#SVGID_00000167398556770995739680000002486314073042840758_);fill:#FFFFFF;" d="M55.1,31.1
						c0,0-0.9-0.6-1.8-1.3c-0.4-0.3-0.9-0.6-1.3-0.8s-0.6-0.4-0.6-0.4s-0.5,1.1-0.9,2.1c-0.2,0.5-0.4,1-0.6,1.4
						c-0.2,0.4-0.2,0.6-0.2,0.6s0.1-0.1,0.2-0.1c0.1,0,0.4-0.1,0.6-0.2c0.5-0.2,1.1-0.4,1.8-0.7c0.6-0.2,1.3-0.4,1.9-0.5
						C54.8,31.2,55.1,31.1,55.1,31.1"/>
				</g>
			</g>
		</g>
		<g>
			<g>
				<g>
					<defs>
						
							<ellipse id="SVGID_00000135682833404096959200000017273317628648813187_" transform="matrix(0.7071 -0.7071 0.7071 0.7071 -16.5687 39.9996)" cx="40" cy="40" rx="39.8" ry="40"/>
					</defs>
					<clipPath id="SVGID_00000139975963604332765130000003463001033269328048_">
						<use xlink:href="#SVGID_00000135682833404096959200000017273317628648813187_"  style="overflow:visible;"/>
					</clipPath>
					<path style="clip-path:url(#SVGID_00000139975963604332765130000003463001033269328048_);fill:#FFFFFF;" d="M60.9,30.5
						c0,0-0.7-0.8-1.6-1.6c-0.4-0.4-0.8-0.8-1.1-1.1c-0.3-0.3-0.5-0.5-0.5-0.5s-0.7,1-1.3,1.9c-0.3,0.4-0.6,0.9-0.8,1.3
						s-0.4,0.6-0.4,0.6s0.1-0.1,0.2-0.1c0.1,0,0.4-0.1,0.6-0.1c0.5-0.1,1.2-0.2,2-0.3C59.5,30.5,60.9,30.5,60.9,30.5"/>
				</g>
			</g>
		</g>
		<g>
			<g>
				<g>
					<defs>
						
							<ellipse id="SVGID_00000078744709179506703230000017259941121928994209_" transform="matrix(0.7071 -0.7071 0.7071 0.7071 -16.5687 39.9996)" cx="40" cy="40" rx="39.8" ry="40"/>
					</defs>
					<clipPath id="SVGID_00000116950238913779742550000015037400850288277695_">
						<use xlink:href="#SVGID_00000078744709179506703230000017259941121928994209_"  style="overflow:visible;"/>
					</clipPath>
					<path style="clip-path:url(#SVGID_00000116950238913779742550000015037400850288277695_);fill:#FFFFFF;" d="M66.7,31
						c0,0-0.5-0.9-1.1-1.8s-1.3-1.9-1.3-1.9s-0.9,0.8-1.7,1.6c-0.8,0.8-1.6,1.6-1.6,1.6s1.5,0.1,2.8,0.1C65.2,30.9,66.7,31,66.7,31"
						/>
				</g>
			</g>
		</g>
		<g>
			<g>
				<g>
					<defs>
						
							<ellipse id="SVGID_00000148641472320265361150000001350169989849014693_" transform="matrix(0.7071 -0.7071 0.7071 0.7071 -16.5687 39.9996)" cx="40" cy="40" rx="39.8" ry="40"/>
					</defs>
					<clipPath id="SVGID_00000173861595204691227130000010135748319473611410_">
						<use xlink:href="#SVGID_00000148641472320265361150000001350169989849014693_"  style="overflow:visible;"/>
					</clipPath>
					<path style="clip-path:url(#SVGID_00000173861595204691227130000010135748319473611410_);fill:#FFFFFF;" d="M72.2,32.8
						c0,0-0.1-0.2-0.2-0.6c-0.1-0.4-0.4-0.9-0.6-1.4c-0.4-1-0.9-2.1-0.9-2.1s-0.3,0.1-0.6,0.4s-0.8,0.6-1.3,0.8
						c-0.9,0.6-1.8,1.3-1.8,1.3s0.4,0.1,0.9,0.2c0.6,0.1,1.3,0.3,1.9,0.5c0.6,0.2,1.3,0.5,1.9,0.6C71.7,32.6,72,32.6,72.2,32.8
						C72.2,32.7,72.2,32.8,72.2,32.8"/>
				</g>
			</g>
		</g>
		<g>
			<g>
				<g>
					<defs>
						
							<ellipse id="SVGID_00000067210284005346877260000012917797516859477156_" transform="matrix(0.7071 -0.7071 0.7071 0.7071 -16.5687 39.9996)" cx="40" cy="40" rx="39.8" ry="40"/>
					</defs>
					<clipPath id="SVGID_00000016760337657793171120000013918422466912718501_">
						<use xlink:href="#SVGID_00000067210284005346877260000012917797516859477156_"  style="overflow:visible;"/>
					</clipPath>
					<path style="clip-path:url(#SVGID_00000016760337657793171120000013918422466912718501_);fill:#FFFFFF;" d="M77.3,35.4
						c0,0,0-0.3-0.1-0.6c-0.1-0.4-0.2-0.9-0.3-1.4c-0.2-1.1-0.5-2.2-0.5-2.2s-0.2,0.1-0.6,0.2s-0.9,0.4-1.4,0.6c-1,0.4-2,0.8-2,0.8
						s0.3,0.1,0.8,0.4c0.5,0.2,1.2,0.5,1.8,0.8c0.6,0.4,1.3,0.7,1.7,1c0.3,0.1,0.4,0.3,0.6,0.3C77.2,35.3,77.3,35.4,77.3,35.4"/>
				</g>
			</g>
		</g>
		<g>
			<g>
				<g>
					<defs>
						
							<ellipse id="SVGID_00000154386654218239997400000000206796591706220723_" transform="matrix(0.7071 -0.7071 0.7071 0.7071 -16.5687 39.9996)" cx="40" cy="40" rx="39.8" ry="40"/>
					</defs>
					<clipPath id="SVGID_00000108998004630011533920000015985167226494315935_">
						<use xlink:href="#SVGID_00000154386654218239997400000000206796591706220723_"  style="overflow:visible;"/>
					</clipPath>
					<path style="clip-path:url(#SVGID_00000108998004630011533920000015985167226494315935_);fill:#FFFFFF;" d="M81.8,39.1
						c0,0,0.1-1.1,0.1-2.2s-0.1-2.3-0.1-2.3s-0.3,0-0.7,0.1c-0.4,0-1,0.1-1.6,0.3c-1.1,0.2-2.1,0.4-2.1,0.4s1.1,0.8,2.3,1.7
						C80.7,38.2,81.8,39.1,81.8,39.1"/>
				</g>
			</g>
		</g>
		<g>
			<g>
				<g>
					<defs>
						
							<ellipse id="SVGID_00000047738870251914314950000013435133192914339746_" transform="matrix(0.7071 -0.7071 0.7071 0.7071 -16.5687 39.9996)" cx="40" cy="40" rx="39.8" ry="40"/>
					</defs>
					<clipPath id="SVGID_00000080887690192540627920000018185570667198813856_">
						<use xlink:href="#SVGID_00000047738870251914314950000013435133192914339746_"  style="overflow:visible;"/>
					</clipPath>
					<path style="clip-path:url(#SVGID_00000080887690192540627920000018185570667198813856_);fill:#FFFFFF;" d="M85.4,43.5
						c0,0,0.3-1,0.4-2.1c0.1-0.6,0.3-1.1,0.4-1.6c0.1-0.4,0.1-0.6,0.1-0.6s-1.2-0.1-2.3-0.1s-2.2,0.1-2.2,0.1s1.1,1.1,2,2.1
						C84.6,42.3,85.4,43.5,85.4,43.5"/>
				</g>
			</g>
		</g>
		<g>
			<g>
				<g>
					<defs>
						
							<ellipse id="SVGID_00000134970863475665419760000008099159622722108586_" transform="matrix(0.7071 -0.7071 0.7071 0.7071 -16.5687 39.9996)" cx="40" cy="40" rx="39.8" ry="40"/>
					</defs>
					<clipPath id="SVGID_00000013912810203929057210000018439306010053266869_">
						<use xlink:href="#SVGID_00000134970863475665419760000008099159622722108586_"  style="overflow:visible;"/>
					</clipPath>
					<path style="clip-path:url(#SVGID_00000013912810203929057210000018439306010053266869_);fill:#FFFFFF;" d="M88.2,48.6
						c0,0,0.4-1,0.8-2c0.2-0.5,0.4-1,0.6-1.4c0.1-0.4,0.3-0.7,0.3-0.7s-1.1-0.3-2.2-0.5c-0.6-0.1-1.1-0.3-1.6-0.3
						c-0.4-0.1-0.6-0.1-0.6-0.1s0.1,0.1,0.1,0.2c0.1,0.1,0.2,0.4,0.3,0.6c0.3,0.4,0.6,1.1,1,1.7c0.4,0.6,0.6,1.3,0.8,1.8
						C88.1,48.3,88.2,48.6,88.2,48.6"/>
				</g>
			</g>
		</g>
		<g>
			<g>
				<g>
					<defs>
						
							<ellipse id="SVGID_00000183940170042820469760000008812527499571680387_" transform="matrix(0.7071 -0.7071 0.7071 0.7071 -16.5687 39.9996)" cx="40" cy="40" rx="39.8" ry="40"/>
					</defs>
					<clipPath id="SVGID_00000109005998010316898280000015251550659932548758_">
						<use xlink:href="#SVGID_00000183940170042820469760000008812527499571680387_"  style="overflow:visible;"/>
					</clipPath>
					<path style="clip-path:url(#SVGID_00000109005998010316898280000015251550659932548758_);fill:#FFFFFF;" d="M44.7,84.4
						c0,0,0,0.3,0.1,0.6c0.1,0.4,0.2,0.9,0.3,1.4c0.2,1.1,0.5,2.2,0.5,2.2s0.2-0.1,0.6-0.2c0.6,0,1.1-0.2,1.6-0.4c1-0.4,2-0.8,2-0.8
						s-0.3-0.1-0.8-0.4c-0.5-0.2-1.2-0.5-1.8-0.8c-0.6-0.4-1.3-0.7-1.7-1c-0.2-0.4-0.4-0.4-0.5-0.5C44.7,84.5,44.7,84.4,44.7,84.4"
						/>
				</g>
			</g>
		</g>
		<g>
			<g>
				<g>
					<defs>
						
							<ellipse id="SVGID_00000024714418178583583440000010888192985561247135_" transform="matrix(0.7071 -0.7071 0.7071 0.7071 -16.5687 39.9996)" cx="40" cy="40" rx="39.8" ry="40"/>
					</defs>
					<clipPath id="SVGID_00000121247797999574983430000014969405315222697088_">
						<use xlink:href="#SVGID_00000024714418178583583440000010888192985561247135_"  style="overflow:visible;"/>
					</clipPath>
					<path style="clip-path:url(#SVGID_00000121247797999574983430000014969405315222697088_);fill:#FFFFFF;" d="M40.1,80.7
						c0,0-0.1,1.1-0.1,2.2s0.1,2.3,0.1,2.3s0.3,0,0.7-0.1c0.4,0,1-0.1,1.6-0.3c1.1-0.2,2.1-0.4,2.1-0.4s-1.1-0.8-2.3-1.7
						C41.3,81.7,40.1,80.7,40.1,80.7"/>
				</g>
			</g>
		</g>
	</g>
</g>
<g id="Page-1">
	<g id="_x30_3b_x5F_single-v2-tab2" transform="translate(-672.000000, -1488.000000)">
		<g id="Group-4" transform="translate(672.000000, 1488.000000)">
			<g id="Group-Copy-4">
				<g id="Oval-Copy">
					<path class="st1" d="M40,80C17.9,80,0,62.1,0,40S17.9,0,40,0s40,17.9,40,40S62.1,80,40,80z M40,5C20.7,5,5,20.7,5,40
						s15.7,35,35,35s35-15.7,35-35S59.3,5,40,5z"/>
				</g>
			</g>
		</g>
	</g>
</g>
</svg>
