<?xml version="1.0" encoding="utf-8"?>
<!-- Generator: Adobe Illustrator 26.5.0, SVG Export Plug-In . SVG Version: 6.00 Build 0)  -->
<svg version="1.1" id="Livello_1" xmlns="http://www.w3.org/2000/svg" xmlns:xlink="http://www.w3.org/1999/xlink" x="0px" y="0px"
	 viewBox="0 0 80 80" style="enable-background:new 0 0 80 80;" xml:space="preserve">
<style type="text/css">
	.st0{fill:#CCC7C0;}
	.st1{fill:#575756;}
	.st2{clip-path:url(#SVGID_00000002346448385038310960000016889621746102828214_);fill:#FFFFFF;}
	.st3{clip-path:url(#SVGID_00000070812223365218010660000008026327793964428221_);fill:#575756;}
	.st4{clip-path:url(#SVGID_00000140012465661916613450000006586936595482131101_);fill:#FFFFFF;}
	.st5{clip-path:url(#SVGID_00000004542624921295689580000006617520172190756538_);fill:#FFFFFF;}
	.st6{clip-path:url(#SVGID_00000005983176886910150380000001928092881054480564_);fill:#FFFFFF;}
	.st7{clip-path:url(#SVGID_00000148648659220666428290000014042630812695137975_);fill:#FFFFFF;}
	.st8{clip-path:url(#SVGID_00000134951339972484862390000004777092913551441295_);fill:#FFFFFF;}
	.st9{clip-path:url(#SVGID_00000126297314112157996020000018181829313265684415_);fill:#FFFFFF;}
	.st10{clip-path:url(#SVGID_00000103971946857329756020000014568709699410516377_);fill:#FFFFFF;}
	.st11{clip-path:url(#SVGID_00000117674275093346578160000003772144889823702432_);fill:#FFFFFF;}
	.st12{clip-path:url(#SVGID_00000123430924429797400590000017889548861749212857_);fill:#FFFFFF;}
	.st13{clip-path:url(#SVGID_00000000184267877733303590000014952344595263594426_);fill:#FFFFFF;}
	.st14{clip-path:url(#SVGID_00000055684993363408879120000000960986812970852529_);fill:#FFFFFF;}
	.st15{clip-path:url(#SVGID_00000086669479634766533450000000860356086235964319_);fill:#FFFFFF;}
	.st16{clip-path:url(#SVGID_00000137853664029995012670000011104910036299604616_);fill:#FFFFFF;}
	.st17{clip-path:url(#SVGID_00000164484579550786222510000002079397914498827909_);fill:#FFFFFF;}
	.st18{clip-path:url(#SVGID_00000026860392958590900090000013228169125128219067_);fill:#FFFFFF;}
	.st19{clip-path:url(#SVGID_00000182497027078660070220000017921793194861017985_);fill:#FFFFFF;}
	.st20{clip-path:url(#SVGID_00000065045049143420946170000006138760447922373528_);fill:#FFFFFF;}
	.st21{clip-path:url(#SVGID_00000063607273777856515850000002625845296831585192_);fill:#FFFFFF;}
	.st22{clip-path:url(#SVGID_00000096756288852686937260000002011462505416855230_);fill:#FFFFFF;}
	.st23{clip-path:url(#SVGID_00000028324447188755452850000003236140893727275914_);fill:#FFFFFF;}
</style>
<g>
	<g>
		<path class="st0" d="M79.8,40C79.8,62.1,62,80,40,80S0.2,62.1,0.2,40S18,0,40,0S79.8,17.9,79.8,40"/>
		<path class="st1" d="M79.8,40C79.8,62.1,62,80,40,80S0.2,62.1,0.2,40S18,0,40,0S79.8,17.9,79.8,40"/>
	</g>
	<g>
		<g>
			<defs>
				<ellipse id="SVGID_1_" cx="40" cy="40" rx="39.8" ry="40"/>
			</defs>
			<clipPath id="SVGID_00000066479511140456916620000001067585182865128085_">
				<use xlink:href="#SVGID_1_"  style="overflow:visible;"/>
			</clipPath>
			<path style="clip-path:url(#SVGID_00000066479511140456916620000001067585182865128085_);fill:#FFFFFF;" d="M69,11.1
				c0,16.4-13.3,29.7-29.7,29.7S9.5,27.5,9.5,11.1s13.3-29.7,29.7-29.7S69-5.3,69,11.1"/>
		</g>
		<g>
			<defs>
				<ellipse id="SVGID_00000011724111051375347840000016330417016094205095_" cx="40" cy="40" rx="39.8" ry="40"/>
			</defs>
			<clipPath id="SVGID_00000083081537567177608210000010578570004448993712_">
				<use xlink:href="#SVGID_00000011724111051375347840000016330417016094205095_"  style="overflow:visible;"/>
			</clipPath>
			<path style="clip-path:url(#SVGID_00000083081537567177608210000010578570004448993712_);fill:#575756;" d="M45.5,11.1
				c0,3.5-2.8,6.3-6.3,6.3s-6.3-2.8-6.3-6.3s2.8-6.3,6.3-6.3C42.7,4.8,45.5,7.6,45.5,11.1"/>
		</g>
		<g>
			<defs>
				<ellipse id="SVGID_00000027586818764848710270000009030348996004486531_" cx="40" cy="40" rx="39.8" ry="40"/>
			</defs>
			<clipPath id="SVGID_00000183938812769281734210000012179690119246668731_">
				<use xlink:href="#SVGID_00000027586818764848710270000009030348996004486531_"  style="overflow:visible;"/>
			</clipPath>
			<path style="clip-path:url(#SVGID_00000183938812769281734210000012179690119246668731_);fill:#FFFFFF;" d="M68.1,16.7
				c0,0,0.9-0.5,1.8-1.2c0.5-0.3,0.9-0.6,1.3-0.9c0.4-0.3,0.6-0.4,0.6-0.4s-0.8-0.9-1.6-1.7c-0.8-0.8-1.6-1.5-1.6-1.5
				s-0.1,1.4-0.1,2.9C68.3,15.3,68.1,16.7,68.1,16.7"/>
		</g>
		<g>
			<defs>
				<ellipse id="SVGID_00000030472657125375891350000002878509972395579799_" cx="40" cy="40" rx="39.8" ry="40"/>
			</defs>
			<clipPath id="SVGID_00000173157814671189027770000015015530252589327017_">
				<use xlink:href="#SVGID_00000030472657125375891350000002878509972395579799_"  style="overflow:visible;"/>
			</clipPath>
			<path style="clip-path:url(#SVGID_00000173157814671189027770000015015530252589327017_);fill:#FFFFFF;" d="M66.4,22.3
				c0,0,1-0.4,2-0.8c0.5-0.2,1-0.4,1.4-0.6s0.6-0.3,0.6-0.3s-0.6-1-1.2-1.9c-0.3-0.5-0.6-0.9-0.8-1.2C68.2,17.2,68,17,68,17
				s0,0.1,0,0.2c0,0.2-0.1,0.4-0.2,0.6c-0.1,0.5-0.3,1.2-0.5,1.9c-0.2,0.7-0.5,1.3-0.7,1.8C66.5,22,66.4,22.3,66.4,22.3"/>
		</g>
		<g>
			<defs>
				<ellipse id="SVGID_00000147202339445854458040000014086346462224241324_" cx="40" cy="40" rx="39.8" ry="40"/>
			</defs>
			<clipPath id="SVGID_00000024681772020124042680000001393402250715681682_">
				<use xlink:href="#SVGID_00000147202339445854458040000014086346462224241324_"  style="overflow:visible;"/>
			</clipPath>
			<path style="clip-path:url(#SVGID_00000024681772020124042680000001393402250715681682_);fill:#FFFFFF;" d="M63.7,27.4
				c0,0,1.1-0.2,2.2-0.4c0.5-0.1,1.1-0.2,1.5-0.3c0.4-0.1,0.7-0.2,0.7-0.2s-0.4-1.1-0.8-2.1c-0.2-0.5-0.4-1-0.6-1.4
				s-0.3-0.6-0.3-0.6s0,0.1-0.1,0.2s-0.2,0.3-0.3,0.6c-0.2,0.5-0.5,1.1-0.8,1.8c-0.3,0.6-0.7,1.2-1,1.7
				C63.9,27.1,63.7,27.4,63.7,27.4"/>
		</g>
		<g>
			<defs>
				<ellipse id="SVGID_00000108988668098866108120000011538750759528300187_" cx="40" cy="40" rx="39.8" ry="40"/>
			</defs>
			<clipPath id="SVGID_00000021839278307154049200000017529119639944332460_">
				<use xlink:href="#SVGID_00000108988668098866108120000011538750759528300187_"  style="overflow:visible;"/>
			</clipPath>
			<path style="clip-path:url(#SVGID_00000021839278307154049200000017529119639944332460_);fill:#FFFFFF;" d="M60,31.9
				c0,0,1.1,0.1,2.2,0.1c1.1,0,2.3-0.1,2.3-0.1s-0.2-1.2-0.4-2.3c-0.2-1.1-0.5-2.1-0.5-2.1s-0.9,1.1-1.7,2.3
				C61,30.8,60,31.9,60,31.9"/>
		</g>
		<g>
			<defs>
				<ellipse id="SVGID_00000100382581713399326560000017742510053013505178_" cx="40" cy="40" rx="39.8" ry="40"/>
			</defs>
			<clipPath id="SVGID_00000005988591615148688920000015323722388242446001_">
				<use xlink:href="#SVGID_00000100382581713399326560000017742510053013505178_"  style="overflow:visible;"/>
			</clipPath>
			<path style="clip-path:url(#SVGID_00000005988591615148688920000015323722388242446001_);fill:#FFFFFF;" d="M55.6,35.5
				c0,0,0.3,0.1,0.7,0.2c0.4,0.1,0.9,0.2,1.5,0.3c1.1,0.2,2.3,0.4,2.3,0.4s0-0.3,0-0.7s0-1,0-1.6c0-1.1,0-2.2,0-2.2s-1.1,1-2.1,1.9
				c-0.6,0.4-1.1,0.9-1.6,1.2c-0.2,0.2-0.4,0.3-0.5,0.4C55.7,35.5,55.6,35.5,55.6,35.5"/>
		</g>
		<g>
			<defs>
				<ellipse id="SVGID_00000051372212891384095860000012986877526377667472_" cx="40" cy="40" rx="39.8" ry="40"/>
			</defs>
			<clipPath id="SVGID_00000098914314763434451080000011228684572038801036_">
				<use xlink:href="#SVGID_00000051372212891384095860000012986877526377667472_"  style="overflow:visible;"/>
			</clipPath>
			<path style="clip-path:url(#SVGID_00000098914314763434451080000011228684572038801036_);fill:#FFFFFF;" d="M50.5,38.3
				c0,0,0.3,0.1,0.6,0.3c0.4,0.2,0.9,0.4,1.4,0.6c1,0.4,2.1,0.8,2.1,0.8s0.1-0.3,0.2-0.7c0.1-0.4,0.2-1,0.3-1.5
				c0.2-1.1,0.4-2.2,0.4-2.2s-0.3,0.2-0.8,0.5s-1.1,0.7-1.7,1c-0.6,0.3-1.3,0.6-1.8,0.9c-0.2,0.1-0.4,0.2-0.6,0.3
				C50.5,38.2,50.5,38.3,50.5,38.3"/>
		</g>
		<g>
			<defs>
				<ellipse id="SVGID_00000162332423088439552380000016177472516901003920_" cx="40" cy="40" rx="39.8" ry="40"/>
			</defs>
			<clipPath id="SVGID_00000147181251681538527320000004552510610157351605_">
				<use xlink:href="#SVGID_00000162332423088439552380000016177472516901003920_"  style="overflow:visible;"/>
			</clipPath>
			<path style="clip-path:url(#SVGID_00000147181251681538527320000004552510610157351605_);fill:#FFFFFF;" d="M45,39.9
				c0,0,0.2,0.2,0.5,0.4s0.8,0.5,1.2,0.8c0.9,0.6,1.9,1.2,1.9,1.2s0.1-0.2,0.3-0.6c0.2-0.4,0.4-0.9,0.6-1.4c0.4-1,0.8-2,0.8-2
				s-0.3,0.1-0.8,0.3s-1.2,0.5-1.8,0.7c-0.7,0.2-1.4,0.4-1.9,0.5c-0.3,0.1-0.5,0.1-0.6,0.2C45.1,39.9,45,39.9,45,39.9"/>
		</g>
		<g>
			<defs>
				<ellipse id="SVGID_00000015320837209522744590000014176934978338234017_" cx="40" cy="40" rx="39.8" ry="40"/>
			</defs>
			<clipPath id="SVGID_00000026866781205985058010000009801877488288700343_">
				<use xlink:href="#SVGID_00000015320837209522744590000014176934978338234017_"  style="overflow:visible;"/>
			</clipPath>
			<path style="clip-path:url(#SVGID_00000026866781205985058010000009801877488288700343_);fill:#FFFFFF;" d="M39.2,40.5
				c0,0,0.7,0.8,1.5,1.6s1.7,1.6,1.7,1.6s0.2-0.2,0.4-0.6c0.3-0.4,0.6-0.8,0.9-1.3c0.6-0.9,1.2-1.8,1.2-1.8s-0.4,0-0.9,0.1
				s-1.2,0.2-1.9,0.3C40.6,40.4,39.2,40.5,39.2,40.5"/>
		</g>
		<g>
			<defs>
				<ellipse id="SVGID_00000056386653467406719830000007339995285088388509_" cx="40" cy="40" rx="39.8" ry="40"/>
			</defs>
			<clipPath id="SVGID_00000111912322416740840900000002719242506483387264_">
				<use xlink:href="#SVGID_00000056386653467406719830000007339995285088388509_"  style="overflow:visible;"/>
			</clipPath>
			<path style="clip-path:url(#SVGID_00000111912322416740840900000002719242506483387264_);fill:#FFFFFF;" d="M33.6,39.9
				c0,0,0.5,0.9,1.2,1.8c0.3,0.5,0.6,0.9,0.9,1.3c0.3,0.4,0.4,0.6,0.4,0.6s0.9-0.8,1.7-1.6s1.5-1.6,1.5-1.6s-1.4-0.1-2.9-0.1
				c-0.7-0.1-1.4-0.2-1.9-0.3C34,40,33.6,39.9,33.6,39.9"/>
		</g>
		<g>
			<defs>
				<ellipse id="SVGID_00000031208775744047632000000007779701582764282782_" cx="40" cy="40" rx="39.8" ry="40"/>
			</defs>
			<clipPath id="SVGID_00000170982532066422893670000016001373230452665520_">
				<use xlink:href="#SVGID_00000031208775744047632000000007779701582764282782_"  style="overflow:visible;"/>
			</clipPath>
			<path style="clip-path:url(#SVGID_00000170982532066422893670000016001373230452665520_);fill:#FFFFFF;" d="M28,38.3
				c0,0,0.4,1,0.8,2c0.2,0.5,0.4,1,0.6,1.4s0.3,0.6,0.3,0.6s1-0.6,1.9-1.2c0.5-0.3,0.9-0.6,1.2-0.8s0.5-0.4,0.5-0.4s-0.1,0-0.2,0
				c-0.2,0-0.4-0.1-0.6-0.2c-0.5-0.1-1.2-0.3-1.9-0.5c-0.7-0.2-1.3-0.5-1.8-0.7C28.4,38.4,28,38.3,28,38.3"/>
		</g>
		<g>
			<defs>
				<ellipse id="SVGID_00000152239958366494499190000013572340950493415604_" cx="40" cy="40" rx="39.8" ry="40"/>
			</defs>
			<clipPath id="SVGID_00000091703475324565845200000009391710117321265559_">
				<use xlink:href="#SVGID_00000152239958366494499190000013572340950493415604_"  style="overflow:visible;"/>
			</clipPath>
			<path style="clip-path:url(#SVGID_00000091703475324565845200000009391710117321265559_);fill:#FFFFFF;" d="M23,35.6
				c0,0,0.2,1.1,0.4,2.2c0.1,0.5,0.2,1.1,0.3,1.5c0.1,0.4,0.2,0.7,0.2,0.7s1.1-0.4,2.1-0.8c0.5-0.2,1-0.4,1.4-0.6
				c0.4-0.2,0.6-0.3,0.6-0.3s-0.1,0-0.2-0.1s-0.3-0.2-0.6-0.3c-0.5-0.2-1.1-0.5-1.8-0.8c-0.6-0.3-1.2-0.7-1.7-1
				C23.3,35.8,23,35.6,23,35.6"/>
		</g>
		<g>
			<defs>
				<ellipse id="SVGID_00000068657606893855046310000001049052867099299463_" cx="40" cy="40" rx="39.8" ry="40"/>
			</defs>
			<clipPath id="SVGID_00000113335311635933653200000005882571381318791098_">
				<use xlink:href="#SVGID_00000068657606893855046310000001049052867099299463_"  style="overflow:visible;"/>
			</clipPath>
			<path style="clip-path:url(#SVGID_00000113335311635933653200000005882571381318791098_);fill:#FFFFFF;" d="M18.5,31.9
				c0,0-0.1,1.1,0,2.2c0,0.6,0,1.1,0,1.6c0,0.4,0,0.7,0,0.7s1.2-0.2,2.3-0.4c0.5-0.1,1.1-0.2,1.5-0.3s0.7-0.2,0.7-0.2
				s-0.1,0-0.2-0.1s-0.3-0.2-0.5-0.4c-0.4-0.3-1-0.7-1.6-1.2C19.5,32.9,18.5,31.9,18.5,31.9"/>
		</g>
		<g>
			<defs>
				<ellipse id="SVGID_00000171701394168863719930000015071955783240288670_" cx="40" cy="40" rx="39.8" ry="40"/>
			</defs>
			<clipPath id="SVGID_00000145019366674706605230000014334996541835997827_">
				<use xlink:href="#SVGID_00000171701394168863719930000015071955783240288670_"  style="overflow:visible;"/>
			</clipPath>
			<path style="clip-path:url(#SVGID_00000145019366674706605230000014334996541835997827_);fill:#FFFFFF;" d="M14.8,27.5
				c0,0-0.3,1-0.5,2.1s-0.4,2.3-0.4,2.3s1.2,0.1,2.3,0.1s2.2,0,2.2,0s-1-1.1-1.9-2.1C15.7,28.6,14.8,27.5,14.8,27.5"/>
		</g>
		<g>
			<defs>
				<ellipse id="SVGID_00000060735670603979985800000007236115796199790726_" cx="40" cy="40" rx="39.8" ry="40"/>
			</defs>
			<clipPath id="SVGID_00000082339126716601827580000001792289626840513939_">
				<use xlink:href="#SVGID_00000060735670603979985800000007236115796199790726_"  style="overflow:visible;"/>
			</clipPath>
			<path style="clip-path:url(#SVGID_00000082339126716601827580000001792289626840513939_);fill:#FFFFFF;" d="M12.1,22.3
				c0,0-0.1,0.2-0.3,0.6s-0.4,0.9-0.6,1.4c-0.4,1-0.8,2.1-0.8,2.1s0.3,0.1,0.7,0.2s1,0.2,1.5,0.3c1.1,0.2,2.2,0.4,2.2,0.4
				s-0.2-0.3-0.5-0.8s-0.7-1.1-1-1.7s-0.6-1.3-0.9-1.8c-0.1-0.2-0.2-0.4-0.3-0.6C12.1,22.4,12.1,22.3,12.1,22.3"/>
		</g>
		<g>
			<defs>
				<ellipse id="SVGID_00000052783348585190978810000004519845233106162848_" cx="40" cy="40" rx="39.8" ry="40"/>
			</defs>
			<clipPath id="SVGID_00000055682931940368217220000006150741475293943426_">
				<use xlink:href="#SVGID_00000052783348585190978810000004519845233106162848_"  style="overflow:visible;"/>
			</clipPath>
			<path style="clip-path:url(#SVGID_00000055682931940368217220000006150741475293943426_);fill:#FFFFFF;" d="M10.4,16.9
				c0,0-0.2,0.2-0.4,0.5s-0.5,0.8-0.8,1.2C8.6,19.5,8,20.5,8,20.5s0.2,0.1,0.6,0.3C9,21,9.5,21.2,10,21.4c1,0.4,2,0.8,2,0.8
				s-0.1-0.3-0.3-0.8s-0.5-1.2-0.7-1.8c-0.2-0.7-0.4-1.4-0.5-1.9c-0.1-0.3-0.1-0.5-0.2-0.6C10.4,17,10.4,16.9,10.4,16.9"/>
		</g>
		<g>
			<defs>
				<ellipse id="SVGID_00000157281696256158070330000015666730074037569212_" cx="40" cy="40" rx="39.8" ry="40"/>
			</defs>
			<clipPath id="SVGID_00000183214644865544794420000003173953392427123375_">
				<use xlink:href="#SVGID_00000157281696256158070330000015666730074037569212_"  style="overflow:visible;"/>
			</clipPath>
			<path style="clip-path:url(#SVGID_00000183214644865544794420000003173953392427123375_);fill:#FFFFFF;" d="M9.8,11.1
				c0,0-0.8,0.7-1.6,1.5s-1.6,1.7-1.6,1.7s0.2,0.2,0.6,0.4C7.5,15,8,15.3,8.5,15.6c0.9,0.6,1.8,1.2,1.8,1.2s-0.2-1.4-0.4-2.8
				C9.9,12.5,9.8,11.1,9.8,11.1"/>
		</g>
		<g>
			<defs>
				<ellipse id="SVGID_00000178173507926849986580000016608074880385209219_" cx="40" cy="40" rx="39.8" ry="40"/>
			</defs>
			<clipPath id="SVGID_00000079470485266890252460000005727094279026574489_">
				<use xlink:href="#SVGID_00000178173507926849986580000016608074880385209219_"  style="overflow:visible;"/>
			</clipPath>
			<path style="clip-path:url(#SVGID_00000079470485266890252460000005727094279026574489_);fill:#FFFFFF;" d="M10.4,5.4
				c0,0-0.9,0.5-1.8,1.2c-0.5,0.3-1,0.6-1.4,0.9C6.9,7.7,6.7,7.9,6.7,7.9s0.8,0.9,1.6,1.7s1.6,1.5,1.6,1.5s0-1.5,0.1-2.9
				S10.4,5.4,10.4,5.4"/>
		</g>
		<g>
			<defs>
				<ellipse id="SVGID_00000129887067957808027510000000299301788855806857_" cx="40" cy="40" rx="39.8" ry="40"/>
			</defs>
			<clipPath id="SVGID_00000000923876914938548920000011602819921502618023_">
				<use xlink:href="#SVGID_00000129887067957808027510000000299301788855806857_"  style="overflow:visible;"/>
			</clipPath>
			<path style="clip-path:url(#SVGID_00000000923876914938548920000011602819921502618023_);fill:#FFFFFF;" d="M12-0.2
				c0,0-1,0.4-2,0.8C9.5,0.8,9,1,8.6,1.2C8.2,1.4,7.9,1.5,7.9,1.5s0.6,1,1.2,1.9c0.3,0.5,0.6,1,0.9,1.3c0.2,0.3,0.4,0.5,0.4,0.5
				s0-0.1,0.1-0.2c0-0.2,0.1-0.4,0.2-0.6c0.1-0.5,0.3-1.2,0.5-1.9s0.5-1.3,0.7-1.8C11.9,0.1,12-0.2,12-0.2"/>
		</g>
		<g>
			<defs>
				<ellipse id="SVGID_00000034069763553559081060000015468397891133627532_" cx="40" cy="40" rx="39.8" ry="40"/>
			</defs>
			<clipPath id="SVGID_00000036930725739162549090000000902138277295423418_">
				<use xlink:href="#SVGID_00000034069763553559081060000015468397891133627532_"  style="overflow:visible;"/>
			</clipPath>
			<path style="clip-path:url(#SVGID_00000036930725739162549090000000902138277295423418_);fill:#FFFFFF;" d="M68.1,5.3
				c0,0,0.2-0.2,0.4-0.5C68.7,4.5,69,4,69.3,3.6c0.6-0.9,1.2-1.9,1.2-1.9s-0.2-0.1-0.6-0.3C69.5,1,69,0.8,68.5,0.6
				c-1-0.4-2-0.8-2-0.8s0.1,0.3,0.3,0.8c0.2,0.5,0.5,1.2,0.7,1.8c0.2,0.7,0.4,1.4,0.5,1.9c-0.1,0.4,0,0.6,0,0.7
				C68.1,5.2,68.1,5.3,68.1,5.3"/>
		</g>
		<g>
			<defs>
				<ellipse id="SVGID_00000013179294764936576270000006134986200665326475_" cx="40" cy="40" rx="39.8" ry="40"/>
			</defs>
			<clipPath id="SVGID_00000090279132652777370970000018130939335721552283_">
				<use xlink:href="#SVGID_00000013179294764936576270000006134986200665326475_"  style="overflow:visible;"/>
			</clipPath>
			<path style="clip-path:url(#SVGID_00000090279132652777370970000018130939335721552283_);fill:#FFFFFF;" d="M68.7,11.1
				c0,0,0.8-0.7,1.6-1.5c0.8-0.8,1.6-1.7,1.6-1.7s-0.2-0.2-0.6-0.4C71,7.2,70.5,6.9,70,6.6c-0.9-0.6-1.8-1.2-1.8-1.2
				s0.2,1.4,0.4,2.8C68.6,9.6,68.7,11.1,68.7,11.1"/>
		</g>
	</g>
</g>
<g id="Page-1">
	<g id="_x30_3b_x5F_single-v2-tab2" transform="translate(-672.000000, -1488.000000)">
		<g id="Group-4" transform="translate(672.000000, 1488.000000)">
			<g id="Group-Copy-4">
				<g id="Oval-Copy">
					<path class="st1" d="M40,80C17.9,80,0,62.1,0,40S17.9,0,40,0s40,17.9,40,40S62.1,80,40,80z M40,5C20.7,5,5,20.7,5,40
						s15.7,35,35,35s35-15.7,35-35S59.3,5,40,5z"/>
				</g>
			</g>
		</g>
	</g>
</g>
</svg>
