<?xml version="1.0" encoding="utf-8"?>
<!-- Generator: Adobe Illustrator 25.2.1, SVG Export Plug-In . SVG Version: 6.00 Build 0)  -->
<svg version="1.1" id="レイヤー_1" xmlns="http://www.w3.org/2000/svg" xmlns:xlink="http://www.w3.org/1999/xlink" x="0px"
	 y="0px" width="280.2px" height="55px" viewBox="0 0 280.2 55" style="enable-background:new 0 0 280.2 55;" xml:space="preserve">
<style type="text/css">
	.st0{fill:#C9233F;stroke:#000000;stroke-width:0.8518;}
	.st1{fill:#9FA0A0;stroke:#000000;stroke-width:0.853;}
	.st2{fill:#C9233F;stroke:#000000;stroke-width:0.853;}
</style>
<g id="Base">
	<g id="レイヤー_3">
	</g>
	<g>
		<path class="st0" d="M113.7,53.4l-10.8,0V18.7h37.7l-6.9,9h-20v3.7h18.8l-6.9,9h-11.9L113.7,53.4z"/>
		<path class="st1" d="M40.6,48.4c-4,3.4-9.1,5.1-15.1,5.1H2V31.7h10.9v12.8h12.6c3,0,5.5-0.8,7.4-2.3c1.9-1.6,2.9-3.6,2.9-6.1
			c0-2.5-1-4.5-2.9-6.1c-2-1.6-4.5-2.4-7.4-2.4H2l6.9-9.1h16.6c6.2,0,11.3,1.6,15.2,4.8c3.9,3.2,5.9,7.3,5.9,12.4
			C46.6,40.8,44.6,45.1,40.6,48.4z"/>
		<path class="st1" d="M95.2,48.4c-4,3.4-9.1,5.1-15.2,5.1H69.5c-6.1,0-11.2-1.7-15.1-5c-4-3.4-6-7.7-6-12.8c0-5.1,2-9.3,5.9-12.4
			c4-3.2,9.1-4.8,15.2-4.8H80c6.2,0,11.3,1.6,15.2,4.8c3.9,3.2,5.9,7.3,5.9,12.4C101.1,40.8,99.1,45.1,95.2,48.4z M69.5,27.6
			c-3,0-5.5,0.8-7.4,2.4c-1.9,1.6-2.9,3.7-2.9,6.2c0,2.5,1,4.5,2.9,6c1.9,1.6,4.4,2.3,7.4,2.3H80c3,0,5.5-0.8,7.4-2.3
			c1.9-1.6,2.9-3.6,2.9-6.1c0-2.5-1-4.5-2.9-6.1c-2-1.6-4.5-2.4-7.4-2.4C80,27.6,69.5,27.6,69.5,27.6z"/>
		<path class="st2" d="M222.4,53.5h-37v-35h41.4l-7,9.1h-23.5v3.7h22.4l-7,9h-15.4v4.2h25.9L222.4,53.5z"/>
		<path class="st2" d="M179.6,53.5h-37v-35H184l-7,9.1h-23.5v3.7h22.4l-7,9h-15.4v4.2h25.9L179.6,53.5z"/>
		<path class="st2" d="M263.9,48.4c-4,3.4-9.1,5.1-15.1,5.1h-23.4V31.7h10.9v12.8h12.6c3,0,5.5-0.8,7.4-2.3c1.9-1.6,2.9-3.6,2.9-6.1
			c0-2.5-1-4.5-2.9-6.1c-2-1.6-4.5-2.4-7.4-2.4h-23.4l6.9-9.1h16.6c6.2,0,11.3,1.6,15.2,4.8c3.9,3.2,5.9,7.3,5.9,12.4
			C269.8,40.8,267.8,45.1,263.9,48.4z"/>
	</g>
</g>
</svg>
