<?xml version="1.0" encoding="UTF-8"?> <svg xmlns="http://www.w3.org/2000/svg" xmlns:xlink="http://www.w3.org/1999/xlink" id="レイヤー_1" data-name="レイヤー 1" width="500" height="330" viewBox="0 0 500 330"><defs><style> .cls-1, .cls-13, .cls-6, .cls-7 { fill: none; } .cls-2 { fill: #231815; } .cls-3 { opacity: 0.5; } .cls-4 { clip-path: url(#clip-path); } .cls-5 { fill: #c9caca; } .cls-13, .cls-6, .cls-7 { stroke: #231815; } .cls-6 { stroke-width: 0.9px; } .cls-7 { stroke-width: 0.54px; stroke-dasharray: 1.8 1.8; } .cls-8 { opacity: 0.4; } .cls-9 { clip-path: url(#clip-path-2); } .cls-10 { fill: #c81432; } .cls-11 { clip-path: url(#clip-path-3); } .cls-12 { fill: #9fa0a0; } .cls-13 { stroke-width: 0.33px; } .cls-14 { clip-path: url(#clip-path-4); } .cls-15 { fill: #e60020; } </style><clipPath id="clip-path"><rect class="cls-1" x="86.81" y="87.95" width="200.08" height="165.61"></rect></clipPath><clipPath id="clip-path-2"><rect class="cls-1" x="245.23" y="87.89" width="202.59" height="165.67"></rect></clipPath><clipPath id="clip-path-3"><rect class="cls-1" x="244.87" y="153.91" width="201.13" height="21.45"></rect></clipPath><clipPath id="clip-path-4"><rect class="cls-1" x="24.81" y="20.36" width="38.27" height="38.27"></rect></clipPath></defs><path class="cls-2" d="M317.75,310.46h.94a11.25,11.25,0,0,0,2.26-6.64,12.08,12.08,0,0,0-2.26-6.74h-.94a12.11,12.11,0,0,1,1.9,6.74,11.75,11.75,0,0,1-1.9,6.64m-.11-10.3h-1.29l-2,6.21h0l-2.08-6.21h-1.37l2.76,7.45h1.31Zm-12.95,3a2.14,2.14,0,0,1,4.28,0Zm4.25,2.08A1.77,1.77,0,0,1,307,306.7a2.2,2.2,0,0,1-2.33-2.45h5.58c.07-1.8-.73-4.26-3.37-4.26a3.58,3.58,0,0,0-3.5,3.87c.07,2.26,1.19,3.92,3.57,3.92a3,3,0,0,0,3.18-2.53Zm-10.12,2.36H300v-3.32c0-1.9.72-3,2.69-3V300a2.69,2.69,0,0,0-2.73,1.74h0v-1.57h-1.15Zm-5.84.24h1l4.26-10.77h-1.05Zm-11.52-.24h1.22V303a2,2,0,0,1,2-1.9c1.09,0,1.4.69,1.4,1.65v4.89h1.22V303a1.8,1.8,0,0,1,1.94-1.9c1.2,0,1.44.73,1.44,1.65v4.89h1.23v-5.46c0-1.54-1-2.16-2.48-2.16a2.71,2.71,0,0,0-2.33,1.26,2,2,0,0,0-2-1.26,2.7,2.7,0,0,0-2.4,1.26h0v-1.09h-1.15Zm-12.48,0h1.22V303a2,2,0,0,1,2-1.9c1.09,0,1.4.69,1.4,1.65v4.89h1.22V303a1.8,1.8,0,0,1,1.95-1.9c1.19,0,1.44.73,1.44,1.65v4.89h1.22v-5.46c0-1.54-1-2.16-2.48-2.16a2.71,2.71,0,0,0-2.33,1.26,1.94,1.94,0,0,0-2.05-1.26,2.7,2.7,0,0,0-2.4,1.26h0v-1.09H269Zm-3.87-3.89a12,12,0,0,0,2.26,6.74h.93a12.14,12.14,0,0,1-1.9-6.74,11.81,11.81,0,0,1,1.9-6.64h-.93a11.18,11.18,0,0,0-2.26,6.64"></path><path class="cls-2" d="M256.5,307.61h1.22l1.37-6.37h1.44l.2-1.08H259.3c.26-.9.25-1.87,1.44-1.87a3.25,3.25,0,0,1,.58.07l.2-1a3.52,3.52,0,0,0-1-.12c-1.95,0-2,1.45-2.41,3h-1.26l-.22,1.08h1.27Z"></path><path class="cls-2" d="M249.35,307.61H251V306h-1.6Zm0-5.85H251v-1.6h-1.6ZM241.51,304c0-1.46.56-2.88,2.23-2.88s2.35,1.37,2.35,2.82-.62,2.81-2.28,2.81S241.51,305.35,241.51,304Zm5.76-6.62h-1.22v3.82h0a2.88,2.88,0,0,0-2.41-1.16c-2.27,0-3.4,1.77-3.4,3.87s1.14,3.92,3.43,3.92A2.5,2.5,0,0,0,246,306.6h0v1h1.22Zm-13.81,5.84a2.11,2.11,0,0,1,2.13-2.1,2.14,2.14,0,0,1,2.15,2.1Zm4.25,2.08a1.77,1.77,0,0,1-1.93,1.45,2.19,2.19,0,0,1-2.32-2.45H239c.07-1.8-.73-4.26-3.37-4.26a3.58,3.58,0,0,0-3.5,3.87c.08,2.26,1.2,3.92,3.58,3.92a3,3,0,0,0,3.18-2.54Zm-12.3-2.08a2.11,2.11,0,0,1,2.13-2.1,2.14,2.14,0,0,1,2.15,2.1Zm4.25,2.08a1.77,1.77,0,0,1-1.93,1.45,2.19,2.19,0,0,1-2.32-2.45H231c.08-1.8-.73-4.26-3.37-4.26a3.57,3.57,0,0,0-3.49,3.87c.07,2.26,1.19,3.92,3.57,3.92a3,3,0,0,0,3.18-2.54Zm-13.18,2.36h1.37V302.9h4.72v-1.15h-4.72v-3.27h5.38v-1.15h-6.75Z"></path><path class="cls-2" d="M38.18,97.56v-.93a11.2,11.2,0,0,0-6.64-2.26,12,12,0,0,0-6.74,2.26v.93a12.11,12.11,0,0,1,6.74-1.9,11.83,11.83,0,0,1,6.64,1.9m-2.85,6.82v-1.23H31.12a2.09,2.09,0,0,1-2.33-2.2,1.39,1.39,0,0,1,1.5-1.51h5V98.21h-4.9c-1.6,0-2.72.61-2.72,2.57a2.55,2.55,0,0,0,1.35,2.41v0H27.88v1.16Zm0,2H27.88v1.22h7.45Zm-10.28,1.22h1.49v-1.22H25.05Zm10.28,12.52v-1.23H30.69a2,2,0,0,1-1.9-2c0-1.1.69-1.4,1.65-1.4h4.89v-1.22H30.69a1.8,1.8,0,0,1-1.9-2c0-1.19.73-1.44,1.65-1.44h4.89v-1.22H29.87c-1.54,0-2.16,1-2.16,2.47A2.71,2.71,0,0,0,29,114.53a1.94,1.94,0,0,0-1.27,2A2.71,2.71,0,0,0,29,119v0h-1.1v1.15Zm.24,5.86v-1L24.8,120.71v1.05Zm-.24,11.52v-1.22H30.69a2,2,0,0,1-1.9-2c0-1.1.69-1.4,1.65-1.4h4.89v-1.22H30.69a1.8,1.8,0,0,1-1.9-2c0-1.19.73-1.44,1.65-1.44h4.89V127.1H29.87c-1.54,0-2.16,1-2.16,2.48A2.69,2.69,0,0,0,29,131.91a1.94,1.94,0,0,0-1.27,2A2.7,2.7,0,0,0,29,136.36v0h-1.1v1.15Zm-3.89,3.87a12.08,12.08,0,0,0,6.74-2.26v-.93a12.22,12.22,0,0,1-6.74,1.9,11.83,11.83,0,0,1-6.64-1.9v.93a11.25,11.25,0,0,0,6.64,2.26m-1.17,5.17c-1.77.19-2.56,1.51-2.56,3.21,0,2.36,1.75,3.52,4,3.52s3.8-1.21,3.8-3.49a3.08,3.08,0,0,0-2.89-3.28v1.25a1.91,1.91,0,0,1,1.81,2.05c0,1.55-1.34,2.17-2.72,2.17s-2.91-.55-2.91-2.32a1.73,1.73,0,0,1,1.48-1.84Zm-5.22,5.77v1.46L34,158.69v0l-8.94,1.05v1.39l10.28-1.46v-1.55Zm10.28,15.17h-1.6v1.59h1.6Zm-5.85,0h-1.6v1.59h1.6Z"></path><path class="cls-2" d="M31.67,177c-1.46,0-2.88-.56-2.88-2.24s1.37-2.34,2.82-2.34,2.81.62,2.81,2.27S33.07,177,31.67,177ZM25,171.2v1.22h3.83v0a2.87,2.87,0,0,0-1.16,2.4c0,2.28,1.77,3.4,3.87,3.4s3.92-1.13,3.92-3.42a2.49,2.49,0,0,0-1.18-2.38v0h1V171.2ZM30.89,185a2.14,2.14,0,0,1,0-4.28ZM33,180.76a1.77,1.77,0,0,1,1.46,1.93A2.2,2.2,0,0,1,32,185v-5.58c-1.8-.07-4.26.74-4.26,3.37a3.58,3.58,0,0,0,3.87,3.5c2.26-.07,3.92-1.19,3.92-3.57A3,3,0,0,0,33,179.55Zm-2.07,12.3a2.14,2.14,0,0,1,0-4.28ZM33,188.81a1.77,1.77,0,0,1,1.46,1.93A2.2,2.2,0,0,1,32,193.06v-5.58c-1.8-.07-4.26.74-4.26,3.37a3.58,3.58,0,0,0,3.87,3.5c2.26-.07,3.92-1.19,3.92-3.57A3,3,0,0,0,33,187.6Zm-1.42,8.11c1.45,0,2.88.56,2.88,2.23s-1.37,2.35-2.82,2.35-2.81-.62-2.81-2.28,1.35-2.3,2.75-2.3m6.64,5.76v-1.22H34.33v0A2.87,2.87,0,0,0,35.5,199c0-2.27-1.76-3.39-3.87-3.39s-3.92,1.13-3.92,3.42a2.5,2.5,0,0,0,1.18,2.38v0h-1v1.22ZM33,210.6c1.84-.08,2.52-1.48,2.52-3.16,0-1.51-.56-3.16-2.35-3.16-1.42,0-1.84,1.2-2.11,2.43s-.44,2.43-1.3,2.43-.95-.85-.95-1.58.3-1.66,1.25-1.73v-1.22c-1.81.11-2.33,1.38-2.33,3,0,1.31.62,2.78,2.11,2.78,2.87,0,1.58-4.87,3.49-4.87.94,0,1.11,1,1.11,1.8,0,1-.35,2-1.44,2Zm1.35,8.79c0,1.62-1.49,2.11-2.83,2.11s-2.71-.63-2.71-2.21,1.35-2.11,2.66-2.11,2.88.6,2.88,2.21M27.88,216v1.15H29a2.45,2.45,0,0,0-1.24,2.22c0,2.6,2.17,3.44,3.93,3.44,2,0,3.77-1.1,3.77-3.32a2.48,2.48,0,0,0-1.35-2.32v0h.49c1.67,0,2.82.63,2.82,2.23,0,.8-.33,1.89-1.21,1.93v1.23c1.61-.08,2.19-1.69,2.19-3.09,0-2.36-1.22-3.45-3.66-3.45Zm7.44,14.63v-1.23h-4.2a2.09,2.09,0,0,1-2.33-2.2,1.39,1.39,0,0,1,1.49-1.51h5v-1.23H30.43c-1.6,0-2.72.61-2.72,2.57a2.58,2.58,0,0,0,1.35,2.42v0H27.88v1.15Zm0,2H27.88v1.23h7.44ZM25,233.87h1.5v-1.23H25Zm.61,3v1.22h2.23v1.27H29v-1.27H33.7c1.37,0,1.62-.5,1.62-1.77v-.93H34.25V236c0,.76-.09.92-.67.92H29v-1.48H27.88v1.48Zm0,5v1.22h2.23v1.27H29v-1.27H33.7c1.37,0,1.62-.5,1.62-1.77v-.93H34.25v.56c0,.76-.09.92-.67.92H29v-1.48H27.88v1.48Zm2.23,3.77v1.22h4.21a2.09,2.09,0,0,1,2.33,2.21,1.4,1.4,0,0,1-1.5,1.51h-5v1.22h4.9c1.6,0,2.72-.6,2.72-2.56a2.58,2.58,0,0,0-1.35-2.42v0h1.17v-1.15Zm2.33,17c3,0,5.36-1.57,5.36-4.75a4.17,4.17,0,0,0-4.12-4.45v1.37a2.91,2.91,0,0,1,3,3c0,2.47-2,3.5-4.31,3.5-2.14,0-4.16-1-4.16-3.48a2.7,2.7,0,0,1,2.19-2.88v-1.37c-2.19.3-3.34,2.09-3.34,4.23,0,3.17,2.42,4.87,5.41,4.87"></path><path class="cls-2" d="M220.35,180.58h1.85V169h-1.85Zm-4,0h1.85V169h-1.85Zm-4,0h1.84v-8.37h-1.84Zm0-9.81h1.84V169h-1.84Zm-6.09,9.81h1.85v-4c0-1.86,1-2.87,2.27-2.87a4.23,4.23,0,0,1,.79.08V172a5.33,5.33,0,0,0-.7-.05,2.73,2.73,0,0,0-2.44,1.85h0v-1.62h-1.73Zm-8.62-4.09c0-1.49.62-3.05,2.35-3.05,1.43,0,2.32,1.09,2.32,2.95,0,1.46-.71,3-2.35,3S197.6,177.93,197.6,176.49Zm6.45-7.47h-1.84v4.27h0a3.27,3.27,0,0,0-2.79-1.31c-1.83,0-3.63,1.31-3.63,4.36,0,2.51,1.28,4.47,3.92,4.47a2.77,2.77,0,0,0,2.59-1.36h0v1.13h1.75Zm-20,6.64a2.16,2.16,0,1,1,4.31,0Zm6.16,1.21a4.05,4.05,0,1,0-8-.47c0,2.6,1.46,4.41,4.09,4.41a3.66,3.66,0,0,0,3.79-2.85h-1.74a1.94,1.94,0,0,1-2,1.39,2.23,2.23,0,0,1-2.25-2.48Zm-13.69,3.71h2.07l3-8.37h-1.91l-2,6.43h0l-2.13-6.43h-2Zm-6.24,0h1.85v-8.37h-1.85Zm0-9.81h1.85V169h-1.85Zm-6.45,2.82h1.39v4.94c.05,1.39.38,2.14,2.32,2.14a9.87,9.87,0,0,0,1.2-.1v-1.43a3,3,0,0,1-.78.07c-.83,0-.89-.39-.89-1.15v-4.47h1.67v-1.38h-1.67V169.7h-1.85v2.51h-1.39Zm-1,1.42c-.18-2.06-1.83-3-3.77-3-2.75,0-4.13,2-4.13,4.51s1.44,4.32,4.06,4.32a3.59,3.59,0,0,0,3.84-3.37h-1.84a2,2,0,0,1-2,1.91c-1.6,0-2.22-1.47-2.22-2.86,0-2.53,1.35-3.05,2.3-3.05a1.75,1.75,0,0,1,1.92,1.57Zm-15.35.65a2.16,2.16,0,1,1,4.31,0Zm6.15,1.21a4.05,4.05,0,1,0-8-.47c0,2.6,1.46,4.41,4.1,4.41a3.67,3.67,0,0,0,3.79-2.85h-1.75a1.92,1.92,0,0,1-2,1.39,2.22,2.22,0,0,1-2.25-2.48Zm-18.25-3.28h1.37v7h1.85v-7h2.8v7h1.85v-7h1.57v-1.38h-1.57v-.86c0-.7.4-.87.9-.87a3.33,3.33,0,0,1,.86.09v-1.44a5,5,0,0,0-1.29-.11c-1.2,0-2.32.36-2.32,2.49v.7h-2.8v-.86a.76.76,0,0,1,.87-.87,3.59,3.59,0,0,1,.81.09v-1.44a5.29,5.29,0,0,0-1.25-.11c-1.16,0-2.28.36-2.28,2.49v.7h-1.37Zm-6.92,2.07a2.16,2.16,0,1,1,4.31,0Zm6.15,1.21a4.05,4.05,0,1,0-8-.47c0,2.6,1.46,4.41,4.1,4.41a3.67,3.67,0,0,0,3.79-2.85h-1.75a1.93,1.93,0,0,1-2,1.39,2.22,2.22,0,0,1-2.25-2.48Zm-14.49.18h4.71V175.3h-4.71Zm-9,3.53h7.74v-1.65H113.4c.61-2,5.54-2.8,5.54-6.43a3.37,3.37,0,0,0-3.65-3.48c-2.53,0-3.9,1.86-3.9,4.37h1.84c0-1.6.49-2.83,2-2.83a1.8,1.8,0,0,1,1.91,2c0,1.76-1.94,2.64-3.42,3.72a5,5,0,0,0-2.49,4.29"></path><path class="cls-2" d="M214,162.58h1.85V151H214Zm-4.17-2.81c0,1.16-1.21,1.58-2.18,1.58-.8,0-1.59-.3-1.59-1.15s.76-1.21,1.6-1.32l.75-.1a3.07,3.07,0,0,0,1.42-.39Zm1.85-3.36c0-1.76-1.72-2.43-3.35-2.43-1.87,0-3.68.64-3.81,2.79h1.84c.08-.91.82-1.33,1.85-1.33.73,0,1.74.16,1.74,1.13,0,.73-.44.91-1.58,1.06l-1,.13c-1.54.19-3.14.55-3.14,2.61,0,1.63,1.33,2.44,2.87,2.44a4.31,4.31,0,0,0,2.9-1c.14.76.66,1,1.42,1a4.56,4.56,0,0,0,1.17-.21v-1.28a2.42,2.42,0,0,1-.46,0c-.34,0-.43-.17-.43-.63Zm-16.5,6.17H197v-4.94a2,2,0,0,1,2-2.2c1.11,0,1.59.57,1.64,1.88v5.26h1.85v-5.75a2.64,2.64,0,0,0-3-2.85,3,3,0,0,0-2.61,1.49l0,0v-1.23h-1.75Zm-6-1.23c-1.66,0-2.39-1.5-2.39-3s.73-2.95,2.39-2.95,2.38,1.51,2.38,2.95-.73,3-2.38,3m0,1.46c2.67,0,4.22-1.84,4.22-4.42S191.9,154,189.23,154a4.06,4.06,0,0,0-4.23,4.41c0,2.58,1.55,4.42,4.23,4.42m-7.84-.23h1.84v-8.37h-1.84Zm0-9.81h1.84V151h-1.84Zm-6.46,2.82h1.4v4.94c0,1.39.37,2.13,2.31,2.13a9.69,9.69,0,0,0,1.2-.09v-1.43a3,3,0,0,1-.78.07c-.82,0-.89-.39-.89-1.15v-4.47h1.67v-1.38h-1.67V151.7h-1.84v2.51h-1.4Zm-8.61,7h1.84v-4.94a2,2,0,0,1,2-2.2c1.1,0,1.59.57,1.64,1.88v5.26h1.84v-5.75a2.63,2.63,0,0,0-3-2.85,3,3,0,0,0-2.61,1.49l0,0v-1.23h-1.75Zm-7.79-4.92a2.16,2.16,0,1,1,4.31,0Zm6.16,1.21a4.05,4.05,0,1,0-8-.46c0,2.59,1.45,4.4,4.09,4.4a3.67,3.67,0,0,0,3.8-2.85h-1.75a1.94,1.94,0,0,1-2.05,1.39,2.23,2.23,0,0,1-2.25-2.48ZM151,162.58h2.07l3-8.37h-1.91l-2,6.43h0L150,154.21h-2Zm-11.45,0h1.84v-4.94a2,2,0,0,1,2-2.2c1.1,0,1.59.57,1.64,1.88v5.26h1.84v-5.75a2.63,2.63,0,0,0-3-2.85,3,3,0,0,0-2.61,1.49l0,0v-1.23h-1.75Zm-6-1.23c-1.66,0-2.39-1.5-2.39-3s.73-2.95,2.39-2.95S136,157,136,158.39s-.73,3-2.38,3m0,1.46c2.67,0,4.22-1.84,4.22-4.42S136.27,154,133.6,154a4.06,4.06,0,0,0-4.23,4.41c0,2.58,1.55,4.42,4.23,4.42m-16.09-6c0,3.32,2.09,6.06,5.54,6.06a4.75,4.75,0,0,0,4.93-4.68h-2c-.18,1.68-1.13,3-3,3-2.48,0-3.51-2.19-3.51-4.41s1-4.41,3.51-4.41a2.75,2.75,0,0,1,2.88,2.31h2c-.26-2.5-2.28-4-4.91-4-3.45,0-5.54,2.77-5.54,6.06"></path><path class="cls-2" d="M448.72,72c.06,1.5,1.2,2,2.56,2s2.57-.46,2.57-1.91c0-1.16-1-1.5-2-1.72s-2-.35-2-1.05.69-.78,1.28-.78,1.35.25,1.41,1h1c-.09-1.47-1.12-1.89-2.48-1.89-1.06,0-2.25.5-2.25,1.72,0,2.33,3.95,1.27,3.95,2.83,0,.76-.84.9-1.46.9-.81,0-1.6-.28-1.63-1.17Zm-2.39,1.91h1V65.56h-1Zm-2.76,0h1V65.56h-1Zm-2.76,0h1v-6h-1Zm1-8.36h-1v1.22h1Zm-5.26,8.36h1V71.23c0-1.55.59-2.45,2.19-2.45v-1a2.17,2.17,0,0,0-2.22,1.41h0V67.87h-.93Zm-6.41-3c0-1.18.46-2.34,1.82-2.34s1.91,1.12,1.91,2.3-.51,2.28-1.85,2.28S430.13,72.08,430.13,70.94Zm4.68-5.38h-1v3.11h0a2.34,2.34,0,0,0-2-.94c-1.85,0-2.76,1.44-2.76,3.14s.93,3.19,2.79,3.19a2,2,0,0,0,1.93-1h0v.82h1Zm-18.63,8.36h1V70.15a1.64,1.64,0,0,1,1.62-1.55c.88,0,1.13.57,1.13,1.35v4h1V70.15a1.46,1.46,0,0,1,1.58-1.55c1,0,1.17.6,1.17,1.35v4h1V69.48c0-1.25-.81-1.75-2-1.75a2.19,2.19,0,0,0-1.9,1,1.58,1.58,0,0,0-1.66-1,2.17,2.17,0,0,0-1.95,1h0v-.89h-.93Zm-10.22,0h1V70.15a1.64,1.64,0,0,1,1.62-1.55c.89,0,1.14.57,1.14,1.35v4h1V70.15a1.46,1.46,0,0,1,1.58-1.55c1,0,1.17.6,1.17,1.35v4h1V69.48c0-1.25-.8-1.75-2-1.75a2.17,2.17,0,0,0-1.89,1,1.59,1.59,0,0,0-1.67-1,2.19,2.19,0,0,0-1.95,1h0v-.89H406Zm-10.22,0h5.41V73h-4.26c.19-1,1.3-1.57,2.33-2.19s2-1.38,2-2.84a2.35,2.35,0,0,0-2.59-2.39A2.57,2.57,0,0,0,396,68.56h1c0-1,.46-2.06,1.62-2.06a1.5,1.5,0,0,1,1.6,1.5c0,1.16-.71,1.65-2.12,2.52a3.92,3.92,0,0,0-2.32,3.4m-3.19,0h1v-8.3h-.76c-.22,1.27-1.25,1.56-2.38,1.56V68h2.15Zm-5-4.41a2.83,2.83,0,0,1,.33,1.39c0,1.46-.84,2.28-1.88,2.28a1.71,1.71,0,0,1-1.28-.53Zm-3.09,2.8a2.78,2.78,0,0,1-.35-1.41c0-1.46.85-2.3,1.89-2.3a1.69,1.69,0,0,1,1.3.56ZM389,68l-.32-.3-.68.76a2.74,2.74,0,0,0-2-.69,2.87,2.87,0,0,0-2.94,3.17,3.43,3.43,0,0,0,.7,2.18l-.72.81.33.28.7-.78a3,3,0,0,0,4.86-2.49,3.39,3.39,0,0,0-.67-2.17Zm-13.11,5.15c-1.31,0-1.71-1.22-1.71-2.31s.52-2.2,1.8-2.2,1.72,1.1,1.72,2.17-.5,2.34-1.81,2.34m2.79-5.24h-.94v.86h0a2,2,0,0,0-1.8-1c-2.11,0-2.8,1.76-2.8,3.19,0,1.65.9,3.07,2.71,3.07a2,2,0,0,0,1.88-1.1h0v.4c0,1.35-.51,2.29-1.81,2.29-.64,0-1.53-.27-1.57-1h-1c.06,1.31,1.37,1.77,2.5,1.77,1.92,0,2.81-1,2.81-3Zm-12,6h1V70.5a1.71,1.71,0,0,1,1.79-1.9,1.14,1.14,0,0,1,1.23,1.22v4.1h1v-4c0-1.3-.49-2.21-2.08-2.21a2.1,2.1,0,0,0-2,1.1h0v-1h-.93Zm-2.74,0h1v-6h-1Zm1-8.36h-1v1.22h1ZM357.42,72c.06,1.5,1.2,2,2.56,2s2.57-.46,2.57-1.91c0-1.16-1-1.5-2-1.72s-2-.35-2-1.05.69-.78,1.29-.78,1.34.25,1.4,1h1c-.1-1.47-1.13-1.89-2.48-1.89-1.07,0-2.26.5-2.26,1.72,0,2.33,3.95,1.27,3.95,2.83,0,.76-.84.9-1.46.9-.81,0-1.59-.28-1.63-1.17ZM356,67.87h-1v3.41a1.71,1.71,0,0,1-1.8,1.9A1.13,1.13,0,0,1,352,72V67.87h-1v4c0,1.3.49,2.21,2.08,2.21a2.09,2.09,0,0,0,2-1.1h0v1H356Zm-14.76,6h1V70.5a1.7,1.7,0,0,1,1.79-1.9,1.14,1.14,0,0,1,1.23,1.22v4.1h1v-4c0-1.3-.49-2.21-2.08-2.21a2.09,2.09,0,0,0-2,1.1h0v-1h-.93Zm-5.86-3.61a1.73,1.73,0,0,1,1.74-1.71,1.75,1.75,0,0,1,1.74,1.71ZM338.88,72a1.45,1.45,0,0,1-1.57,1.18,1.79,1.79,0,0,1-1.89-2H340c.06-1.46-.59-3.46-2.74-3.46a2.9,2.9,0,0,0-2.84,3.14c.06,1.84,1,3.19,2.9,3.19A2.43,2.43,0,0,0,339.86,72ZM328,73.92h1V70.5a1.71,1.71,0,0,1,1.79-1.9A1.13,1.13,0,0,1,332,69.82v4.1h1v-4c0-1.3-.49-2.21-2.08-2.21a2,2,0,0,0-1.91,1h0v-3.2h-1Zm-1.18-6h-1l-1.35,4.95h0l-1.26-4.95H322l-1.21,4.95h0l-1.37-4.95h-1.1l1.94,6h1.08l1.22-4.81h0l1.23,4.81h1.05ZM309.39,72c.05,1.5,1.2,2,2.56,2s2.57-.46,2.57-1.91c0-1.16-1-1.5-2-1.72s-2-.35-2-1.05.69-.78,1.28-.78,1.35.25,1.41,1h1c-.09-1.47-1.12-1.89-2.48-1.89-1.06,0-2.26.5-2.26,1.72,0,2.33,4,1.27,4,2.83,0,.76-.84.9-1.46.9-.81,0-1.6-.28-1.63-1.17ZM303,73.92h1V70.5a1.71,1.71,0,0,1,1.79-1.9A1.14,1.14,0,0,1,307,69.82v4.1h1v-4c0-1.3-.49-2.21-2.08-2.21a2.1,2.1,0,0,0-2,1.1h0v-1H303Zm-6.23-3c0-1.46.84-2.3,1.88-2.3s1.88.84,1.88,2.3-.84,2.28-1.88,2.28-1.88-.82-1.88-2.28m-1.06,0a2.95,2.95,0,1,0,2.94-3.17,2.87,2.87,0,0,0-2.94,3.17M289.56,72c.06,1.5,1.21,2,2.56,2s2.58-.46,2.58-1.91c0-1.16-1-1.5-2-1.72s-2-.35-2-1.05.7-.78,1.29-.78,1.35.25,1.41,1h1c-.09-1.47-1.12-1.89-2.48-1.89-1.07,0-2.26.5-2.26,1.72,0,2.33,4,1.27,4,2.83,0,.76-.84.9-1.47.9-.8,0-1.59-.28-1.62-1.17Zm-2.38,1.91h1v-6h-1Zm1-8.36h-1v1.22h1Zm-5.27,8.36h1V71.23c0-1.55.58-2.45,2.18-2.45v-1a2.18,2.18,0,0,0-2.22,1.41h0V67.87h-.94Zm-2.79-2.11c0,.56-.54,1.37-1.85,1.37-.61,0-1.17-.23-1.17-.89,0-1.49,2.25-.92,3-1.5Zm1.61,1.31a.84.84,0,0,1-.3.06c-.32,0-.32-.21-.32-.68V69.39c0-1.42-1.18-1.66-2.27-1.66-1.35,0-2.5.53-2.56,2h1c.05-.89.67-1.15,1.52-1.15.62,0,1.34.13,1.34,1s-.95.67-2,.89-2.05.49-2.05,1.86c0,1.22.9,1.7,2,1.7a2.64,2.64,0,0,0,2.13-.94c0,.66.33.94.84.94a1.33,1.33,0,0,0,.71-.17Zm-7.8-2.28c0,1.18-.45,2.34-1.81,2.34s-1.91-1.11-1.91-2.29.51-2.29,1.85-2.29,1.87,1.1,1.87,2.24m-4.68,5.39h1V73.11h0a2.35,2.35,0,0,0,2,1c1.84,0,2.76-1.43,2.76-3.15s-.93-3.18-2.79-3.18a2,2,0,0,0-1.93,1h0v-.82h-1ZM259,73.92h1V70.15a1.64,1.64,0,0,1,1.62-1.55c.89,0,1.14.57,1.14,1.35v4h1V70.15a1.46,1.46,0,0,1,1.58-1.55c1,0,1.17.6,1.17,1.35v4h1V69.48c0-1.25-.8-1.75-2-1.75a2.2,2.2,0,0,0-1.9,1,1.57,1.57,0,0,0-1.66-1,2.19,2.19,0,0,0-1.95,1h0v-.89H259Zm-6.23-3c0-1.46.84-2.3,1.88-2.3s1.89.84,1.89,2.3-.85,2.28-1.89,2.28-1.88-.82-1.88-2.28m-1,0a2.94,2.94,0,1,0,2.93-3.17,2.86,2.86,0,0,0-2.93,3.17m-8.63-1.14c0,2.44,1.28,4.36,3.86,4.36a3.4,3.4,0,0,0,3.62-3.35h-1.11a2.37,2.37,0,0,1-2.41,2.41c-2,0-2.85-1.59-2.85-3.5,0-1.74.85-3.38,2.83-3.38a2.2,2.2,0,0,1,2.34,1.78h1.12a3.2,3.2,0,0,0-3.44-2.72c-2.58,0-4,2-4,4.4m-6,4.16h1.3v-1.3h-1.3Zm0-4.75h1.3v-1.3h-1.3Zm-5.78,1.14A1.72,1.72,0,0,1,233,68.6a1.74,1.74,0,0,1,1.74,1.71ZM234.75,72a1.44,1.44,0,0,1-1.57,1.18,1.78,1.78,0,0,1-1.88-2h4.53c0-1.46-.6-3.46-2.74-3.46a2.9,2.9,0,0,0-2.84,3.14c.05,1.84,1,3.19,2.9,3.19A2.42,2.42,0,0,0,235.73,72Zm-6.53-5.94h-1v1.81h-1v.87h1v3.85c0,1.12.4,1.33,1.43,1.33h.76V73H229c-.62,0-.75-.07-.75-.54V68.74h1.2v-.87h-1.2Zm-7.54,4.84c0-1.46.84-2.3,1.89-2.3s1.88.84,1.88,2.3-.84,2.28-1.88,2.28-1.89-.82-1.89-2.28m-1.05,0a2.94,2.94,0,1,0,2.94-3.17,2.87,2.87,0,0,0-2.94,3.17m-8.21,3h1.06V67.21h0l4.36,6.71h1.22V65.56H217v6.78h0l-4.4-6.78h-1.18Z"></path><path class="cls-2" d="M252.91,40.39c.05,2.38,1.36,4,4,4,2.16,0,4-1.33,4-3.47A2.64,2.64,0,0,0,258.85,38v0a2.37,2.37,0,0,0,1.6-2.44c0-2-1.81-3-3.57-3a3.69,3.69,0,0,0-3.76,3.85H255a2,2,0,0,1,1.88-2.32,1.61,1.61,0,0,1,1.77,1.61c0,1.39-1.28,1.83-2.51,1.78v1.38c1.46-.05,3,.16,3,1.93a2,2,0,0,1-2.17,2,2.09,2.09,0,0,1-2.14-2.41Zm-6.43.19h4.71V38.83h-4.71Zm-5.91,2.22c-1.62,0-2.07-2-2.07-4.36s.45-4.36,2.07-4.36,2.08,2,2.08,4.36-.46,4.36-2.08,4.36m0,1.54c3.26,0,3.92-3.32,3.92-5.9s-.66-5.89-3.92-5.89-3.92,3.32-3.92,5.89.67,5.9,3.92,5.9m-9.44-1.54c-1.62,0-2.08-2-2.08-4.36s.46-4.36,2.08-4.36,2.07,2,2.07,4.36-.45,4.36-2.07,4.36m0,1.54c3.25,0,3.92-3.32,3.92-5.9s-.67-5.89-3.92-5.89-3.92,3.32-3.92,5.89.66,5.9,3.92,5.9m-11.29-3.9a2.08,2.08,0,0,1,2-2.32,2.06,2.06,0,0,1,2,2.32,2.1,2.1,0,0,1-2,2.36A2.13,2.13,0,0,1,219.84,40.44Zm2.11,3.9a3.67,3.67,0,0,0,3.77-3.87,3.5,3.5,0,0,0-3.57-3.81A2.69,2.69,0,0,0,219.7,38l0,0c.13-1.49.32-3.89,2.35-3.89a1.58,1.58,0,0,1,1.65,1.56h1.84a3.28,3.28,0,0,0-3.41-3.09c-3.19,0-4.28,3.15-4.28,5.86C217.82,41.72,218.63,44.34,222,44.34Zm-15.24,0h1.76l4.65-12.12h-1.76Zm-8.65-1.59c-1.62,0-2.08-2-2.08-4.36s.46-4.36,2.08-4.36,2.07,2,2.07,4.36-.45,4.36-2.07,4.36m0,1.54c3.25,0,3.92-3.32,3.92-5.9s-.67-5.89-3.92-5.89-3.92,3.32-3.92,5.89.66,5.9,3.92,5.9m-11.29-3.9a2,2,0,1,1,4,0,2.1,2.1,0,0,1-2,2.36A2.12,2.12,0,0,1,186.77,40.44Zm2.11,3.9a3.67,3.67,0,0,0,3.77-3.87,3.5,3.5,0,0,0-3.58-3.81A2.68,2.68,0,0,0,186.63,38l0,0c.13-1.49.33-3.89,2.35-3.89a1.59,1.59,0,0,1,1.66,1.56h1.84A3.28,3.28,0,0,0,189,32.55c-3.19,0-4.27,3.15-4.27,5.86,0,3.31.81,5.93,4.13,5.93m-16.58-6c0,3.32,2.08,6.06,5.53,6.06a4.19,4.19,0,0,0,3.49-1.64l.3,1.36h1.3V38H178v1.54h3.08a2.94,2.94,0,0,1-3.25,3.18c-2.47,0-3.51-2.19-3.51-4.41s1-4.41,3.51-4.41a2.78,2.78,0,0,1,3,2.3h2c-.31-2.61-2.44-3.95-5-3.95-3.45,0-5.53,2.77-5.53,6.06m-12.44,0c0,3.32,2.09,6.06,5.54,6.06a4.16,4.16,0,0,0,3.48-1.64l.31,1.36h1.3V38h-4.93v1.54h3.08a2.94,2.94,0,0,1-3.24,3.18c-2.48,0-3.52-2.19-3.52-4.41s1-4.41,3.52-4.41a2.77,2.77,0,0,1,3,2.3h2c-.31-2.61-2.45-3.95-5-3.95-3.45,0-5.54,2.77-5.54,6.06m-12.43,0c0,3.32,2.09,6.06,5.54,6.06a4.16,4.16,0,0,0,3.48-1.64l.31,1.36h1.29V38h-4.92v1.54h3.08A2.94,2.94,0,0,1,153,42.74c-2.48,0-3.52-2.19-3.52-4.41s1-4.41,3.52-4.41a2.78,2.78,0,0,1,3,2.3h2c-.3-2.61-2.44-3.95-4.95-3.95-3.45,0-5.54,2.77-5.54,6.06m-11.26,6.06h1.76l4.65-12.12h-1.76Zm-8.65-1.59c-1.62,0-2.08-2-2.08-4.36s.46-4.36,2.08-4.36,2.07,2,2.07,4.36-.45,4.36-2.07,4.36m0,1.54c3.25,0,3.92-3.32,3.92-5.9s-.67-5.89-3.92-5.89-3.92,3.32-3.92,5.89.66,5.9,3.92,5.9m-9.45-1.54c-1.62,0-2.07-2-2.07-4.36s.45-4.36,2.07-4.36,2.08,2,2.08,4.36-.45,4.36-2.08,4.36m0,1.54c3.26,0,3.92-3.32,3.92-5.9s-.66-5.89-3.92-5.89-3.91,3.32-3.91,5.89.66,5.9,3.91,5.9m-11.28-3.9a2,2,0,1,1,4,0,2.1,2.1,0,0,1-2,2.36A2.12,2.12,0,0,1,106.79,40.44Zm2.11,3.9a3.67,3.67,0,0,0,3.77-3.87,3.51,3.51,0,0,0-3.58-3.81A2.71,2.71,0,0,0,106.64,38l0,0c.13-1.49.33-3.89,2.35-3.89a1.58,1.58,0,0,1,1.65,1.56h1.85A3.28,3.28,0,0,0,109,32.55c-3.19,0-4.27,3.15-4.27,5.86C104.77,41.72,105.58,44.34,108.9,44.34ZM95.41,42.46V34.2h2c3.18,0,3.86,1.8,3.86,4.13s-.68,4.13-3.86,4.13Zm-2,1.65h4.79c3.57,0,5.11-2.59,5.11-5.78s-1.54-5.78-5.11-5.78H93.39ZM80.9,38.33c0,3.32,2.08,6.06,5.53,6.06a4.75,4.75,0,0,0,4.93-4.68h-2c-.18,1.68-1.13,3-2.95,3-2.47,0-3.51-2.19-3.51-4.41s1-4.41,3.51-4.41a2.76,2.76,0,0,1,2.89,2.3h2c-.26-2.49-2.28-3.95-4.91-3.95C83,32.27,80.9,35,80.9,38.33M72,44.11h2V39h5.24V37.33H74v-3h6V32.55H72Z"></path><g class="cls-3"><g class="cls-4"><rect class="cls-5" x="86.81" y="87.95" width="200.08" height="165.61"></rect></g></g><polyline class="cls-6" points="56.32 84.85 56.32 272.09 473.22 272.09"></polyline><polygon class="cls-2" points="56.32 76.88 53.7 86.64 58.93 86.64 56.32 76.88"></polygon><polygon class="cls-2" points="471.44 274.71 481.2 272.09 471.44 269.48 471.44 274.71"></polygon><line class="cls-7" x1="286.86" y1="272.07" x2="286.86" y2="253.6"></line><line class="cls-7" x1="245.27" y1="272.07" x2="245.27" y2="253.6"></line><line class="cls-7" x1="447.82" y1="272.12" x2="447.82" y2="253.2"></line><g class="cls-8"><g class="cls-9"><rect class="cls-10" x="245.23" y="87.89" width="202.59" height="165.67"></rect></g></g><path class="cls-2" d="M447.3,285.91h1.08V277h-.82c-.24,1.36-1.35,1.68-2.57,1.68v.85h2.31Zm-155.23-3,3-4.38h0v4.38Zm-.92.94h3.92v2.09h1v-2.09h1.21v-.94h-1.21V277h-.85l-4.07,5.81Zm-2.84,2.09h1.4v-1.4h-1.4Zm-4.62-.79c-1.83,0-1.84-2.27-1.84-3.61s0-3.59,1.84-3.59,1.84,2.27,1.84,3.59,0,3.61-1.84,3.61m0,.94c2.8,0,3-2.57,3-4.53s-.17-4.55-3-4.55-3,2.58-3,4.55.17,4.53,3,4.53m-35.75-2.91a2.7,2.7,0,0,0,3,2.91c1.67,0,3.07-.94,3.07-2.72a2,2,0,0,0-1.61-2.16v0a2,2,0,0,0,1.23-1.78c0-1.65-1.17-2.39-2.72-2.39-1.79,0-2.69,1.18-2.76,2.88h1.07a1.71,1.71,0,0,1,1.69-1.94,1.41,1.41,0,0,1,1.59,1.44,1.51,1.51,0,0,1-1.7,1.46h-.47v.91a4.4,4.4,0,0,1,.64,0,1.71,1.71,0,0,1,1.91,1.71,1.79,1.79,0,0,1-1.94,1.73,1.82,1.82,0,0,1-1.91-2Zm-3,2.76h1.4v-1.4h-1.4Zm-4.62-.79c-1.83,0-1.84-2.27-1.84-3.61s0-3.59,1.84-3.59,1.84,2.27,1.84,3.59,0,3.61-1.84,3.61m0,.94c2.79,0,3-2.57,3-4.53s-.18-4.55-3-4.55-3,2.58-3,4.55.18,4.53,3,4.53"></path><g class="cls-11"><path class="cls-12" d="M259.54,166.19a6.56,6.56,0,0,1,3.79.92,3.2,3.2,0,0,1,1.3,2.79,5.06,5.06,0,0,1-.33,1.87,3.3,3.3,0,0,1-1,1.4,5.23,5.23,0,0,1-1.82.87,10.1,10.1,0,0,1-2.64.3H246.18l2.7-3.48h10.25a2,2,0,0,0,1.1-.24.84.84,0,0,0,.34-.76.82.82,0,0,0-.34-.75,2.08,2.08,0,0,0-1.1-.22h-7.38a8.43,8.43,0,0,1-2.27-.28,4.6,4.6,0,0,1-1.58-.8,3,3,0,0,1-.93-1.22,4.09,4.09,0,0,1-.3-1.59,4.42,4.42,0,0,1,.33-1.74,3.24,3.24,0,0,1,1-1.32,5,5,0,0,1,1.8-.86,10.21,10.21,0,0,1,2.64-.3h11.78l-2.69,3.53h-9.41a2.27,2.27,0,0,0-1.08.2.77.77,0,0,0-.36.73.79.79,0,0,0,.36.74,2.14,2.14,0,0,0,1.08.21Z"></path><path class="cls-13" d="M259.54,166.19a6.56,6.56,0,0,1,3.79.92,3.2,3.2,0,0,1,1.3,2.79,5.06,5.06,0,0,1-.33,1.87,3.3,3.3,0,0,1-1,1.4,5.23,5.23,0,0,1-1.82.87,10.1,10.1,0,0,1-2.64.3H246.18l2.7-3.48h10.25a2,2,0,0,0,1.1-.24.84.84,0,0,0,.34-.76.82.82,0,0,0-.34-.75,2.08,2.08,0,0,0-1.1-.22h-7.38a8.43,8.43,0,0,1-2.27-.28,4.6,4.6,0,0,1-1.58-.8,3,3,0,0,1-.93-1.22,4.09,4.09,0,0,1-.3-1.59,4.42,4.42,0,0,1,.33-1.74,3.24,3.24,0,0,1,1-1.32,5,5,0,0,1,1.8-.86,10.21,10.21,0,0,1,2.64-.3h11.78l-2.69,3.53h-9.41a2.27,2.27,0,0,0-1.08.2.77.77,0,0,0-.36.73.79.79,0,0,0,.36.74,2.14,2.14,0,0,0,1.08.21Z"></path><path class="cls-12" d="M276.34,160.56q4.95,0,7.43,1.68a6.94,6.94,0,0,1,0,10.64c-1.65,1.12-4.13,1.69-7.44,1.69s-5.8-.57-7.45-1.69a7,7,0,0,1,0-10.64q2.48-1.68,7.44-1.68m0,10.48a24.84,24.84,0,0,0,2.68-.13,4.7,4.7,0,0,0,1.77-.52,2.28,2.28,0,0,0,1-1.07,5.37,5.37,0,0,0,0-3.54,2.21,2.21,0,0,0-1-1.06,4.9,4.9,0,0,0-1.77-.5,27.59,27.59,0,0,0-5.35,0,5,5,0,0,0-1.78.5,2.19,2.19,0,0,0-1,1.06,5.37,5.37,0,0,0,0,3.54,2.26,2.26,0,0,0,1,1.07,4.81,4.81,0,0,0,1.78.52,24.77,24.77,0,0,0,2.67.13"></path><path class="cls-13" d="M276.34,160.56q4.95,0,7.43,1.68a6.94,6.94,0,0,1,0,10.64c-1.65,1.12-4.13,1.69-7.44,1.69s-5.8-.57-7.45-1.69a7,7,0,0,1,0-10.64Q271.38,160.56,276.34,160.56Zm0,10.48a24.84,24.84,0,0,0,2.68-.13,4.7,4.7,0,0,0,1.77-.52,2.28,2.28,0,0,0,1-1.07,5.37,5.37,0,0,0,0-3.54,2.21,2.21,0,0,0-1-1.06,4.9,4.9,0,0,0-1.77-.5,27.59,27.59,0,0,0-5.35,0,5,5,0,0,0-1.78.5,2.19,2.19,0,0,0-1,1.06,5.37,5.37,0,0,0,0,3.54,2.26,2.26,0,0,0,1,1.07,4.81,4.81,0,0,0,1.78.52A24.77,24.77,0,0,0,276.34,171Z"></path><polygon class="cls-12" points="303.45 170.85 300.73 174.34 288.75 174.34 288.75 160.78 292.94 160.78 292.94 170.85 303.45 170.85"></polygon><polygon class="cls-13" points="303.45 170.85 300.73 174.34 288.75 174.34 288.75 160.78 292.94 160.78 292.94 170.85 303.45 170.85"></polygon><rect class="cls-12" x="305.27" y="160.78" width="4.2" height="13.56"></rect><rect class="cls-13" x="305.27" y="160.78" width="4.2" height="13.56"></rect><path class="cls-12" d="M329.7,167.43a6.23,6.23,0,0,1-.62,2.75,6.82,6.82,0,0,1-1.7,2.19,8.23,8.23,0,0,1-2.59,1.44,9.57,9.57,0,0,1-3.26.53h-9.08v-8.45h4.21v5h4.87a5.18,5.18,0,0,0,1.61-.23,3.65,3.65,0,0,0,1.27-.66,3.16,3.16,0,0,0,.83-1,3.05,3.05,0,0,0,0-2.64,3.11,3.11,0,0,0-.86-1.05,4.31,4.31,0,0,0-1.27-.69,4.76,4.76,0,0,0-1.58-.25h-9.08l2.67-3.53h6.41a10.4,10.4,0,0,1,3.28.49,7.9,7.9,0,0,1,2.59,1.37,6.35,6.35,0,0,1,1.69,2.1,6.07,6.07,0,0,1,.61,2.69"></path><path class="cls-13" d="M329.7,167.43a6.23,6.23,0,0,1-.62,2.75,6.82,6.82,0,0,1-1.7,2.19,8.23,8.23,0,0,1-2.59,1.44,9.57,9.57,0,0,1-3.26.53h-9.08v-8.45h4.21v5h4.87a5.18,5.18,0,0,0,1.61-.23,3.65,3.65,0,0,0,1.27-.66,3.16,3.16,0,0,0,.83-1,3.05,3.05,0,0,0,0-2.64,3.11,3.11,0,0,0-.86-1.05,4.31,4.31,0,0,0-1.27-.69,4.76,4.76,0,0,0-1.58-.25h-9.08l2.67-3.53h6.41a10.4,10.4,0,0,1,3.28.49,7.9,7.9,0,0,1,2.59,1.37,6.35,6.35,0,0,1,1.69,2.1A6.07,6.07,0,0,1,329.7,167.43Z"></path><path class="cls-12" d="M382.7,167.65a6.22,6.22,0,0,1-.61,2.75,6.85,6.85,0,0,1-1.71,2.19A8.09,8.09,0,0,1,377.8,174a9.82,9.82,0,0,1-3.26.52h-9.09v-8.45h4.22v5h4.87a5.54,5.54,0,0,0,1.61-.23,4,4,0,0,0,1.26-.66,3.2,3.2,0,0,0,.84-1,3.05,3.05,0,0,0,0-2.64,3.11,3.11,0,0,0-.86-1.05,4.31,4.31,0,0,0-1.27-.69,5.08,5.08,0,0,0-1.58-.25h-9.09l2.68-3.53h6.41a10.74,10.74,0,0,1,3.28.49,7.75,7.75,0,0,1,2.58,1.37,6.29,6.29,0,0,1,1.7,2.11,6,6,0,0,1,.6,2.68"></path><path class="cls-13" d="M382.7,167.65a6.22,6.22,0,0,1-.61,2.75,6.85,6.85,0,0,1-1.71,2.19A8.09,8.09,0,0,1,377.8,174a9.82,9.82,0,0,1-3.26.52h-9.09v-8.45h4.22v5h4.87a5.54,5.54,0,0,0,1.61-.23,4,4,0,0,0,1.26-.66,3.2,3.2,0,0,0,.84-1,3.05,3.05,0,0,0,0-2.64,3.11,3.11,0,0,0-.86-1.05,4.31,4.31,0,0,0-1.27-.69,5.08,5.08,0,0,0-1.58-.25h-9.09l2.68-3.53h6.41a10.74,10.74,0,0,1,3.28.49,7.75,7.75,0,0,1,2.58,1.37,6.29,6.29,0,0,1,1.7,2.11A6,6,0,0,1,382.7,167.65Z"></path><path class="cls-12" d="M404.44,174.56h-5.62l-3-3.58h-6.45v3.58h-4.19v-6.93H397a3.15,3.15,0,0,0,1.65-.4,1.26,1.26,0,0,0,.67-1.12,1.32,1.32,0,0,0-.61-1.18,3.07,3.07,0,0,0-1.71-.4H385.16l2.73-3.53h8.72a14.26,14.26,0,0,1,2.39.22,7,7,0,0,1,2.25.76,4.69,4.69,0,0,1,1.68,1.48,4.11,4.11,0,0,1,.65,2.39,4.67,4.67,0,0,1-.24,1.5,3.94,3.94,0,0,1-.7,1.27,4.17,4.17,0,0,1-1.11,1,4.75,4.75,0,0,1-1.49.56,9.57,9.57,0,0,1,.77.67l1.13,1.11Z"></path><path class="cls-13" d="M404.44,174.56h-5.62l-3-3.58h-6.45v3.58h-4.19v-6.93H397a3.15,3.15,0,0,0,1.65-.4,1.26,1.26,0,0,0,.67-1.12,1.32,1.32,0,0,0-.61-1.18,3.07,3.07,0,0,0-1.71-.4H385.16l2.73-3.53h8.72a14.26,14.26,0,0,1,2.39.22,7,7,0,0,1,2.25.76,4.69,4.69,0,0,1,1.68,1.48,4.11,4.11,0,0,1,.65,2.39,4.67,4.67,0,0,1-.24,1.5,3.94,3.94,0,0,1-.7,1.27,4.17,4.17,0,0,1-1.11,1,4.75,4.75,0,0,1-1.49.56,9.57,9.57,0,0,1,.77.67l1.13,1.11Z"></path><rect class="cls-12" x="406.36" y="161" width="4.2" height="13.56"></rect><rect class="cls-13" x="406.36" y="161" width="4.2" height="13.56"></rect><polygon class="cls-12" points="428.23 171.08 425.52 174.56 413.54 174.56 413.54 161 417.73 161 417.73 171.08 428.23 171.08"></polygon><polygon class="cls-13" points="428.23 171.08 425.52 174.56 413.54 174.56 413.54 161 417.73 161 417.73 171.08 428.23 171.08"></polygon><polygon class="cls-12" points="444.69 171.08 441.98 174.56 430 174.56 430 161 434.19 161 434.19 171.08 444.69 171.08"></polygon><polygon class="cls-13" points="444.69 171.08 441.98 174.56 430 174.56 430 161 434.19 161 434.19 171.08 444.69 171.08"></polygon><polygon class="cls-10" points="369.31 154.51 368.46 155.61 366.01 155.61 366.01 156.06 369.1 156.06 368.25 157.15 366.01 157.15 366.01 158.75 364.7 158.75 364.7 154.51 369.31 154.51"></polygon><polygon class="cls-13" points="369.31 154.51 368.46 155.61 366.01 155.61 366.01 156.06 369.1 156.06 368.25 157.15 366.01 157.15 366.01 158.75 364.7 158.75 364.7 154.51 369.31 154.51"></polygon><polygon class="cls-10" points="377.39 157.66 376.54 158.75 372.79 158.75 372.79 154.51 374.1 154.51 374.1 157.66 377.39 157.66"></polygon><polygon class="cls-13" points="377.39 157.66 376.54 158.75 372.79 158.75 372.79 154.51 374.1 154.51 374.1 157.66 377.39 157.66"></polygon><path class="cls-10" d="M386.75,156.82c0,1.29-.88,1.93-2.65,1.93h-.28c-1.76,0-2.64-.64-2.64-1.93v-2.31h1.31v2.31a.7.7,0,0,0,.5.74,3.76,3.76,0,0,0,1.11.1,2.39,2.39,0,0,0,.95-.14.72.72,0,0,0,.38-.7v-2.31h1.32Z"></path><path class="cls-13" d="M386.75,156.82c0,1.29-.88,1.93-2.65,1.93h-.28c-1.76,0-2.64-.64-2.64-1.93v-2.31h1.31v2.31a.7.7,0,0,0,.5.74,3.76,3.76,0,0,0,1.11.1,2.39,2.39,0,0,0,.95-.14.72.72,0,0,0,.38-.7v-2.31h1.32Z"></path><polygon class="cls-10" points="395.65 154.51 394.79 155.61 393.52 155.61 393.52 158.75 392.2 158.75 392.2 155.61 390.46 155.61 391.3 154.51 395.65 154.51"></polygon><polygon class="cls-13" points="395.65 154.51 394.79 155.61 393.52 155.61 393.52 158.75 392.2 158.75 392.2 155.61 390.46 155.61 391.3 154.51 395.65 154.51"></polygon><polygon class="cls-10" points="403.84 157.66 402.99 158.75 399.23 158.75 399.23 154.51 403.84 154.51 402.99 155.61 400.55 155.61 400.55 156.06 403.63 156.06 402.79 157.15 400.55 157.15 400.55 157.66 403.84 157.66"></polygon><polygon class="cls-13" points="403.84 157.66 402.99 158.75 399.23 158.75 399.23 154.51 403.84 154.51 402.99 155.61 400.55 155.61 400.55 156.06 403.63 156.06 402.79 157.15 400.55 157.15 400.55 157.66 403.84 157.66"></polygon><path class="cls-10" d="M413.65,154.51l-.85,1.1h-3c-.16,0-.24.06-.24.17s.08.17.24.17H412a2.16,2.16,0,0,1,1.29.38,1.22,1.22,0,0,1,.54,1,1.19,1.19,0,0,1-.55,1,2.07,2.07,0,0,1-1.28.37h-3.88l.85-1.09h3a1.06,1.06,0,0,0,.37-.07c.14-.06.21-.14.21-.25s-.07-.18-.21-.24A1,1,0,0,0,412,157H409.8a2,2,0,0,1-1.2-.33,1.08,1.08,0,0,1-.52-.93,1.1,1.1,0,0,1,.52-.94,2.07,2.07,0,0,1,1.2-.33Z"></path><path class="cls-13" d="M413.65,154.51l-.85,1.1h-3c-.16,0-.24.06-.24.17s.08.17.24.17H412a2.16,2.16,0,0,1,1.29.38,1.22,1.22,0,0,1,.54,1,1.19,1.19,0,0,1-.55,1,2.07,2.07,0,0,1-1.28.37h-3.88l.85-1.09h3a1.06,1.06,0,0,0,.37-.07c.14-.06.21-.14.21-.25s-.07-.18-.21-.24A1,1,0,0,0,412,157H409.8a2,2,0,0,1-1.2-.33,1.08,1.08,0,0,1-.52-.93,1.1,1.1,0,0,1,.52-.94,2.07,2.07,0,0,1,1.2-.33Z"></path><path class="cls-10" d="M362.69,163.46l-4.05,5.26h-1.35v5.84H351v-5.84H333.47V163.6l16.09-9.31h7.73v9.17Zm-11.7,0V159l-7.7,4.47Z"></path><path class="cls-13" d="M362.69,163.46l-4.05,5.26h-1.35v5.84H351v-5.84H333.47V163.6l16.09-9.31h7.73v9.17Zm-11.7,0V159l-7.7,4.47Z"></path></g><g class="cls-14"><path class="cls-15" d="M63.08,51.66a7,7,0,0,1-7,7H31.77a7,7,0,0,1-7-7V27.31a7,7,0,0,1,7-7H56.12a7,7,0,0,1,7,7Z"></path><polygon class="cls-2" points="33.82 27.76 40.69 27.76 40.69 36.16 47.89 27.76 57.02 27.76 48.91 36.15 57.38 49.99 48.93 49.99 44.24 40.85 40.69 44.56 40.69 49.99 33.82 49.99 33.82 27.76"></polygon></g></svg> 