<?xml version="1.0" encoding="UTF-8"?> <svg xmlns="http://www.w3.org/2000/svg" id="_レイヤー_1" data-name="レイヤー 1" viewBox="0 0 600 250"><defs><style> .cls-1 { letter-spacing: .05902em; } .cls-2 { letter-spacing: .04201em; } .cls-3 { fill: #e4d4ea; } .cls-3, .cls-4, .cls-5, .cls-6, .cls-7, .cls-8, .cls-9, .cls-10, .cls-11 { stroke-width: 0px; } .cls-12 { letter-spacing: 6.49201em; } .cls-13 { letter-spacing: .06304em; } .cls-14 { letter-spacing: .03697em; } .cls-4 { fill: #616161; } .cls-15 { letter-spacing: .06299em; } .cls-16 { letter-spacing: .04195em; } .cls-5 { fill: #fff2eb; } .cls-17 { letter-spacing: .06406em; } .cls-18 { letter-spacing: .04893em; } .cls-19 { font-family: HelveticaNeueLTW1G-BlkIt, 'Helvetica Neue LT W1G'; font-size: 17.68367px; font-style: italic; } .cls-19, .cls-9 { fill: #fff; } .cls-20 { letter-spacing: .10998em; } .cls-21 { fill: #423f3e; font-family: HelveticaNeueLTW1G-Roman, 'Helvetica Neue LT W1G'; } .cls-21, .cls-22, .cls-23 { font-size: 9.10118px; } .cls-24 { fill: #9fa0a0; } .cls-24, .cls-25, .cls-26 { stroke: #231815; } .cls-24, .cls-26 { stroke-width: .40247px; } .cls-27 { letter-spacing: .05698em; } .cls-22 { font-family: HelveticaNeueLTW1G-Md, 'Helvetica Neue LT W1G'; font-weight: 500; } .cls-22, .cls-23 { fill: #d23e49; } .cls-28 { letter-spacing: .09893em; } .cls-29 { letter-spacing: .05em; } .cls-6 { fill: #130700; } .cls-25 { stroke-width: .43351px; } .cls-25, .cls-26 { fill: #c81432; } .cls-23 { font-family: HelveticaNeueLTW1G-Bd, 'Helvetica Neue LT W1G'; } .cls-7 { fill: #cc0638; } .cls-30 { letter-spacing: .04904em; } .cls-8 { fill: #595757; } .cls-31 { letter-spacing: .10102em; } .cls-10 { fill: #a2a2a4; } .cls-11 { fill: #f0f0f0; } .cls-32 { letter-spacing: .08504em; } </style></defs><rect class="cls-9" width="600" height="250"></rect><polyline class="cls-4" points="65.65794 19.88009 65.65794 202.01754 571.60507 202.01754 571.60507 201.21204 66.4646 201.21089 66.4646 19.88009 65.65794 19.88009"></polyline><polyline class="cls-4" points="66.06184 14.15038 63.32441 21.67324 68.79926 21.67324 66.06184 14.15038"></polyline><polyline class="cls-4" points="577.33374 201.61477 569.81207 198.87738 569.81207 204.3522 577.33374 201.61477"></polyline><rect class="cls-4" x="127.95985" y="198.75675" width=".46535" height="3.2255"></rect><rect class="cls-4" x="264.32117" y="198.75675" width=".46415" height="3.2255"></rect><rect class="cls-4" x="536.94141" y="198.75675" width=".46537" height="3.2255"></rect><rect class="cls-4" x="65.741" y="107.28985" width="3.22471" height=".46533"></rect><rect class="cls-4" x="65.741" y="138.2343" width="3.22471" height=".46533"></rect><text class="cls-21" transform="translate(44.23657 47.95559)"><tspan class="cls-32" x="0" y="0">2</tspan><tspan class="cls-20" x="5.83398" y="0">.</tspan><tspan x="9.36523" y="0">5</tspan></text><text class="cls-23" transform="translate(52.93286 78.54934)"><tspan x="0" y="0">2</tspan></text><text class="cls-21" transform="translate(44.56177 110.4009)"><tspan class="cls-30" x="0" y="0">1</tspan><tspan class="cls-20" x="5.50635" y="0">.</tspan><tspan x="9.0376" y="0">5</tspan></text><text class="cls-23" transform="translate(52.93286 142.2593)"><tspan x="0" y="0">1</tspan></text><text class="cls-21" transform="translate(44.09106 174.10989)"><tspan class="cls-31" x="0" y="0">0</tspan><tspan class="cls-20" x="5.97949" y="0">.</tspan><tspan x="9.51074" y="0">5</tspan></text><text class="cls-21" transform="translate(53.60669 205.9634)"><tspan x="0" y="0">0</tspan></text><text class="cls-21" transform="translate(30.80005 143.26711) rotate(-90)"><tspan class="cls-1" x="0" y="0">C</tspan><tspan class="cls-14" x="7.10791" y="0">D</tspan><tspan class="cls-30" x="13.85156" y="0">X </tspan><tspan class="cls-2" x="22.83447" y="0">(</tspan><tspan class="cls-13" x="25.57373" y="0">m</tspan><tspan class="cls-2" x="33.91064" y="0">m</tspan><tspan x="42.05615" y="0">)</tspan></text><g><text class="cls-21" transform="translate(268.60083 216.23391)"><tspan x="0" y="0"> </tspan></text><text class="cls-21" transform="translate(262.63013 216.23391)"><tspan x="0" y="0">4</tspan></text><text class="cls-21" transform="translate(132.08325 216.23391)"><tspan x="0" y="0"> </tspan></text><text class="cls-21" transform="translate(126.11255 216.23391)"><tspan x="0" y="0">2</tspan></text></g><text class="cls-23" transform="translate(329.75171 216.23879)"><tspan x="0" y="0">5</tspan></text><text class="cls-21" transform="translate(336.39526 216.23391)"><tspan class="cls-12" x="0" y="0"> </tspan><tspan class="cls-28" x="61.61523" y="0">6</tspan><tspan x="67.57617" y="0"> </tspan></text><text class="cls-22" transform="translate(535.66577 216.23879)"><tspan x="0" y="0">8</tspan></text><rect class="cls-4" x="65.741" y="76.34539" width="3.22471" height=".46533"></rect><text class="cls-21" transform="translate(297.6311 233.59231)"><tspan class="cls-17" x="0" y="0">D</tspan><tspan class="cls-27" x="6.98975" y="0">MI</tspan><tspan class="cls-29" x="18.31104" y="0">N</tspan><tspan class="cls-18" x="25.3374" y="0"> </tspan><tspan class="cls-16" x="28.31299" y="0">(</tspan><tspan class="cls-15" x="31.05225" y="0">m</tspan><tspan class="cls-16" x="39.38916" y="0">m</tspan><tspan x="47.53467" y="0">)</tspan></text><rect class="cls-4" x="65.741" y="45.39976" width="3.22471" height=".46533"></rect><rect class="cls-4" x="65.741" y="169.17983" width="3.22471" height=".46537"></rect><rect class="cls-4" x="400.63129" y="198.75675" width=".46419" height="3.2255"></rect><path class="cls-5" d="M454.0781,170.03544H144.5539c-3.45307,0-6.57732-1.39715-8.83577-3.65556-2.26411-2.26411-3.6624-5.38836-3.6624-8.83574V58.95718c0-3.45421,1.3983-6.57163,3.6624-8.83574,2.25845-2.26529,5.3827-3.6624,8.83577-3.6624v-.40277.40277h309.52419c3.45303,0,6.5716,1.39712,8.83574,3.6624,2.26411,2.26411,3.6624,5.38152,3.6624,8.83574v98.58696c0,3.44737-1.3983,6.57163-3.6624,8.83574-2.26414,2.25841-5.3827,3.65556-8.83574,3.65556"></path><path class="cls-11" d="M454.0781,170.84212H144.5539c-7.35098,0-13.30371-5.9538-13.30371-13.29798V58.95718c0-7.35098,5.95272-13.30478,13.30371-13.30478v.80665c-3.45307,0-6.57732,1.39719-8.83577,3.6624-2.26411,2.26411-3.6624,5.38152-3.6624,8.83574v98.58696c0,3.44737,1.3983,6.57163,3.6624,8.83574,2.25845,2.25845,5.3827,3.6556,8.83577,3.6556h309.52419c3.45303,0,6.5716-1.39715,8.83574-3.6556,2.26411-2.26411,3.6624-5.38836,3.6624-8.83574V58.95718c0-3.45421-1.3983-6.57163-3.6624-8.83574-2.26414-2.26522-5.3827-3.6624-8.83574-3.6624H144.5539v-.80665h309.52419c7.34414,0,13.30367,5.9538,13.30367,13.30478v98.58696c0,7.34418-5.95953,13.29798-13.30367,13.29798"></path><path class="cls-3" d="M345.17974,77.0701c-7.12346,0-12.89865,5.77526-12.89865,12.8998v35.84592c0,7.12342,5.77519,12.89862,12.89865,12.89862h178.96767c7.12346,0,12.89865-5.77519,12.89865-12.89862v-35.84592c0-7.12453-5.77519-12.8998-12.89865-12.8998h-178.96767"></path><path class="cls-7" d="M345.17974,77.0701v-.80546c-7.56945,0-13.70533,6.13588-13.70533,13.70526v35.84592c0,7.56938,6.13588,13.70415,13.70533,13.70526h178.96767c7.56945-.00111,13.7053-6.13588,13.7053-13.70526v-35.84592c0-7.56938-6.13584-13.70526-13.7053-13.70526h-178.96767v1.61218h178.96767c3.34158,0,6.36,1.35274,8.5513,3.54178,2.18904,2.19133,3.54067,5.20972,3.54182,8.5513v35.84592c-.00115,3.34151-1.35278,6.35997-3.54182,8.5513-2.1913,2.18904-5.20972,3.54067-8.5513,3.54178h-178.96767c-3.34158-.00111-6.36004-1.35274-8.55133-3.54178-2.189-2.19133-3.54182-5.20979-3.54182-8.5513v-35.84592c0-3.34158,1.35281-6.35997,3.54182-8.5513,2.1913-2.18904,5.20976-3.54178,8.55133-3.54178v-.80671"></path><polyline class="cls-10" points="161.08424 148.65944 158.90203 151.47197 155.65376 151.47197 155.65376 159.50561 152.28262 159.50561 152.28262 151.47197 147.81583 151.47197 149.98209 148.65944"></polyline><polyline class="cls-6" points="161.08424 148.65944 161.17981 148.7334 158.96119 151.5937 155.77437 151.5937 155.77437 159.62734 152.16202 159.62734 152.16202 151.5937 147.56893 151.5937 149.9218 148.53771 161.33113 148.53771 161.17981 148.7334 161.08424 148.65944 161.08424 148.78006 150.04126 148.78006 148.06157 151.35138 152.40435 151.35138 152.40435 159.38499 155.53203 159.38499 155.53203 151.35138 158.84288 151.35138 160.98753 148.58437 161.08424 148.65944 161.08424 148.78006 161.08424 148.65944"></polyline><rect class="cls-10" x="161.94438" y="148.65833" width="3.35408" height="10.84728"></rect><polyline class="cls-6" points="165.29845 159.50561 165.29845 159.62623 161.82263 159.62623 161.82263 148.53774 165.42019 148.53774 165.42019 159.62623 165.29845 159.62623 165.29845 159.50561 165.1767 159.50561 165.1767 148.7801 162.06496 148.7801 162.06496 159.38388 165.29845 159.38388 165.29845 159.50561 165.1767 159.50561 165.29845 159.50561"></polyline><path class="cls-10" d="M180.13355,158.10617c0,.98303-.44601,1.47454-1.33913,1.47454-.6417,0-1.2538-.24121-1.83405-.72248l-6.34863-5.311v5.95838h-3.37001v-9.44784c0-.40051.12743-.73158.38343-.99213.25598-.26055.61892-.39138,1.0911-.39138.61097,0,1.17757.21617,1.6998.64738l6.34862,5.30986v-5.97203h3.36889"></path><path class="cls-6" d="M180.13355,158.10617h.12173c0,.5086-.11491.91022-.36636,1.18782-.25143.27649-.62689.40846-1.0945.40732-.67241.00115-1.31524-.25371-1.91142-.74977l-6.14952-5.14375v5.81957h-3.61235v-9.56957c-.00113-.42554.13882-.79415.41756-1.07747.28329-.28784.68493-.42777,1.17757-.42666.64056-.00111,1.23787.22871,1.77716.67356l6.14952,5.1449v-5.83436h3.61235v9.56843h-.24234v-9.32611h-3.12768v6.11084l-6.5466-5.47711v.00115c-.50516-.4153-1.04103-.6178-1.62242-.61894-.45054.00115-.77595.12288-1.00464.35499-.23322.23892-.347.53131-.34815.90678v9.32611h3.12653v-6.09605l6.54774,5.47711c.56433.46763,1.14684.69404,1.75669.69404.42551-.00115.72019-.11493.91475-.32881.19569-.21392.30378-.54953.30378-1.024h.1206"></path><polyline class="cls-10" points="197.39203 148.65944 190.9535 155.90918 190.9535 159.50561 187.58463 159.50561 187.58463 155.89439 180.94929 148.65944 185.25225 148.65944 189.31401 153.0671 193.10499 148.65944"></polyline><polyline class="cls-6" points="197.39203 148.65944 197.48303 148.74024 191.07525 155.95585 191.07525 159.62734 187.4629 159.62734 187.4629 155.94217 180.67397 148.53771 185.30573 148.53771 189.31059 152.88506 193.04924 148.53771 197.6628 148.53771 197.48303 148.74024 197.39203 148.65944 197.39203 148.78006 193.16073 148.78006 189.31743 153.25026 185.19992 148.78006 181.22577 148.78006 187.70524 155.84776 187.70524 159.38499 190.83177 159.38499 190.83177 155.86366 197.30213 148.57868 197.39203 148.65944 197.39203 148.78006 197.39203 148.65944"></polyline><polyline class="cls-10" points="236.73194 148.65944 234.55086 151.47197 231.30145 151.47197 231.30145 159.50561 227.93146 159.50561 227.93146 151.47197 223.46352 151.47197 225.62978 148.65944"></polyline><polyline class="cls-6" points="236.73194 148.65944 236.82751 148.7334 234.61003 151.5937 231.4232 151.5937 231.4232 159.62734 227.81085 159.62734 227.81085 151.5937 223.21776 151.5937 225.56949 148.53771 236.97995 148.53771 236.82751 148.7334 236.73194 148.65944 236.73194 148.78006 225.68895 148.78006 223.71041 151.35138 228.05319 151.35138 228.05319 159.38499 231.17972 159.38499 231.17972 151.35138 234.4917 151.35138 236.63635 148.58437 236.73194 148.65944 236.73194 148.78006 236.73194 148.65944"></polyline><path class="cls-10" d="M251.74338,154.57119c0,3.2904-2.25616,4.93442-6.76961,4.93442h-.70654c-4.51344,0-6.76959-1.64402-6.76959-4.93442v-5.91172h3.35408v5.91172c0,.98303.43122,1.61562,1.29363,1.89551.46191.16041,1.40397.24121,2.82843.24121,1.1332,0,1.94101-.12062,2.42226-.3618.65194-.31062.97734-.90223.97734-1.77492v-5.91172h3.37001"></path><path class="cls-6" d="M251.74338,154.57119h.12059c.00227,1.67138-.57912,2.95475-1.74188,3.79896-1.16051.84532-2.87737,1.25608-5.14832,1.25719h-.70654c-2.27093-.00111-3.98779-.41186-5.14943-1.25719-1.16165-.84421-1.74417-2.12758-1.7419-3.79896v-6.03345h3.59756v6.03345c.00797.9489.39138,1.50638,1.20943,1.78058h.00227c.42893.15135,1.36984.23551,2.78861.2344,1.1241.00111,1.92052-.12288,2.36766-.34815l.00113-.00115h.00115c.60641-.29353.90336-.82147.90906-1.66568v-6.03345h3.61121v6.03345h-.24234v-5.79113h-3.12653v5.79113c.00455.89998-.35042,1.5576-1.04673,1.88526l-.05234-.11034.05349.1092c-.51427.256-1.33345.37204-2.47575.37318-1.43128-.00115-2.37447-.07736-2.86826-.24687l.03983-.11493-.03755.11604c-.90678-.28784-1.38463-.99438-1.37666-2.01154v-5.79113h-3.11289v5.79113c.00227,1.61902.54839,2.80343,1.64291,3.60327,1.09565.79984,2.76359,1.21056,5.00608,1.20941h.70654c2.24251.00115,3.91045-.40957,5.0061-1.20941,1.09337-.79984,1.63949-1.98425,1.64176-3.60327h.12175"></path><path class="cls-10" d="M269.32725,159.50561h-4.88893l-3.2801-2.7226h-4.63291v2.7226h-3.36887v-5.53628h9.35571c.57115,0,1.04331-.08531,1.41422-.25597.47103-.22072.70654-.54613.70654-.97734,0-.84192-.70654-1.26403-2.12076-1.26403h-9.35571l2.19586-2.81253h6.84468c1.69412,0,3.06851.32086,4.12206.96254,1.18212.73158,1.77374,1.77488,1.77374,3.12881,0,.76227-.23777,1.45177-.71449,2.06956-.47558.6155-1.13549,1.08997-1.97741,1.42104"></path><path class="cls-6" d="M269.32725,159.50561v.12177h-4.93331l-3.27896-2.72378h-4.46908v2.72378h-3.61121v-5.77863h9.47744c.55978,0,1.01372-.0842,1.36302-.24576.44372-.21277.63257-.48467.63712-.86696-.00455-.38683-.15132-.64852-.47103-.84307-.32195-.19343-.83395-.30037-1.52911-.29923h-9.60487l2.38471-3.056h6.90499c1.7089,0,3.10605.32426,4.18463.98074,1.214.74751,1.83634,1.84315,1.8329,3.23234,0,.78731-.24801,1.50749-.73953,2.14352-.49151.63484-1.17188,1.12181-2.02974,1.45972l-.04437-.11264.07736-.0933,4.18465,3.47925h-.33562v-.12177l-.0785.0933-4.0834-3.39501.19114-.0751c.82602-.32541,1.4643-.78619,1.9262-1.3835.46079-.59846.68835-1.25833.6895-1.99446-.0034-1.3175-.56547-2.30848-1.71801-3.02527-1.02626-.62578-2.37787-.94546-4.0572-.94546h-6.78551l-2.007,2.57129h9.10767c.71906,0,1.26859.10468,1.65313.33221.38568.22642.59276.59735.58936,1.05244.0034.47898-.27874.859-.7771,1.08768-.39364.1809-.88173.26739-1.4654.26739h-9.2351v5.29278h3.12653v-2.72264h4.79902l3.27899,2.72264h4.84567v.12173l-.0785.0933.0785-.0933"></path><path class="cls-10" d="M283.21688,158.10617c0,.98303-.44603,1.47454-1.33802,1.47454-.64283,0-1.25379-.24121-1.83516-.72248l-6.34865-5.311v5.95838h-3.36887v-9.44784c0-.40051.12743-.73158.38343-.99213.25485-.26055.61894-.39138,1.08997-.39138.6121,0,1.17868.21617,1.69978.64738l6.34862,5.30986v-5.97203h3.3689"></path><path class="cls-6" d="M283.21688,158.10617h.12173c0,.5086-.11493.91022-.36638,1.18782-.25142.27649-.62689.40846-1.09337.40732-.67352.00115-1.31521-.25371-1.91255-.74977l-6.14952-5.14375v5.81957h-3.61233v-9.56957c-.00115-.42554.13993-.79415.4187-1.07747.28215-.28784.68377-.42777,1.17643-.42666.64054-.00111,1.23899.22871,1.77714.67356l6.14952,5.1449v-5.83436h3.61237v9.56843h-.24235v-9.32611h-3.12651v6.11084l-6.54774-5.47711c-.50401-.41416-1.0399-.61665-1.62242-.6178-.45054.00115-.77481.12288-1.00351.35499-.23322.23892-.34815.53131-.3493.90678v9.32611h3.12655v-6.09605l6.54774,5.47711c.56544.46763,1.14684.69404,1.7578.69404.42554-.00115.71908-.11493.91362-.32881.19569-.21392.30378-.54953.30378-1.024h.12062"></path><path class="cls-7" d="M221.89457,159.60457h-4.76716v-7.76511l-4.21308,5.65346c-.63031.85671-1.49841,1.28451-2.60203,1.28451-.5666,0-1.11841-.12173-1.65428-.36634-.53702-.24461-.93864-.55068-1.20716-.91817l-4.23582-5.65346v7.76511h-4.74442v-13.04313c.17295-.52905.53929-.97504,1.09907-1.33458.55978-.36065,1.20261-.54044,1.92734-.54044,1.11955,0,2.0889.57002,2.90923,1.71232l5.76497,7.31685,5.78886-7.31685c.80439-1.1423,1.76579-1.71232,2.88532-1.71232.74067,0,1.38578.17979,1.93872.54044.55181.35954.92159.80553,1.11159,1.33458"></path><path class="cls-6" d="M221.89457,159.60457v.13086h-4.89801v-7.50119l-3.97757,5.33718v-.00115c-.64965.88744-1.56895,1.34028-2.70555,1.33799-.58709,0-1.15823-.12628-1.71004-.37884-.55066-.25031-.97277-.57002-1.25721-.95914l.10467-.07736-.10467.0785-4.00033-5.3383v7.5023h-5.00608v-13.19448l.00682-.01934c.18317-.56203.57342-1.03306,1.15254-1.4051.58139-.37433,1.25153-.56092,1.99788-.56092,1.1662-.00226,2.1822.603,3.01504,1.76693l-.10581.07621.10239-.08076,5.6637,7.18599,5.68532-7.18599.10241.08076-.10696-.07507c.81805-1.16507,1.82495-1.77033,2.99228-1.76808.76116,0,1.4347.18659,2.00927.56092.57115.37204.9648.84192,1.16391,1.4017l.00797.02049-.00115,13.19673h-.13083v-.13086h-.13085l.00113-13.04313h.13085l-.12288.04437c-.17977-.50061-.52677-.92157-1.06037-1.26972-.53019-.34475-1.14799-.51881-1.86705-.51881-1.07176.00115-1.98764.53815-2.77838,1.65655l-.00227.0034-5.89352,7.44883-5.86965-7.44883-.00227-.00226c-.80552-1.11955-1.73051-1.65655-2.80227-1.6577-.70312,0-1.31865.17295-1.85681.51881-.54042.34815-.88175.76911-1.04558,1.26632l-.12402-.04097h.13085v12.9123h4.48273v-8.0268l4.47134,5.96748.00115.00115c.25143.34475.63372.63828,1.15594.87605.51882.23781,1.05129.35499,1.60083.35499,1.06834-.00229,1.88524-.40617,2.49507-1.23104l4.44973-5.96977v8.02795h4.63633v.13083h-.13085.13085"></path><rect class="cls-7" x="225.97908" y="144.52261" width=".97393" height="3.14929"></rect><polyline class="cls-6" points="226.95299 147.67075 226.95299 147.79252 225.85733 147.79252 225.85733 144.40087 227.07473 144.40087 227.07473 147.79252 226.95299 147.79252 226.95299 147.67075 226.83239 147.67075 226.83239 144.64438 226.10081 144.64438 226.10081 147.55017 226.95299 147.55017 226.95299 147.67075 226.83239 147.67075 226.95299 147.67075"></polyline><path class="cls-7" d="M233.14575,147.26569c0,.28444-.12972.4278-.38798.4278-.18774,0-.36409-.07052-.53247-.20933l-1.84429-1.54166v1.7294h-.97732v-2.74312c0-.11604.03641-.21277.11149-.28784.07396-.0751.17862-.11378.31629-.11378.1775,0,.34133.06257.49379.18774l1.84202,1.54163v-1.73391h.97846"></path><path class="cls-6" d="M233.14575,147.26569h.12173c0,.1593-.03641.29923-.12857.40277-.0933.10239-.23209.14677-.38114.14566-.21845.00111-.42553-.08305-.60984-.23666l-1.64518-1.37555v1.59058h-1.2208v-2.86371c-.00113-.14107.04892-.27534.14677-.37318.10014-.10354.24463-.15132.40277-.15017.20593,0,.40162.07507.57002.21617l1.64518,1.37552v-1.59624h1.2208v2.86482h-.24234v-2.62135h-.73613v1.87158l-2.04225-1.70773c-.13312-.11038-.26737-.1593-.41528-.1593-.11606,0-.18317.02958-.22982.07736l-.07738.20253v2.62135h.73613v-1.86818l2.04225,1.70891c.15246.12514.29923.1809.45511.1809.10809-.00115.16496-.02729.20138-.06712.03641-.03983.06599-.11378.06599-.23895h.1206"></path><rect class="cls-7" x="235.61353" y="144.52261" width=".97392" height="3.14929"></rect><polyline class="cls-6" points="236.58744 147.67075 236.58744 147.79252 235.49178 147.79252 235.49178 144.40087 236.70918 144.40087 236.70918 147.79252 236.58744 147.79252 236.58744 147.67075 236.46569 147.67075 236.46569 144.64438 235.73526 144.64438 235.73526 147.55017 236.58744 147.55017 236.58744 147.67075 236.46569 147.67075 236.58744 147.67075"></polyline><rect class="cls-4" x="331.8294" y="198.75675" width=".46422" height="3.2255"></rect><path class="cls-9" d="M88.71098,202.13472c0,.48582.15473.92046.46533,1.30389.28899.35839.59959.63939.93295.84418l.43234-.8055c-.11036-.02503-.29923-.16611-.56545-.42211-.24462-.22982-.36636-.56207-.36636-.99667,0-.38457.15587-.86925.46648-1.45861.39935-.76682.59846-1.36757.59846-1.80217,0-.56203-.16612-1.049-.49947-1.45861-.24347-.30603-.53247-.59957-.86583-.88175l-.56545.76685c.24461.15357.43234.30718.56545.46079.28899.33221.43349.66557.43349.99779,0,.45968-.17749,1.03535-.53247,1.72596-.33336.63943-.49947,1.21514-.49947,1.72596"></path><path class="cls-9" d="M88.71098,202.13472h-1.11613c-.00683.72477.25485,1.44836.7145,2.00585l-.00114-.00111c.35384.4403.75888.81234,1.21739,1.09452l1.00691.6178,1.68614-3.13794-1.42901-.32423-.16383.72019.35952-.64967c-.02389-.01139-.07281-.04097-.19569-.07052l-.16383.72019.35952-.64967-.13198.23781.14563-.22871-.01365-.0091-.13198.23781.14563-.22871-.01593-.0125c-.03868-.02844-.12402-.10014-.23438-.20593l-.00341-.0034-.00341-.00344-.0421.04437.05121-.03413-.00911-.01024-.0421.04437.05121-.03413c-.00456-.01024-.02503-.06826-.02503-.19569-.00911-.08191.06712-.43804.33677-.93751l.00114-.00226.00228-.00344c.4312-.84987.71223-1.54617.72474-2.31758.00683-.7805-.25258-1.55985-.74977-2.16171l-.86583.70311.87379-.69401c-.29467-.37089-.636-.71679-1.01828-1.0399l-.9102-.77026-1.98878,2.69531,1.01942.63943c.17976.11149.2833.20822.31629.2469l.01479.01819-.01479-.01819c.17066.20249.15701.2651.15928.26621.00683.1718-.09443.61554-.40845,1.21514l.00227-.00455c-.38683.74522-.62348,1.48475-.62576,2.24133h2.23112c-.00114-.26621.09443-.67807.37432-1.21056l.00114-.00226.00114-.00229c.39707-.78161.64965-1.4893.65648-2.23682.00115-.66783-.30037-1.26743-.70654-1.72936-.23438-.2685-.5063-.47898-.81577-.67356l-.59276.94435.89768.66332.5666-.768-.89882-.66217-.72019.85216c.28444.24006.51995.48242.71337.72477l.00341.00455.00455.00455c.16839.21729.24235.41072.24917.75432.01252.09784-.10695.603-.4733,1.28681l.00227-.00458c-.35156.67811-.58708,1.29135-.59504,1.97856,0,.32086.04437.64509.16042.96025.11377.31402.30605.61325.55636.84876l-.00796-.00795c.15586.14902.29581.27419.44827.38798.16042.11034.29582.22642.64397.31742l.24689-1.08768-.98301-.52794-.43234.80553.98301.5279.58367-.95116c-.20707-.12743-.42438-.31628-.64738-.59276l-.00114-.00111v-.00115c-.16156-.20937-.21163-.35499-.21845-.60189h-1.11499"></path><path class="cls-9" d="M91.66685,203.02102c0,.48582.15586.92046.46647,1.30389.28899.35839.59959.63939.93182.84418l.43348-.8055c-.1115-.02618-.30037-.16611-.56659-.42211-.24348-.23097-.36636-.56207-.36636-.99782,0-.38343.15587-.86921.46648-1.45746.39935-.76797.59959-1.36757.59959-1.80332,0-.56203-.16612-1.04785-.49947-1.45746-.24461-.30718-.53246-.60071-.86583-.88289l-.56659.768c.24461.15357.43348.30718.56659.45964.28899.33336.43235.66557.43235.99782,0,.46079-.17635,1.03532-.53247,1.72596-.33222.63939-.49947,1.21511-.49947,1.72707"></path><path class="cls-9" d="M91.66685,203.02102h-1.11613c-.00569.72477.25485,1.44722.71564,2.00585l-.00227-.00226c.35497.4403.75888.81349,1.21739,1.09452l1.00805.61894,1.68614-3.13794-1.43015-.32537-.16383.72019.35952-.64852c-.02389-.01139-.07167-.04208-.19569-.07166l-.16383.72019.35952-.64852-.13084.23781.14563-.22982-.01479-.00799-.13084.23781.14563-.22982-.01707-.01139c-.03868-.02844-.12402-.10128-.23323-.20708l-.00456-.0034-.00341-.00344-.0421.04437.05121-.03299-.00911-.01139-.0421.04437.05121-.03299v-.00115c-.00456-.0091-.02503-.06712-.02503-.19569-.00796-.08076.06712-.43801.33791-.93636l.00114-.0034.00115-.00229c.43234-.84987.71223-1.54732.72587-2.31872.00569-.7805-.25257-1.55985-.74977-2.16171l-.86583.70425.8738-.69516c-.29582-.37089-.63714-.71564-1.01943-1.03876l-.9102-.77026-1.98878,2.69531,1.01942.63943c.17976.11149.28444.20708.31629.24576.1718.20364.15815.26624.16042.26624.00683.17291-.09557.61665-.40959,1.21511l.00227-.00455c-.38683.74637-.62348,1.48475-.62576,2.24248h2.23226c-.00227-.26621.09443-.67807.37318-1.21167l.00114-.00229.00114-.00226c.39707-.78165.64965-1.48819.65648-2.23682.00115-.66672-.29922-1.26632-.7054-1.7294l-.02162-.02389.02162.02389c-.23438-.26735-.5063-.47898-.81577-.67352l-.5939.94546.89881.66217.56546-.76685-.89768-.66332-.72019.8522c.2833.24006.51995.48238.71223.72474l.00455.00569.00341.00455c.16839.21617.24348.40957.24917.75317.01365.09899-.1058.603-.4733,1.28795l.00341-.00569c-.35156.67807-.58708,1.29247-.59504,1.97852,0,.32086.04437.64512.15928.96025.11377.31402.30605.61439.55636.84876l-.00682-.00681c.15473.14902.29581.27419.44713.38683.16156.11034.29582.22756.6451.31857l.24689-1.08768-.98301-.52905-.43348.8055.98301.52905.5848-.95116c-.20821-.12743-.42438-.31742-.64738-.59276l-.00114-.00226h-.00114c-.16042-.20937-.21048-.35499-.21731-.60189h-1.11612"></path><path class="cls-8" d="M88.15348,202.79349c0,.50974.21958.96484.65989,1.36646.40845.37544.84876.67012,1.31979.88404l.61211-.84307c-.15587-.02733-.42324-.17409-.80098-.44259-.34474-.24121-.51881-.58936-.51881-1.04445,0-.40277.22072-.91133.6599-1.52687.5666-.80439.84875-1.43357.84875-1.88981,0-.58821-.23551-1.09792-.70654-1.52683-.34588-.32086-.75433-.62918-1.22536-.92386l-.80211.80324c.34588.16156.61325.32201.80211.48242.40845.34815.61211.69745.61211,1.04445,0,.48242-.25144,1.08542-.75433,1.80901-.47103.67012-.70654,1.27316-.70654,1.80787"></path><path class="cls-8" d="M91.37786,202.79349c0,.50974.22071.96484.65989,1.36646.40845.37544.84876.67012,1.31979.88404l.61325-.84307c-.15701-.02733-.42438-.17409-.80098-.44259-.34588-.24121-.51881-.58936-.51881-1.04445,0-.40277.21959-.91133.6599-1.52687.56546-.80439.84876-1.43357.84876-1.88981,0-.58821-.23665-1.09792-.70768-1.52683-.34474-.32086-.75433-.62918-1.22536-.92386l-.80097.80324c.34587.16156.6121.32201.80097.48242.40845.34815.61325.69745.61325,1.04445,0,.48242-.25144,1.08542-.75433,1.80901-.47217.67012-.70767,1.27316-.70767,1.80787"></path><path class="cls-7" d="M379.39182,89.48407c17.05597,0,30.88414-7.07335,30.88414-15.79875s-13.82817-15.79875-30.88414-15.79875c-17.05712,0-30.88532,7.07335-30.88532,15.79875s13.82821,15.79875,30.88532,15.79875"></path><path class="cls-9" d="M379.39182,89.48407v.6497c8.61842-.00229,16.42564-1.78176,22.13372-4.6989,2.85347-1.46086,5.18472-3.20735,6.82308-5.18583,1.63607-1.97627,2.57698-4.20628,2.57587-6.56371.00111-2.35737-.9398-4.58738-2.57587-6.56364-2.45868-2.96728-6.47149-5.4168-11.47761-7.15071-5.00723-1.73058-11.01564-2.73173-17.47919-2.73291-8.6196.00118-16.42682,1.78058-22.1349,4.69779-2.85347,1.46086-5.18583,3.20728-6.82308,5.18583-1.63607,1.97627-2.57698,4.20628-2.57583,6.56364-.00115,2.35744.93977,4.58745,2.57583,6.56371,2.45868,2.96721,6.47153,5.4168,11.47761,7.15071,5.00723,1.73051,11.01568,2.73284,17.48037,2.73402v-1.29816c-8.4387.00111-16.07298-1.75558-21.54328-4.55557-2.73628-1.39941-4.92643-3.05714-6.41462-4.85932-1.4893-1.80447-2.27661-3.73066-2.27775-5.7354.00115-2.00585.78845-3.93205,2.27775-5.73651,2.23001-2.70215,6.04942-5.0766,10.9019-6.75024,4.85022-1.67704,10.72669-2.66347,17.056-2.66236,8.43752-.00222,16.07179,1.7544,21.5421,4.55557,2.73628,1.3983,4.92643,3.05714,6.41462,4.85702,1.4893,1.80447,2.27664,3.73066,2.27775,5.73651-.00111,2.00474-.78845,3.93094-2.27775,5.7354-2.22998,2.70444-6.04942,5.07778-10.9019,6.75142-4.85022,1.67704-10.72669,2.66458-17.05482,2.66347v.64845"></path><text class="cls-19" transform="translate(359.41675 78.61184)"><tspan x="0" y="0">New</tspan></text><g><g><path class="cls-24" d="M373.5474,104.01622l-3.61827,4.6661h-5.39007v13.32465h-5.58973v-13.32465h-7.41105l3.59312-4.6661h18.41602Z"></path><path class="cls-24" d="M380.53398,122.00698h-5.56458v-17.99075h5.56458v17.99075Z"></path><path class="cls-24" d="M405.13242,119.6865c0,1.63031-.74048,2.44546-2.22064,2.44546-1.06512,0-2.07994-.39932-3.04444-1.19797l-10.53018-8.80868v9.88167h-5.58973v-15.67028c0-.66501.21224-1.21448.63672-1.64681.42369-.43234,1.02661-.64929,1.80874-.64929,1.01481,0,1.95495.35845,2.81963,1.07298l10.53018,8.80868v-9.90604h5.58973v15.67028Z"></path><path class="cls-24" d="M433.75554,104.01622l-10.67953,12.02685v5.9639h-5.58973v-5.98906l-11.00417-12.0017h7.13672l6.73739,7.31122,6.28776-7.31122h7.11156Z"></path></g><g><path class="cls-24" d="M469.60892,117.36603l-3.59312,4.64095h-9.03271c-3.12777,0-5.71865-.86939-7.77343-2.60739s-3.08139-3.9217-3.08139-6.55031,1.01481-4.75729,3.04444-6.38759c2.02884-1.63031,4.6323-2.44546,7.81038-2.44546h12.62583l-3.59312,4.6661h-9.03271c-1.53126,0-2.79526.4119-3.79278,1.23491-.99831.8238-1.49746,1.87556-1.49746,3.15685,0,1.264.49915,2.29532,1.49746,3.09397.99752.79865,2.26152,1.19797,3.79278,1.19797h12.62583Z"></path><path class="cls-24" d="M494.80634,113.82243c0,5.45689-3.74326,8.18455-11.22899,8.18455h-1.17281c-7.48573,0-11.22899-2.72766-11.22899-8.18455v-9.80621h5.56458v9.80621c0,1.63031.71532,2.67892,2.14597,3.14427.76484.26648,2.32912.39932,4.69126.39932,1.87949,0,3.21895-.19966,4.0176-.59898,1.08084-.51566,1.62166-1.49746,1.62166-2.94461v-9.80621h5.58973v9.80621Z"></path><path class="cls-24" d="M517.92305,104.01622l-3.61827,4.6661h-5.39007v13.32465h-5.58973v-13.32465h-7.41105l3.59312-4.6661h18.41602Z"></path></g><path class="cls-25" d="M443.84316,121.88985h-8.23289v-27.01403h8.23289v27.01403Z"></path><g><path class="cls-26" d="M454.1721,100.06505c0,.47361-.21538.70982-.64536.70982-.30892,0-.6037-.11555-.88354-.34744l-3.05702-2.55747v2.86876h-1.62245v-4.54937c0-.19298.06131-.35255.18473-.47832.12263-.12538.29792-.18826.52509-.18826.29399,0,.56754.10415.8183.31168l3.05702,2.55708v-2.87583h1.62323v4.54937Z"></path><path class="cls-26" d="M463.91856,95.51568l-1.05097,1.35479h-1.56428v3.86824h-1.62323v-3.86824h-2.15147l1.04311-1.35479h5.34684Z"></path><path class="cls-26" d="M472.84909,99.39139l-1.04311,1.34732h-4.62916v-5.22303h5.67227l-1.04311,1.35479h-3.00593v.55025h3.79593l-1.04311,1.34771h-2.75281v.62296h4.04904Z"></path><path class="cls-26" d="M483.98218,100.73871h-2.35428l-1.57921-1.31116h-2.23165v1.31116h-1.62245v-2.66595h4.50575c.27512,0,.5023-.04088.68074-.12302.22717-.10612.34115-.26333.34115-.47086,0-.40561-.34115-.60842-1.02189-.60842h-4.50575l1.05726-1.35479h3.29677c.81594,0,1.47781.15446,1.98482.46339.5699.35294.85446.85485.85446,1.50689,0,.36709-.11477.69921-.34351.99634-.22953.29674-.5471.52509-.95272.68467l1.89049,1.57174Z"></path><path class="cls-26" d="M493.70113,100.06505c0,.47361-.21538.70982-.64536.70982-.30892,0-.6037-.11555-.88354-.34744l-3.05702-2.55747v2.86876h-1.62245v-4.54937c0-.19298.06131-.35255.18473-.47832.12263-.12538.29792-.18826.52509-.18826.29399,0,.56754.10415.8183.31168l3.05702,2.55708v-2.87583h1.62323v4.54937Z"></path><path class="cls-26" d="M499.55498,100.73871l.97786-1.35479h2.18056l-1.35518-1.87595-2.35428,3.23074h-2.00683l3.34708-4.6437c.10612-.15446.2539-.28967.44177-.40561.20831-.12538.40876-.18826.60134-.18826.19809,0,.39854.06289.60134.18826.17922.11123.32386.24643.4347.40561l3.26769,4.6437h-6.13605Z"></path><path class="cls-26" d="M514.55317,99.39139l-1.05019,1.34732h-4.61422v-5.22303h1.61537v3.87571h4.04904Z"></path></g></g></svg> 