<?xml version="1.0" encoding="UTF-8"?> <svg xmlns="http://www.w3.org/2000/svg" xmlns:xlink="http://www.w3.org/1999/xlink" id="_レイヤー_1" data-name="レイヤー 1" viewBox="0 0 600 250"><defs><style> .cls-1 { fill: #9fa0a0; } .cls-1, .cls-2, .cls-3 { stroke: #231815; } .cls-1, .cls-3 { stroke-width: .14543px; } .cls-4 { fill: url(#_名称未設定グラデーション_2); } .cls-4, .cls-5, .cls-6, .cls-7, .cls-8, .cls-9, .cls-10, .cls-11, .cls-12, .cls-13, .cls-14, .cls-15 { stroke-width: 0px; } .cls-16 { letter-spacing: .02393em; } .cls-17 { letter-spacing: -.00006em; } .cls-2 { stroke-width: .15665px; } .cls-2, .cls-3 { fill: #c81432; } .cls-18 { letter-spacing: 1.76602em; } .cls-19 { letter-spacing: .02515em; } .cls-20 { clip-path: url(#clippath-2); } .cls-21 { letter-spacing: 1.63998em; } .cls-22 { clip-path: url(#clippath-6); } .cls-5 { fill: #ffd200; } .cls-6, .cls-23, .cls-24, .cls-25, .cls-26, .cls-27, .cls-28 { fill: none; } .cls-29 { clip-path: url(#clippath-7); } .cls-30 { letter-spacing: .02405em; } .cls-31 { letter-spacing: .00598em; } .cls-32 { clip-path: url(#clippath-1); } .cls-33 { clip-path: url(#clippath-4); } .cls-23, .cls-24, .cls-25, .cls-26, .cls-27, .cls-28 { stroke: #130700; } .cls-23, .cls-25, .cls-28 { stroke-width: .408px; } .cls-23, .cls-27 { stroke-linecap: round; stroke-linejoin: round; } .cls-34 { letter-spacing: 1.64004em; } .cls-7 { fill: #dadadb; } .cls-35 { letter-spacing: 1.34997em; } .cls-8 { fill: #c30839; } .cls-9 { fill: #130700; } .cls-36 { letter-spacing: 1.64101em; } .cls-37 { letter-spacing: .0249em; } .cls-24, .cls-26, .cls-27 { stroke-width: .505px; } .cls-24, .cls-28 { stroke-miterlimit: 2; } .cls-10, .cls-38 { fill: #231815; } .cls-39 { letter-spacing: .00604em; } .cls-40 { letter-spacing: 1.516em; } .cls-11 { fill: #3f75bc; } .cls-12 { fill: url(#_名称未設定グラデーション_3); } .cls-41 { letter-spacing: .02503em; } .cls-42 { letter-spacing: 1.51503em; } .cls-43 { letter-spacing: 1.76505em; } .cls-44 { clip-path: url(#clippath); } .cls-45 { letter-spacing: 1.35003em; } .cls-13 { fill: #cc0638; } .cls-46 { clip-path: url(#clippath-3); } .cls-47 { letter-spacing: .98702em; } .cls-14 { fill: #fff; } .cls-38 { font-family: HelveticaNeueLTW1G-Roman, 'Helvetica Neue LT W1G'; font-size: 7.9993px; } .cls-48 { letter-spacing: .02497em; } .cls-49 { clip-path: url(#clippath-5); } .cls-50 { letter-spacing: .02399em; } .cls-15 { fill: #777; } </style><clipPath id="clippath"><rect class="cls-6" x="59.20752" y="30.46945" width="21.26" height="21.237"></rect></clipPath><clipPath id="clippath-1"><path class="cls-6" d="M59.20752,41.08947c0,5.86899,4.776,10.61697,10.617,10.61697,5.87099,0,10.643-4.74799,10.643-10.61697,0-5.87201-4.772-10.62003-10.643-10.62003-5.841,0-10.617,4.74802-10.617,10.62003"></path></clipPath><radialGradient id="_名称未設定グラデーション_3" data-name="名称未設定グラデーション 3" cx="36.97054" cy="672.39651" fx="36.97054" fy="672.39651" r="1.00002" gradientTransform="translate(7213.37773 433.863) rotate(-90) scale(10.624 -10.624)" gradientUnits="userSpaceOnUse"><stop offset="0" stop-color="#fff"></stop><stop offset=".06024" stop-color="#e5e4e4"></stop><stop offset=".1576" stop-color="#c1c1c1"></stop><stop offset=".26071" stop-color="#a4a4a4"></stop><stop offset=".36972" stop-color="#8e8d8d"></stop><stop offset=".48737" stop-color="#7e7d7d"></stop><stop offset=".61972" stop-color="#747373"></stop><stop offset=".79775" stop-color="#727171"></stop><stop offset="1" stop-color="#3e3a39"></stop></radialGradient><clipPath id="clippath-2"><rect class="cls-6" x="336.24351" y="17.34945" width="66.02798" height="39.17401"></rect></clipPath><clipPath id="clippath-3"><path class="cls-6" d="M385.43452,17.34945v1.62201c0,1.28601-1.03299,2.319-2.319,2.319h-22.98199c-2.371.047-4.776.215-7.12701,0h-15.603v21.88699c0,.12701-.022.25302-.06198.35901-.035.15201-.13901.284-.254.40298l-.444.48401v.06201l-.27402.991c.064,1.79099.08499,3.58398.021,5.37601l-.12598,5.18597c-.02103.255.16898.466.44299.48502h6.052c.25299,0,.44199-.23001.44199-.48502l-.10599-4.29898c-.06302-1.83401-.04102-3.64801.022-5.48199,0-.25302.021-.48502.04199-.74002l.021-.08298h.655l4.95502-.043v-1.62302l.125-.19.27499-.21201.06299-.01898v2.508h.77899c3.67001-.27701,7.41202-.48502,11.07101.04199h22.01199c1.28601,0,2.319,1.034,2.319,2.319v1.625h16.83701V17.34945"></path></clipPath><clipPath id="clippath-4"><rect class="cls-6" x="334.24653" y="15.51345" width="56.68799" height="56.009"></rect></clipPath><linearGradient id="_名称未設定グラデーション_2" data-name="名称未設定グラデーション 2" x1="-4.94115" y1="671.02467" x2="-3.94115" y2="671.02467" gradientTransform="translate(-25925.47113 210.92302) rotate(90) scale(39.176 -39.176)" gradientUnits="userSpaceOnUse"><stop offset="0" stop-color="#b5b5b6"></stop><stop offset=".07045" stop-color="#c2c2c2"></stop><stop offset=".18259" stop-color="#d0d0d1"></stop><stop offset=".27528" stop-color="#d6d6d6"></stop><stop offset=".53371" stop-color="#dcdddd"></stop><stop offset=".63392" stop-color="#d6d7d7"></stop><stop offset=".76283" stop-color="#c6c7c7"></stop><stop offset=".9068" stop-color="#acadad"></stop><stop offset=".96629" stop-color="#9fa0a0"></stop><stop offset="1" stop-color="#9fa0a0"></stop></linearGradient><clipPath id="clippath-5"><rect class="cls-6" x="334.24653" y="15.51345" width="56.68799" height="56.009"></rect></clipPath><clipPath id="clippath-6"><rect class="cls-6" x="334.24653" y="15.51345" width="56.68799" height="56.009"></rect></clipPath><clipPath id="clippath-7"><rect class="cls-6" x="334.24653" y="15.51345" width="56.68799" height="56.009"></rect></clipPath></defs><rect class="cls-14" width="600" height="250"></rect><rect class="cls-15" x="78.08252" y="179.99247" width="200.624" height=".22699"></rect><rect class="cls-15" x="78.08252" y="142.25047" width="200.624" height=".22699"></rect><rect class="cls-15" x="78.08252" y="161.12147" width="200.624" height=".22699"></rect><rect class="cls-15" x="78.08252" y="123.37945" width="200.624" height=".22701"></rect><rect class="cls-15" x="78.08252" y="104.50848" width="200.624" height=".22699"></rect><rect class="cls-15" x="118.18552" y="85.64546" width=".22701" height="113.174"></rect><rect class="cls-15" x="98.03152" y="85.64546" width=".22688" height="113.174"></rect><polyline class="cls-15" points="278.70652 198.97746 278.70652 199.09047 77.96851 199.09047 77.96851 85.63847 278.8205 85.63847 278.8205 199.09047 278.70652 199.09047 278.70652 198.97746 278.59351 198.97746 278.59351 85.86546 78.19552 85.86546 78.19552 198.86346 278.70652 198.86346 278.70652 198.97746 278.59351 198.97746 278.70652 198.97746"></polyline><rect class="cls-15" x="137.99552" y="85.64546" width=".22701" height="113.174"></rect><rect class="cls-15" x="158.32152" y="85.64546" width=".22699" height="113.174"></rect><rect class="cls-15" x="178.47652" y="85.64546" width=".22701" height="113.174"></rect><rect class="cls-15" x="198.63052" y="85.64546" width=".22701" height="113.174"></rect><rect class="cls-15" x="218.95652" y="85.64546" width=".22699" height="113.174"></rect><rect class="cls-15" x="239.28352" y="85.64546" width=".22701" height="113.174"></rect><rect class="cls-15" x="259.60953" y="85.64546" width=".22699" height="113.174"></rect><path class="cls-11" d="M78.81052,141.65646l19.869,15.10301,19.651,7.78699,19.54499-4.056,20.48201-24.95099c.088-.10701.22099-.168.35899-.166.13701.002.26801.06799.35201.177l19.38,25.23199,19.96599-42.672c.06201-.13301.18401-.22701.32901-.254.145-.026.293.01799.39799.12099l19.884,19.311,20.231-16.78c.097-.08099.22101-.117.347-.101l20.582,2.62.00598.00101,18.71301,2.619-.12601.899-18.711-2.619-20.383-2.595-20.39299,16.91499c-.17801.14801-.44.138-.606-.024l-19.71901-19.151-20.01199,42.77101c-.067.14299-.205.241-.362.25899-.157.01701-.313-.04999-.409-.17499l-19.487-25.37001-20.22,24.632c-.06601.08-.158.136-.259.157l-19.836,4.117-.259-.02299-19.835-7.86-.107-.06-19.919-15.14101.549-.72301"></path><path class="cls-8" d="M78.53552,141.56346h59.895l19.95-1.81299.041-.002h19.972l.04201.002,19.95,1.81299h19.931l19.92299-1.81099,21.29498-4.644.207.00299,18.621,4.65001c.242.06099.39001.30699.33102.55099-.06201.243-.30801.39101-.55103.33l-18.51898-4.625-21.218,4.62799-.056.009-19.972,1.815-.041.002h-19.96999l-.041-.002-19.95201-1.813h-19.92999l-19.952,1.813-.041.002h-59.915c-.25101,0-.454-.203-.454-.45399,0-.25.203-.45401.454-.45401"></path><path class="cls-8" d="M99.86552,141.41847c0,1.06601-.86401,1.93001-1.93,1.93001s-1.93-.864-1.93-1.93001.864-1.92999,1.93-1.92999,1.93.864,1.93,1.92999"></path><path class="cls-8" d="M120.07852,141.54947c0,1.06601-.86401,1.93001-1.93,1.93001s-1.93-.864-1.93-1.93001c0-1.06499.864-1.92999,1.93-1.92999s1.93.86501,1.93,1.92999"></path><path class="cls-8" d="M139.95452,141.21446c0,1.06601-.86401,1.93001-1.93001,1.93001-1.065,0-1.92999-.864-1.92999-1.93001s.86499-1.92999,1.92999-1.92999c1.06599,0,1.93001.864,1.93001,1.92999"></path><path class="cls-8" d="M160.30352,139.72847c0,1.065-.86401,1.93001-1.93001,1.93001s-1.92999-.86501-1.92999-1.93001c0-1.06599.864-1.92999,1.92999-1.92999s1.93001.864,1.93001,1.92999"></path><path class="cls-8" d="M180.65153,140.00647c0,1.06601-.86401,1.93001-1.93001,1.93001-1.065,0-1.92999-.864-1.92999-1.93001s.86499-1.92999,1.92999-1.92999c1.06599,0,1.93001.864,1.93001,1.92999"></path><path class="cls-8" d="M200.53551,141.58647c0,1.06601-.86401,1.93001-1.93001,1.93001s-1.92999-.864-1.92999-1.93001.864-1.92999,1.92999-1.92999,1.93001.864,1.93001,1.92999"></path><path class="cls-8" d="M220.67452,141.74147c0,1.06601-.86501,1.93001-1.93001,1.93001-1.06599,0-1.92999-.864-1.92999-1.93001s.864-1.92999,1.92999-1.92999c1.065,0,1.93001.864,1.93001,1.92999"></path><path class="cls-8" d="M241.19852,139.89546c0,1.06601-.86401,1.93001-1.93001,1.93001-1.065,0-1.92999-.864-1.92999-1.93001s.86499-1.92999,1.92999-1.92999c1.06599,0,1.93001.864,1.93001,1.92999"></path><path class="cls-8" d="M261.72352,135.11746c0,1.065-.86401,1.93001-1.93002,1.93001s-1.92999-.86501-1.92999-1.93001c0-1.06599.86401-1.92999,1.92999-1.92999s1.93002.864,1.93002,1.92999"></path><path class="cls-8" d="M280.51951,140.40347c0,1.065-.86401,1.93001-1.93002,1.93001s-1.92999-.86501-1.92999-1.93001c0-1.06599.86401-1.92999,1.92999-1.92999s1.93002.864,1.93002,1.92999"></path><path class="cls-11" d="M79.66952,141.86447c0,1.06601-.86401,1.93001-1.93,1.93001s-1.93-.864-1.93-1.93001c0-1.06499.864-1.92999,1.93-1.92999s1.93.86501,1.93,1.92999"></path><path class="cls-11" d="M99.88152,156.55546c0,1.06601-.86401,1.93001-1.93,1.93001-1.065,0-1.93-.864-1.93-1.93001s.865-1.92999,1.93-1.92999c1.06599,0,1.93.864,1.93,1.92999"></path><path class="cls-11" d="M120.23552,165.01846c0,1.06601-.86401,1.93001-1.93,1.93001-1.065,0-1.93-.864-1.93-1.93001s.865-1.92999,1.93-1.92999c1.06599,0,1.93.864,1.93,1.92999"></path><path class="cls-11" d="M139.93153,160.87947c0,1.065-.86401,1.93001-1.93001,1.93001s-1.92999-.86501-1.92999-1.93001c0-1.06599.864-1.92999,1.92999-1.92999s1.93001.864,1.93001,1.92999"></path><path class="cls-11" d="M160.38853,135.37346c0,1.065-.86401,1.93001-1.93001,1.93001s-1.92999-.86501-1.92999-1.93001c0-1.06599.864-1.92999,1.92999-1.92999s1.93001.864,1.93001,1.92999"></path><path class="cls-11" d="M180.55152,161.24746c0,1.06601-.86401,1.93001-1.93001,1.93001s-1.92999-.864-1.92999-1.93001c0-1.06499.864-1.92999,1.92999-1.92999s1.93001.86501,1.93001,1.92999"></path><path class="cls-11" d="M200.81052,118.42346c0,1.06601-.86501,1.93001-1.93001,1.93001-1.06599,0-1.92999-.864-1.92999-1.93001,0-1.06499.864-1.92999,1.92999-1.92999,1.065,0,1.93001.86501,1.93001,1.92999"></path><path class="cls-11" d="M220.78152,137.00346c0,1.06601-.86401,1.93001-1.93001,1.93001-1.065,0-1.92999-.864-1.92999-1.93001s.86499-1.92999,1.92999-1.92999c1.06599,0,1.93001.864,1.93001,1.92999"></path><path class="cls-11" d="M241.91352,120.09747c0,1.06601-.86401,1.93001-1.93001,1.93001s-1.92999-.864-1.92999-1.93001c0-1.06499.864-1.92999,1.92999-1.92999s1.93001.86501,1.93001,1.92999"></path><path class="cls-11" d="M261.77351,123.06646c0,1.06601-.86401,1.93001-1.93002,1.93001s-1.92999-.864-1.92999-1.93001.86401-1.92999,1.92999-1.92999,1.93002.864,1.93002,1.92999"></path><path class="cls-11" d="M280.51951,126.49147c0,1.06601-.86401,1.93001-1.93002,1.93001s-1.92999-.864-1.92999-1.93001.86401-1.92999,1.92999-1.92999,1.93002.864,1.93002,1.92999"></path><path class="cls-8" d="M79.66952,141.92247c0,1.065-.86401,1.93001-1.93,1.93001s-1.93-.86501-1.93-1.93001c0-1.06599.864-1.92999,1.93-1.92999s1.93.864,1.93,1.92999"></path><rect class="cls-11" x="197.59151" y="77.81843" width="17.08501" height=".90804"></rect><path class="cls-11" d="M208.16051,78.07946c0,1.06601-.86401,1.93001-1.93001,1.93001-1.065,0-1.92999-.864-1.92999-1.93001s.86499-1.92999,1.92999-1.92999c1.06599,0,1.93001.864,1.93001,1.92999"></path><path class="cls-8" d="M197.59151,66.23547h17.08499c.25101,0,.45399.203.45399.45401,0,.25099-.20299.45399-.45399.45399h-17.08499c-.25101,0-.45401-.203-.45401-.45399,0-.25101.203-.45401.45401-.45401"></path><path class="cls-8" d="M208.16051,66.49646c0,1.06601-.86401,1.93001-1.93001,1.93001-1.065,0-1.92999-.864-1.92999-1.93001s.86499-1.92999,1.92999-1.92999c1.06599,0,1.93001.86401,1.93001,1.92999"></path><text class="cls-38" transform="translate(65.80854 87.69119)"><tspan class="cls-50" x="0" y="0">1</tspan><tspan x="4.63965" y="0">5</tspan></text><text class="cls-38" transform="translate(65.80854 106.52518)"><tspan class="cls-50" x="0" y="0">1</tspan><tspan x="4.63965" y="0">0</tspan></text><text class="cls-38" transform="translate(70.456 125.35721)"><tspan x="0" y="0">5</tspan></text><text class="cls-38" transform="translate(70.456 144.19022)"><tspan x="0" y="0">0</tspan></text><text class="cls-38" transform="translate(67.14448 163.02322)"><tspan class="cls-48" x="0" y="0">-</tspan><tspan x="3.31152" y="0">5</tspan></text><text class="cls-38" transform="translate(62.49653 181.85526)"><tspan class="cls-48" x="0" y="0">-</tspan><tspan class="cls-50" x="3.31152" y="0">1</tspan><tspan x="7.95117" y="0">0</tspan></text><text class="cls-38" transform="translate(62.49653 200.68826)"><tspan class="cls-48" x="0" y="0">-</tspan><tspan class="cls-50" x="3.31152" y="0">1</tspan><tspan x="7.95117" y="0">5</tspan></text><text class="cls-38" transform="translate(78.30512 209.56912)"><tspan class="cls-50" x="0" y="0">0</tspan><tspan class="cls-45" x="4.63965" y="0"> </tspan><tspan class="cls-50" x="17.6626" y="0">1</tspan><tspan class="cls-21" x="22.30225" y="0"> </tspan><tspan class="cls-50" x="37.64453" y="0">2</tspan><tspan class="cls-40" x="42.28418" y="0"> </tspan><tspan class="cls-50" x="56.63477" y="0">3</tspan><tspan class="cls-18" x="61.27441" y="0"> </tspan><tspan class="cls-50" x="77.625" y="0">4</tspan><tspan class="cls-34" x="82.26465" y="0"> </tspan><tspan class="cls-50" x="97.60742" y="0">5</tspan><tspan class="cls-36" x="102.24707" y="0"> </tspan><tspan class="cls-48" x="117.59766" y="0">6</tspan><tspan class="cls-18" x="122.24512" y="0"> </tspan><tspan class="cls-50" x="138.5957" y="0">7</tspan><tspan class="cls-36" x="143.23535" y="0"> </tspan><tspan class="cls-50" x="158.58594" y="0">8</tspan><tspan class="cls-18" x="163.22559" y="0"> </tspan><tspan class="cls-50" x="179.57617" y="0">9</tspan><tspan class="cls-47" x="184.21582" y="0"> </tspan><tspan class="cls-50" x="194.33496" y="0">1</tspan><tspan class="cls-17" x="198.97461" y="0">0</tspan></text><rect class="cls-15" x="347.11951" y="180.00547" width="200.59601" height=".22699"></rect><rect class="cls-15" x="347.11951" y="142.26848" width="200.59601" height=".22699"></rect><rect class="cls-15" x="347.11951" y="161.13748" width="200.59601" height=".22699"></rect><rect class="cls-15" x="347.11951" y="123.40048" width="200.59601" height=".22699"></rect><rect class="cls-15" x="347.11951" y="104.53241" width="200.59601" height=".22705"></rect><rect class="cls-15" x="387.21751" y="85.67147" width=".22702" height="113.15799"></rect><rect class="cls-15" x="367.06553" y="85.67147" width=".22699" height="113.15799"></rect><polyline class="cls-15" points="547.7165 198.98746 547.7165 199.10047 347.00648 199.10047 347.00648 85.66447 547.82947 85.66447 547.82947 199.10047 547.7165 199.10047 547.7165 198.98746 547.60248 198.98746 547.60248 85.89146 347.2335 85.89146 347.2335 198.87346 547.7165 198.87346 547.7165 198.98746 547.60248 198.98746 547.7165 198.98746"></polyline><rect class="cls-15" x="407.02451" y="85.67147" width=".22705" height="113.15799"></rect><rect class="cls-15" x="427.34751" y="85.67147" width=".22702" height="113.15799"></rect><rect class="cls-15" x="447.49952" y="85.67147" width=".22699" height="113.15799"></rect><rect class="cls-15" x="467.65052" y="85.67147" width=".22699" height="113.15799"></rect><rect class="cls-15" x="487.97452" y="85.67147" width=".22699" height="113.15799"></rect><rect class="cls-15" x="508.29853" y="85.67147" width=".22592" height="113.15799"></rect><rect class="cls-15" x="528.62153" y="85.67147" width=".22699" height="113.15799"></rect><path class="cls-11" d="M346.94651,141.79646l20.11298,29.63701,19.57202-59.521c.04898-.149.172-.26201.323-.29901l20.064-4.914c.10199-.02499.21201-.01399.306.03201l19.59399,9.49399,20.24802-17.211c.11697-.099.27399-.133.42099-.09s.26199.15601.30701.302l20.285,65.929,19.754-14.56599c.18698-.138.448-.11201.604.058l19.65399,21.45799,20.56998-34.283.05603-.073,18.63-20.26999.66895.61499-18.59998,20.235-20.85999,34.765c-.073.12201-.202.20401-.34399.218-.14099.01401-.28302-.03999-.38-.145l-19.78799-21.60599-19.94101,14.70399c-.11899.08699-.272.112-.41199.06599-.13901-.04599-.24802-.157-.29102-.298l-20.271-65.881-19.94901,16.95601c-.13599.11699-.32999.14099-.492.06299l-19.71201-9.55199-19.66098,4.81599-19.78201,60.158c-.05399.16499-.19598.284-.36798.308-.17203.024-.341-.05101-.43802-.19501l-20.633-30.401.75201-.509"></path><path class="cls-11" d="M348.64851,142.69146c0,1.06601-.86401,1.93001-1.92902,1.93001-1.06601,0-1.92999-.864-1.92999-1.93001,0-1.06499.86398-1.92999,1.92999-1.92999,1.065,0,1.92902.86501,1.92902,1.92999"></path><path class="cls-11" d="M368.94651,172.12947c0,1.06601-.86401,1.93001-1.93002,1.93001-1.065,0-1.92899-.864-1.92899-1.93001,0-1.06499.86398-1.92999,1.92899-1.92999,1.06601,0,1.93002.86501,1.93002,1.92999"></path><path class="cls-11" d="M389.19752,112.34546c0,1.06601-.86401,1.93001-1.93002,1.93001s-1.92999-.864-1.92999-1.93001c0-1.06499.86401-1.92899,1.92999-1.92899s1.93002.864,1.93002,1.92899"></path><path class="cls-11" d="M408.97251,107.01046c0,1.065-.86502,1.93001-1.93002,1.93001-1.06598,0-1.92999-.86501-1.92999-1.93001,0-1.06599.86401-1.92999,1.92999-1.92999,1.065,0,1.93002.864,1.93002,1.92999"></path><path class="cls-11" d="M448.88651,99.48646c0,1.065-.86502,1.93001-1.93002,1.93001-1.06598,0-1.92999-.86501-1.92999-1.93001,0-1.06599.86401-1.92999,1.92999-1.92999,1.065,0,1.93002.864,1.93002,1.92999"></path><path class="cls-11" d="M429.20551,116.11146c0,1.065-.86401,1.929-1.93002,1.929s-1.92999-.864-1.92999-1.929c0-1.06599.86401-1.92999,1.92999-1.92999s1.93002.864,1.93002,1.92999"></path><path class="cls-11" d="M469.91453,165.17946c0,1.06601-.86401,1.93001-1.93002,1.93001s-1.92999-.864-1.92999-1.93001c0-1.06499.86401-1.92899,1.92999-1.92899s1.93002.864,1.93002,1.92899"></path><path class="cls-11" d="M489.89551,150.91746c0,1.065-.86401,1.93001-1.92902,1.93001-1.06601,0-1.92999-.86501-1.92999-1.93001,0-1.06599.86398-1.92999,1.92999-1.92999,1.065,0,1.92902.864,1.92902,1.92999"></path><path class="cls-11" d="M510.11051,172.55946c0,1.06601-.86401,1.93001-1.93002,1.93001-1.065,0-1.92899-.864-1.92899-1.93001s.86398-1.92999,1.92899-1.92999c1.06601,0,1.93002.864,1.93002,1.92999"></path><path class="cls-11" d="M549.08253,118.34846c0,1.06601-.86401,1.93001-1.93005,1.93001-1.065,0-1.92896-.864-1.92896-1.93001,0-1.06499.86395-1.92899,1.92896-1.92899,1.06604,0,1.93005.864,1.93005,1.92899"></path><path class="cls-13" d="M348.70652,141.94046c0,1.065-.86401,1.93001-1.93002,1.93001-1.065,0-1.92899-.86501-1.92899-1.93001,0-1.06599.86398-1.92999,1.92899-1.92999,1.06601,0,1.93002.864,1.93002,1.92999"></path><path class="cls-13" d="M368.90052,135.86146c0,1.06601-.86502,1.93001-1.93002,1.93001-1.06598,0-1.92999-.864-1.92999-1.93001s.86401-1.92999,1.92999-1.92999c1.065,0,1.93002.864,1.93002,1.92999"></path><path class="cls-13" d="M389.10953,131.11346c0,1.065-.86401,1.929-1.92902,1.929-1.06601,0-1.92999-.864-1.92999-1.929,0-1.06599.86398-1.92999,1.92999-1.92999,1.065,0,1.92902.864,1.92902,1.92999"></path><path class="cls-13" d="M409.12852,136.01446c0,1.06601-.86401,1.93001-1.93002,1.93001-1.065,0-1.92899-.864-1.92899-1.93001s.86398-1.92999,1.92899-1.92999c1.06601,0,1.93002.864,1.93002,1.92999"></path><path class="cls-13" d="M429.40153,123.26646c0,1.06601-.86401,1.93001-1.93002,1.93001-1.065,0-1.92899-.864-1.92899-1.93001,0-1.06499.86398-1.92899,1.92899-1.92899,1.06601,0,1.93002.864,1.93002,1.92899"></path><path class="cls-13" d="M449.53052,125.79147c0,1.06601-.86502,1.93001-1.93002,1.93001-1.06598,0-1.92999-.864-1.92999-1.93001,0-1.06499.86401-1.92899,1.92999-1.92899,1.065,0,1.93002.864,1.93002,1.92899"></path><path class="cls-13" d="M469.62852,125.45446c0,1.06601-.86401,1.93001-1.93002,1.93001s-1.92999-.864-1.92999-1.93001c0-1.06499.86401-1.92899,1.92999-1.92899s1.93002.864,1.93002,1.92899"></path><path class="cls-13" d="M490.18452,130.57347c0,1.06601-.86401,1.93001-1.93002,1.93001s-1.92999-.864-1.92999-1.93001.86401-1.92999,1.92999-1.92999,1.93002.864,1.93002,1.92999"></path><path class="cls-13" d="M510.28553,126.99746c0,1.06601-.86401,1.93001-1.92902,1.93001-1.06601,0-1.92999-.864-1.92999-1.93001,0-1.06499.86398-1.92899,1.92999-1.92899,1.065,0,1.92902.864,1.92902,1.92899"></path><path class="cls-13" d="M530.59052,118.54547c0,1.06601-.86401,1.93001-1.93005,1.93001-1.065,0-1.92999-.864-1.92999-1.93001,0-1.06499.86499-1.92899,1.92999-1.92899,1.06604,0,1.93005.864,1.93005,1.92899"></path><path class="cls-13" d="M549.52851,139.13746c0,1.06601-.86401,1.93001-1.93005,1.93001-1.065,0-1.92999-.864-1.92999-1.93001s.86499-1.92999,1.92999-1.92999c1.06604,0,1.93005.864,1.93005,1.92999"></path><polyline class="cls-13" points="346.97852 141.95047 366.9925 135.40948 387.18452 130.59747 406.97651 135.69548 427.0825 122.84547 447.28352 125.11348 467.58152 125.31848 487.80952 130.22148 507.93452 126.76648 528.86249 117.85548 546.76649 137.81248 546.09052 138.41847 528.62049 118.94548 508.19251 127.64348 487.77851 131.14848 467.46851 126.22548 447.22852 126.02047 427.30051 123.78347 407.13251 136.67247 387.17551 131.53347 367.2385 136.28347 347.2605 142.81347 346.97852 141.95047"></polyline><rect class="cls-11" x="466.61253" y="77.84549" width="17.082" height=".90797"></rect><path class="cls-11" d="M477.17951,78.10646c0,1.06601-.86401,1.93001-1.92902,1.93001-1.06601,0-1.92999-.864-1.92999-1.93001,0-1.06499.86398-1.92899,1.92999-1.92899,1.065,0,1.92902.864,1.92902,1.92899"></path><path class="cls-8" d="M466.61253,66.26446h17.082c.25098,0,.45398.203.45398.45401,0,.25-.203.45399-.45398.45399h-17.082c-.25101,0-.45401-.20399-.45401-.45399,0-.25101.203-.45401.45401-.45401"></path><path class="cls-8" d="M477.17951,66.52546c0,1.065-.86401,1.93001-1.92902,1.93001-1.06601,0-1.92999-.86501-1.92999-1.93001,0-1.06599.86398-1.92998,1.92999-1.92998,1.065,0,1.92902.86398,1.92902,1.92998"></path><text class="cls-38" transform="translate(346.36665 209.56912)"><tspan class="cls-30" x="0" y="0">0</tspan><tspan class="cls-35" x="4.63965" y="0"> </tspan><tspan class="cls-41" x="17.66211" y="0">1</tspan><tspan class="cls-34" x="22.30957" y="0"> </tspan><tspan class="cls-30" x="37.65234" y="0">2</tspan><tspan class="cls-42" x="42.29199" y="0"> </tspan><tspan class="cls-41" x="56.63477" y="0">3</tspan><tspan class="cls-43" x="61.28223" y="0"> </tspan><tspan class="cls-30" x="77.625" y="0">4</tspan><tspan class="cls-36" x="82.26465" y="0"> </tspan><tspan class="cls-30" x="97.61523" y="0">5</tspan><tspan class="cls-34" x="102.25488" y="0"> </tspan><tspan class="cls-30" x="117.59766" y="0">6</tspan><tspan class="cls-18" x="122.2373" y="0"> </tspan><tspan class="cls-30" x="138.58789" y="0">7</tspan><tspan class="cls-36" x="143.22754" y="0"> </tspan><tspan class="cls-30" x="158.57812" y="0">8</tspan><tspan class="cls-18" x="163.21777" y="0"> </tspan><tspan class="cls-30" x="179.56836" y="0">9</tspan><tspan class="cls-47" x="184.20801" y="0"> </tspan><tspan class="cls-30" x="194.32715" y="0">1</tspan><tspan x="198.9668" y="0">0</tspan></text><text class="cls-38" transform="translate(334.50727 87.69022)"><tspan class="cls-30" x="0" y="0">1</tspan><tspan x="4.63965" y="0">5</tspan></text><text class="cls-38" transform="translate(334.50727 106.5242)"><tspan class="cls-30" x="0" y="0">1</tspan><tspan x="4.63965" y="0">0</tspan></text><text class="cls-38" transform="translate(339.15571 125.35721)"><tspan x="0" y="0">5</tspan></text><text class="cls-38" transform="translate(339.15571 144.18924)"><tspan x="0" y="0">0</tspan></text><text class="cls-38" transform="translate(335.84418 163.02225)"><tspan class="cls-41" x="0" y="0">-</tspan><tspan x="3.31152" y="0">5</tspan></text><text class="cls-38" transform="translate(331.1977 181.85428)"><tspan class="cls-41" x="0" y="0">-</tspan><tspan class="cls-30" x="3.31152" y="0">1</tspan><tspan x="7.95117" y="0">0</tspan></text><text class="cls-38" transform="translate(331.1977 200.68729)"><tspan class="cls-41" x="0" y="0">-</tspan><tspan class="cls-30" x="3.31152" y="0">1</tspan><tspan x="7.95117" y="0">5</tspan></text><path class="cls-7" d="M49.81652,36.99246c-.992,11.06201,7.174,20.81802,18.23399,21.80801.60001.05301,1.174.07901,1.774.07901,3.732.026,7.409-1.01602,10.593-3,1.487-.41602,2.869-1.121,4.095-2.11301.992-.80899,2.14-1.435,3.39-1.827,2.74-.86099,5.193-2.39801,7.175-4.45901h.02599c.234-.263.495-.52298.731-.81.313-.36398.6-.729.887-1.121l.051-.10498,1.018-3.78302.418-2.86899-.6.15601-5.321,1.43698-.106.02402c-.781.20999-1.565.26199-2.321.18399.99-11.06201-7.174-20.81799-18.236-21.80801-11.033-.99197-20.816,7.14603-21.808,18.207"></path><path class="cls-5" d="M65.68352,26.41147c-8.088,2.26901-12.809,10.67001-10.538,18.75803.86,3.103,2.685,5.84299,5.216,7.82498l1.801,1.43402c1.513,1.19998,3.39,1.853,5.347,1.853h9.757c2.60799,0,5.16399-.88702,7.201-2.53,1.016-.81,2.163-1.43402,3.39-1.82602,3.547-1.12198,6.653-3.366,8.817-6.39301l.079-.103,1.018-3.784.363-2.63498-.573-.07602-5.322,1.43399h-.026c-2.425.65302-4.983-.05197-6.757-1.853-.442-.23398-.781-.62598-.887-1.121l-.129-.418c-2.271-8.086-10.643-12.83398-18.757-10.565"></path><g class="cls-44"><g class="cls-32"><rect class="cls-12" x="59.20751" y="30.46948" width="21.26001" height="21.23697"></rect></g></g><line class="cls-27" x1="85.04052" y1="38.19247" x2="85.00452" y2="37.5845"></line><path class="cls-27" d="M85.00452,37.58447c-.66901-8.37598-8.00101-14.625-16.37701-13.95697-2.134.16998-4.20699.78799-6.08599,1.81497"></path><path class="cls-27" d="M87.87452,40.12246c.73299-9.96198-6.748-18.63199-16.709-19.36499-9.962-.73401-18.632,6.74802-19.365,16.70801-.733,9.96301,6.746,18.63199,16.709,19.366,1.965.14499,3.941-.03299,5.849-.526"></path><path class="cls-27" d="M89.85252,40.59246c.994-11.05298-7.162-20.81998-18.216-21.814-11.055-.992-20.82199,7.16302-21.814,18.21802-.994,11.05399,7.162,20.82001,18.216,21.81198,4.34.39001,8.688-.63998,12.391-2.935"></path><line class="cls-27" x1="73.58951" y1="26.34546" x2="74.32651" y2="26.55346"></line><path class="cls-27" d="M62.54251,25.44146c-5.247,2.867-8.328,8.54001-7.878,14.50101"></path><path class="cls-27" d="M84.60152,37.41348c-.525-2.11398-1.499-4.08798-2.855-5.79099"></path><line class="cls-27" x1="81.74752" y1="31.62149" x2="81.56551" y2="31.39749"></line><line class="cls-27" x1="81.03952" y1="30.79449" x2="81.56651" y2="31.3985"></line><line class="cls-27" x1="81.03952" y1="30.79449" x2="80.59952" y2="30.3345"></line><path class="cls-27" d="M78.86552,28.8435c-.327-.24197-.665-.46997-1.012-.685"></path><path class="cls-27" d="M69.83752,33.05252c-4.439,0-8.039,3.59903-8.039,8.039,0,4.43903,3.6,8.03802,8.039,8.03802s8.03899-3.599,8.03899-8.03802c0-4.43997-3.6-8.039-8.03899-8.039Z"></path><path class="cls-27" d="M73.71651,44.22052c-1.081-.24298-2.15401.436-2.396,1.51703-.01.03799-.016.07898-.024.11899"></path><path class="cls-27" d="M73.71651,44.22052c.618.13901,1.23199-.25098,1.37199-.86899.095-.42401-.057-.867-.394-1.142"></path><path class="cls-27" d="M74.48651,39.29651c-.75201.81403-.69901,2.08301.115,2.83401.03.02701.061.05301.09299.07901"></path><path class="cls-27" d="M74.48651,39.29651c.42999-.46698.39999-1.19199-.067-1.62299-.319-.29501-.778-.384-1.186-.228"></path><path class="cls-27" d="M70.60751,36.16751c.32899,1.05603,1.45499,1.64603,2.51099,1.31702.041-.01199.077-.026.116-.04001"></path><path class="cls-27" d="M70.60751,36.16751c-.19-.60599-.832-.94397-1.439-.754-.416.129-.721.483-.792.91302"></path><path class="cls-27" d="M65.95851,37.96252c1.08099.242,2.154-.43597,2.396-1.517.01-.039.016-.07898.025-.12"></path><path class="cls-27" d="M65.95851,37.96252c-.618-.13898-1.232.25-1.372.86902-.095.42401.057.866.394,1.14099"></path><path class="cls-27" d="M65.18851,42.88653c.752-.814.699-2.08298-.11501-2.83499-.03-.026-.061-.052-.09299-.07898"></path><path class="cls-27" d="M65.18851,42.88653c-.43.466-.4,1.19202.06699,1.62201.319.29501.777.384,1.186.228"></path><path class="cls-27" d="M69.06751,46.01553c-.329-1.05698-1.455-1.64697-2.511-1.31799-.041.013-.077.02701-.11501.04102"></path><path class="cls-27" d="M69.06751,46.01553c.18999.60602.83199.94302,1.438.75302.417-.129.722-.483.793-.91299"></path><path class="cls-27" d="M69.83751,31.04355c-5.55,0-10.047,4.49902-10.047,10.04703,0,5.54999,4.497,10.04999,10.047,10.04999s10.047-4.5,10.047-10.04999c0-5.548-4.497-10.04703-10.047-10.04703Z"></path><line class="cls-27" x1="83.30251" y1="47.48953" x2="95.09551" y2="47.48953"></line><line class="cls-27" x1="83.30251" y1="46.66552" x2="83.30251" y2="47.49054"></line><line class="cls-27" x1="83.30251" y1="46.66552" x2="95.84151" y2="46.66552"></line><path class="cls-27" d="M87.89151,51.94754c3.556-1.12097,6.65099-3.36798,8.821-6.39798"></path><path class="cls-27" d="M84.48951,36.98755c-2.26701-8.09097-10.664-12.81497-18.755-10.54797-8.092,2.267-12.814,10.66299-10.549,18.75497.867,3.09302,2.691,5.83502,5.211,7.82703"></path><line class="cls-27" x1="60.39551" y1="53.02255" x2="62.19551" y2="54.44656"></line><path class="cls-27" d="M62.19651,54.44754c1.521,1.20401,3.404,1.85901,5.344,1.85901"></path><line class="cls-27" x1="67.5415" y1="56.30655" x2="77.3015" y2="56.30655"></line><path class="cls-27" d="M77.3025,56.30655c2.625,0,5.168-.89899,7.211-2.54599"></path><path class="cls-27" d="M87.89251,51.94754c-1.23.388-2.37601,1.00302-3.37801,1.81302"></path><path class="cls-27" d="M81.70151,44.79754c-.291,1.65503.325,2.69101,1.602,2.69101"></path><line class="cls-27" x1="81.70151" y1="44.79754" x2="83.1295" y2="36.69757"></line><line class="cls-27" x1="78.36551" y1="28.48953" x2="83.12951" y2="36.69854"></line><path class="cls-27" d="M69.83951,29.06454c-6.643,0-12.027,5.384-12.027,12.02701,0,6.64099,5.384,12.026,12.027,12.026s12.027-5.38501,12.027-12.026c0-6.64301-5.384-12.02701-12.027-12.02701Z"></path><line class="cls-27" x1="82.76851" y1="44.98553" x2="81.70151" y2="44.79754"></line><path class="cls-27" d="M82.76851,44.98553c-.499,1.27103-.29301,1.92001.535,1.68103"></path><line class="cls-27" x1="83.30451" y1="46.66552" x2="84.01951" y2="45.76455"></line><line class="cls-27" x1="96.71351" y1="45.54852" x2="84.01951" y2="45.76452"></line><line class="cls-27" x1="82.76851" y1="44.98553" x2="83.9705" y2="38.16754"></line><line class="cls-27" x1="83.54151" y1="37.43554" x2="83.12951" y2="36.69854"></line><path class="cls-27" d="M83.54151,37.43554c.13499.24902.279.49301.42999.73203"></path><path class="cls-27" d="M69.83951,30.10855c-6.065,0-10.983,4.91702-10.983,10.983,0,6.065,4.918,10.98203,10.983,10.98203s10.98299-4.91702,10.98299-10.98203c0-6.06598-4.918-10.983-10.98299-10.983Z"></path><line class="cls-27" x1="82.76852" y1="44.98556" x2="83.30351" y2="44.31356"></line><path class="cls-27" d="M83.30251,44.31256c-.206.90302.06899,1.46301.717,1.453"></path><line class="cls-27" x1="84.49751" y1="37.17855" x2="84.49751" y2="37.20257"></line><line class="cls-27" x1="84.48951" y1="36.98755" x2="84.4975" y2="37.17755"></line><line class="cls-27" x1="75.34051" y1="56.30655" x2="75.5285" y2="56.30655"></line><line class="cls-27" x1="84.53051" y1="38.94455" x2="83.3025" y2="44.31256"></line><path class="cls-27" d="M83.97051,38.16754c.168.27103.355.53201.56.776"></path><path class="cls-27" d="M69.83851,30.46954c-5.867,0-10.621,4.75601-10.621,10.621,0,5.867,4.754,10.62302,10.621,10.62302s10.62099-4.75601,10.62099-10.62302c0-5.86499-4.754-10.621-10.62099-10.621Z"></path><path class="cls-27" d="M84.60151,37.40954c.12099.48901.453.901.903,1.12601"></path><line class="cls-27" x1="84.58651" y1="37.35153" x2="84.60051" y2="37.41055"></line><line class="cls-27" x1="84.49751" y1="37.20254" x2="84.58651" y2="37.35257"></line><path class="cls-27" d="M85.50251,38.53656c1.758,1.798,4.352,2.50101,6.778,1.841"></path><line class="cls-27" x1="92.28151" y1="40.37954" x2="91.19851" y2="40.67056"></line><path class="cls-27" d="M84.52851,38.94455c1.766,1.70502,4.297,2.36203,6.669,1.72702"></path><line class="cls-27" x1="84.49651" y1="37.17855" x2="83.54051" y2="37.43457"></line><line class="cls-27" x1="97.59651" y1="38.95657" x2="91.19751" y2="40.6716"></line><line class="cls-27" x1="97.59651" y1="38.95657" x2="96.66951" y2="45.54858"></line><line class="cls-27" x1="96.78451" y1="45.44656" x2="96.71151" y2="45.54959"></line><line class="cls-27" x1="97.79752" y1="41.66555" x2="96.78551" y2="45.44558"></line><line class="cls-27" x1="98.20151" y1="38.79455" x2="97.79751" y2="41.66555"></line><line class="cls-27" x1="97.59752" y1="38.95654" x2="98.20151" y2="38.79455"></line><line class="cls-27" x1="97.59752" y1="38.95553" x2="92.28152" y2="40.37954"></line><line class="cls-27" x1="97.59752" y1="38.95553" x2="98.20151" y2="38.79355"></line><line class="cls-27" x1="85.00552" y1="37.58453" x2="84.79951" y2="36.99054"></line><line class="cls-27" x1="84.79851" y1="36.99154" x2="84.29551" y2="35.99756"></line><line class="cls-27" x1="84.29452" y1="35.99853" x2="84.04652" y2="35.60653"></line><line class="cls-27" x1="84.04652" y1="35.60553" x2="83.98351" y2="35.48654"></line><line class="cls-24" x1="98.11852" y1="38.54147" x2="112.05552" y2="38.54147"></line><line class="cls-26" x1="109.19152" y1="47.32046" x2="109.19152" y2="63.61346"></line><polyline class="cls-9" points="106.25652 49.32248 109.19252 38.37149 112.12652 49.32248"></polyline><line class="cls-25" x1="343.49351" y1="66.88847" x2="384.37348" y2="66.88847"></line><polyline class="cls-9" points="345.11051 69.26046 336.2605 66.88748 345.11051 64.51648"></polyline><g class="cls-20"><g class="cls-46"><g class="cls-33"><rect class="cls-4" x="334.2465" y="15.51345" width="56.68799" height="56.009"></rect></g></g></g><path class="cls-5" d="M352.43751,37.67447c-.08502-.189-.25302-.33798-.44302-.39999-.04199-.021-.08499-.021-.12698-.04199-.12601-.27499-.33701-.50699-.61102-.634-.52798-.25101-1.07599-.505-1.60199-.758-.064-.04199-.10599-.06299-.16998-.08499l-.23203-.33801v-12.755l.29602-.08499,1.75-.25299v-.021c.211-.022.422-.08401.61099-.19.40201-.25302.823-.44202,1.26599-.591l.168-.08301.04202-.021.043-.043-.02103-.021-.02197-.021-.04202-.022-.168-.021h-15.772v21.88699c0,.12601-.021.254-.064.358-.034.15198-.138.284-.25101.40298l-.444.48401v.06299l-.27499.99002c.064,1.793.08502,3.58499.022,5.37799l-.12601,5.186c-.021.25299.168.46399.44202.48499h6.05099c.25299,0,.444-.23199.444-.48499l-.10599-4.30099c-.06403-1.83401-.043-3.64801.021-5.48203,0-.25299.021-.48499.04199-.73798l.022-.08401h.65298l4.95401-.04199v-1.625l.12799-.189.27402-.211.06198-.021.29602-.10501,1.793-.42099c.23199-.043.46399-.17001.61099-.35901.42099-.50699.823-1.034,1.202-1.58099.146-.25302.25299-.52802.25299-.823,0-.33801-.08499-.65302-.23199-.94901-.25299-.46402-.50699-.94901-.73798-1.43402"></path><line class="cls-23" x1="385.44553" y1="33.17645" x2="385.44553" y2="34.01248"></line><line class="cls-23" x1="385.44553" y1="45.19546" x2="385.44553" y2="21.99249"></line><line class="cls-23" x1="360.53355" y1="45.81945" x2="360.82752" y2="45.85547"></line><line class="cls-23" x1="360.95554" y1="45.87146" x2="361.08152" y2="45.88849"></line><line class="cls-23" x1="361.10355" y1="45.89145" x2="360.80854" y2="45.85247"></line><line class="cls-23" x1="358.52955" y1="45.02743" x2="358.52955" y2="39.48944"></line><line class="cls-23" x1="383.12556" y1="27.69745" x2="383.12556" y2="45.89145"></line><line class="cls-23" x1="383.12556" y1="21.29544" x2="383.12556" y2="27.69745"></line><polyline class="cls-23" points="385.44556 17.35144 385.44556 25.80645 385.44556 49.83645"></polyline><g class="cls-49"><line class="cls-23" x1="454.12952" y1="36.55847" x2="391.94251" y2="36.55847"></line><line class="cls-23" x1="391.94251" y1="49.56347" x2="391.94251" y2="36.5585"></line><line class="cls-23" x1="391.94251" y1="49.56347" x2="454.12949" y2="49.56347"></line></g><path class="cls-23" d="M353.04053,39.48947c-.039-.10599-.08603-.20697-.14203-.30499"></path><path class="cls-23" d="M351.85953,37.22146c.32199.66702.668,1.32202,1.03897,1.96301"></path><path class="cls-23" d="M351.85853,37.22247c-.12402-.27298-.33801-.495-.60602-.629"></path><path class="cls-23" d="M349.47953,35.74847c.586.29102,1.17697.57303,1.77197.84702"></path><line class="cls-23" x1="349.24753" y1="35.42648" x2="349.47953" y2="35.7485"></line><line class="cls-23" x1="349.24753" y1="35.42648" x2="349.24753" y2="22.5415"></line><line class="cls-23" x1="349.24753" y1="22.54248" x2="349.47953" y2="22.4425"></line><line class="cls-23" x1="351.25153" y1="22.18649" x2="349.48051" y2="22.4425"></line><path class="cls-23" d="M351.25153,22.18448c.21298-.021.418-.08197.60898-.17798"></path><path class="cls-23" d="M352.89753,21.52447c-.36102.12601-.70801.28702-1.03802.48203"></path><path class="cls-23" d="M353.14753,21.37646c-.009-.02597-.03201-.04199-.05801-.04398"></path><line class="cls-23" x1="358.52952" y1="21.33047" x2="353.0875" y2="21.33047"></line><polyline class="cls-23" points="358.52952 39.48947 358.52952 21.33047 360.13151 21.29647"></polyline><polyline class="cls-23" points="349.2475 45.85647 349.2475 43.21948 349.4795 43.07248"></polyline><line class="cls-23" x1="351.2515" y1="42.64846" x2="349.48048" y2="43.07449"></line><path class="cls-23" d="M351.2515,42.64645c.237-.04898.45099-.17398.60898-.353"></path><path class="cls-23" d="M351.8595,42.29144c.36499-.452.711-.92099,1.03897-1.40097"></path><path class="cls-23" d="M352.89851,40.89145c.16299-.24197.25-.52597.24799-.81897"></path><path class="cls-23" d="M353.14649,40.07345c-.00101-.19897-.03702-.39697-.10602-.58298"></path><line class="cls-23" x1="350.03248" y1="45.85644" x2="349.24647" y2="45.85644"></line><path class="cls-23" d="M385.44547,48.21243c0-1.28198-1.03802-2.32098-2.32001-2.32098"></path><path class="cls-23" d="M383.12546,21.29544c1.28198,0,2.31998-1.03799,2.31998-2.31998"></path><g class="cls-22"><line class="cls-23" x1="454.12952" y1="49.83645" x2="385.44453" y2="49.83645"></line><line class="cls-23" x1="454.12952" y1="17.35147" x2="385.44453" y2="17.35147"></line></g><line class="cls-23" x1="383.12553" y1="21.29547" x2="360.1305" y2="21.29547"></line><line class="cls-23" x1="383.12553" y1="45.89148" x2="361.1045" y2="45.89148"></line><path class="cls-23" d="M348.78352,28.52346c.15997-.04599.31497-.10498.46399-.17798"></path><polyline class="cls-23" points="337.41352 21.29547 337.41352 40.48547 337.41352 44.33548"></polyline><path class="cls-23" d="M337.01453,44.04446c.25299-.21698.39798-.53299.39798-.862"></path><line class="cls-23" x1="337.12354" y1="43.89145" x2="337.01453" y2="44.04345"></line><line class="cls-23" x1="343.79255" y1="45.43646" x2="348.78254" y2="45.38046"></line><line class="cls-23" x1="348.78355" y1="43.87646" x2="348.78355" y2="45.38147"></line><line class="cls-23" x1="349.54856" y1="43.23547" x2="351.34354" y2="42.81848"></line><path class="cls-23" d="M351.34357,42.81646c.237-.04599.452-.16699.61398-.34497"></path><path class="cls-23" d="M351.95658,42.47046c.42099-.51498.81998-1.047,1.18997-1.599"></path><path class="cls-23" d="M353.40757,40.06045c.00699-.33298-.07501-.66199-.23801-.952"></path><path class="cls-23" d="M353.14756,40.87246c.16199-.23999.25198-.52298.25998-.81198"></path><path class="cls-23" d="M352.43455,37.67547c.23297.48401.478.96103.73599,1.43301"></path><path class="cls-23" d="M352.43253,37.67648c-.08603-.19098-.246-.33798-.444-.40997"></path><path class="cls-23" d="M349.64353,36.48349c.77899.27002,1.56097.53302,2.34497.78601"></path><line class="cls-23" x1="348.78355" y1="23.1185" x2="348.78355" y2="34.91952"></line><line class="cls-23" x1="349.54755" y1="22.5845" x2="351.29954" y2="22.31552"></line><path class="cls-23" d="M351.29957,22.3135c.21399-.02298.422-.08798.61099-.19098"></path><path class="cls-23" d="M353.16456,21.51449c-.44.15201-.86002.35602-1.25403.608"></path><line class="cls-23" x1="353.00355" y1="21.2955" x2="353.17853" y2="21.3005"></line><path class="cls-23" d="M343.79255,45.43649c5.56799-.78598,3.306-2.53998-6.37903-4.952"></path><line class="cls-23" x1="337.01453" y1="44.04449" x2="337.01453" y2="45.0155"></line><path class="cls-23" d="M337.33054,44.66949c.05399-.103.08298-.21698.08298-.33298"></path><path class="cls-23" d="M337.01453,45.0155c.13199-.08798.23999-.20697.31699-.34598"></path><line class="cls-23" x1="337.01453" y1="44.04449" x2="336.63352" y2="44.4765"></line><line class="cls-23" x1="336.65354" y1="44.4255" x2="336.63352" y2="44.47552"></line><line class="cls-23" x1="343.24155" y1="45.4425" x2="343.17155" y2="45.4425"></line><line class="cls-23" x1="343.79255" y1="45.43649" x2="343.24152" y2="45.4425"></line><line class="cls-23" x1="349.64356" y1="35.82949" x2="349.64356" y2="36.48452"></line><path class="cls-23" d="M348.78358,33.9035c0,.20901.17099.40701.46399.53201"></path><line class="cls-23" x1="336.37656" y1="45.4685" x2="336.63456" y2="44.47552"></line><line class="cls-23" x1="337.01456" y1="45.0155" x2="336.37556" y2="45.4685"></line><path class="cls-23" d="M343.16056,45.52649c-.03003.24103-.04303.48602-.039.73001"></path><line class="cls-23" x1="343.16257" y1="45.52649" x2="343.04957" y2="45.52649"></line><line class="cls-23" x1="343.16556" y1="45.51449" x2="343.16154" y2="45.52652"></line><line class="cls-23" x1="343.16556" y1="45.51449" x2="343.04954" y2="45.52652"></line><line class="cls-23" x1="343.17158" y1="45.44348" x2="343.16456" y2="45.51449"></line><path class="cls-23" d="M343.11558,46.25647c-.06702,1.82602-.07303,3.65201-.01901,5.47702"></path><line class="cls-23" x1="343.09458" y1="51.73446" x2="336.39558" y2="50.85946"></line><path class="cls-23" d="M336.39457,50.85846c.05298-1.79599.04599-3.59399-.01602-5.38998"></path><line class="cls-23" x1="343.24158" y1="45.44247" x2="337.32957" y2="44.66949"></line><g class="cls-29"><line class="cls-23" x1="336.26151" y1="56.03045" x2="336.39649" y2="50.85946"></line></g><path class="cls-23" d="M336.26252,56.03146c-.01401.25403.17999.47501.43597.48901h.01501"></path><line class="cls-23" x1="343.20652" y1="56.03146" x2="343.09449" y2="51.73446"></line><line class="cls-23" x1="342.75352" y1="56.51947" x2="336.71451" y2="56.51947"></line><path class="cls-23" d="M342.75352,56.52148c.25598-.00699.45898-.21899.452-.474,0-.00497,0-.01099-.00101-.01599"></path><path class="cls-23" d="M337.12351,43.89148c.18597-.21198.28897-.48297.29099-.76599"></path><line class="cls-23" x1="353.00352" y1="21.29547" x2="337.41349" y2="21.29547"></line><line class="cls-23" x1="337.12351" y1="43.89148" x2="336.65351" y2="44.4255"></line><path class="cls-23" d="M348.78352,31.48947c0,.36603.17099.70901.46399.92801"></path><line class="cls-23" x1="360.53352" y1="45.81945" x2="358.6385" y2="45.65048"></line><line class="cls-23" x1="358.6395" y1="45.65146" x2="356.41349" y2="45.57446"></line><line class="cls-23" x1="356.4145" y1="45.57446" x2="354.17048" y2="45.60247"></line><polyline class="cls-23" points="354.17051 45.60147 350.03251 45.85647 349.91849 45.83548"></polyline><polyline class="cls-23" points="349.91849 45.83645 349.88047 45.82248 349.85749 45.80746 349.85349 45.79846 349.85349 45.79046"></polyline><line class="cls-23" x1="349.85248" y1="45.79144" x2="349.85648" y2="45.78344"></line><polyline class="cls-23" points="349.85548 45.78344 349.86347 45.77246 349.89445 45.75045"></polyline><line class="cls-23" x1="349.89548" y1="45.75045" x2="350.07746" y2="45.68246"></line><line class="cls-23" x1="350.0785" y1="45.68246" x2="351.10047" y2="45.47049"></line><polyline class="cls-23" points="351.10151 45.47046 353.1915 45.19348 355.06748 45.04147 356.97651 44.98248"></polyline><line class="cls-23" x1="356.9755" y1="44.98245" x2="358.52848" y2="45.02646"></line><line class="cls-23" x1="360.80952" y1="45.85244" x2="360.46949" y2="45.58047"></line><line class="cls-23" x1="360.46952" y1="45.57943" x2="359.84452" y2="45.28546"></line><line class="cls-23" x1="359.84351" y1="45.28543" x2="358.52949" y2="45.02743"></line><polyline class="cls-23" points="360.80952 45.85241 361.57349 45.62542 362.1645 45.17642"></polyline><line class="cls-23" x1="362.16453" y1="45.17541" x2="362.49152" y2="44.75244"></line><polyline class="cls-23" points="362.49052 44.75341 362.77351 44.23544 363.1385 43.26544 363.43149 42.10742"></polyline><line class="cls-23" x1="363.43052" y1="42.10843" x2="363.7345" y2="40.25445"></line><line class="cls-23" x1="352.89753" y1="21.52444" x2="353.06751" y2="21.45446"></line><line class="cls-23" x1="353.06754" y1="21.45343" x2="353.11854" y2="21.42144"></line><line class="cls-23" x1="353.11753" y1="21.42044" x2="353.14451" y2="21.39145"></line><line class="cls-23" x1="353.14353" y1="21.39044" x2="353.14652" y2="21.37747"></line><line class="cls-23" x1="360.13154" y1="21.29544" x2="360.91953" y2="21.35147"></line><line class="cls-23" x1="360.92054" y1="21.35144" x2="361.52653" y2="21.53744"></line><line class="cls-23" x1="361.52555" y1="21.53845" x2="361.89454" y2="21.76547"></line><polyline class="cls-23" points="361.89454 21.76446 362.21653 22.06848 362.75053 22.90246 363.22251 24.21048 363.57151 25.83047"></polyline><line class="cls-23" x1="363.57255" y1="25.83047" x2="363.82255" y2="27.69748"></line><polyline class="cls-23" points="363.73453 40.25546 363.99851 37.25546 364.09653 34.03048 364.04151 30.77948"></polyline><line class="cls-23" x1="364.04053" y1="30.77945" x2="363.82352" y2="27.69748"></line><line class="cls-23" x1="349.54853" y1="43.23544" x2="349.18751" y2="43.36645"></line><line class="cls-23" x1="349.18754" y1="43.36544" x2="348.91453" y2="43.57147"></line><polyline class="cls-23" points="348.91453 43.57043 348.7985 43.77145 348.78352 43.87646"></polyline><polyline class="cls-23" points="349.64353 36.48343 349.31351 36.29245 349.01853 35.92343"></polyline><polyline class="cls-23" points="349.01752 35.92242 348.84852 35.48043 348.78352 34.91943"></polyline><polyline class="cls-23" points="349.54752 22.58441 349.0825 22.72842 348.91251 22.84643"></polyline><polyline class="cls-23" points="348.91352 22.84539 348.8165 22.97442 348.78449 23.1184"></polyline><line class="cls-23" x1="353.17853" y1="21.30038" x2="353.34351" y2="21.31939"></line><polyline class="cls-23" points="353.34254 21.31939 353.39152 21.33542 353.41151 21.34842 353.41852 21.35641"></polyline><polyline class="cls-23" points="353.41755 21.3554 353.42054 21.36743 353.41755 21.38043 353.39353 21.40841 353.34653 21.43942"></polyline><line class="cls-23" x1="353.34556" y1="21.4404" x2="353.16453" y2="21.51541"></line><line class="cls-23" x1="348.78355" y1="28.18741" x2="348.81452" y2="28.04242"></line><polyline class="cls-23" points="348.81556 28.04242 348.90653 27.91543 349.24854 27.72543"></polyline><line class="cls-23" x1="343.04957" y1="45.52642" x2="342.50355" y2="45.62545"></line><polyline class="cls-23" points="342.50358 45.62643 342.35456 45.69946 342.31556 45.74044"></polyline><polyline class="cls-23" points="342.31657 45.73944 342.30454 45.76245 342.30155 45.81344 342.31855 45.85244"></polyline><line class="cls-23" x1="342.31757" y1="45.85244" x2="342.35056" y2="45.89447"></line><line class="cls-23" x1="342.35056" y1="45.89343" x2="342.46354" y2="45.98245"></line><line class="cls-23" x1="342.46256" y1="45.98144" x2="342.73356" y2="46.11746"></line><line class="cls-23" x1="342.73356" y1="46.11645" x2="343.11954" y2="46.25747"></line><line class="cls-23" x1="349.24757" y1="28.02145" x2="349.00056" y2="28.15545"></line><line class="cls-23" x1="349.00156" y1="28.15646" x2="348.83756" y2="28.34246"></line><line class="cls-23" x1="348.83857" y1="28.34246" x2="348.78455" y2="28.5235"></line><line class="cls-28" x1="336.28651" y1="69.48047" x2="336.28651" y2="56.09347"></line><rect class="cls-10" x="343.74052" y="66.69348" width="75.53601" height=".40599"></rect><text class="cls-38" transform="translate(52.8382 177.21338) rotate(-90)"><tspan class="cls-50" x="0" y="0">E</tspan><tspan class="cls-48" x="5.07959" y="0">dge</tspan><tspan class="cls-50" x="19.31006" y="0"> </tspan><tspan class="cls-48" x="21.72559" y="0">po</tspan><tspan class="cls-30" x="31.46045" y="0">s</tspan><tspan class="cls-48" x="35.65234" y="0">ition</tspan><tspan class="cls-30" x="51.76221" y="0"> </tspan><tspan class="cls-48" x="54.17822" y="0">(µm</tspan><tspan x="68.12061" y="0">) </tspan></text><text class="cls-38" transform="translate(118.20942 225.72537)"><tspan class="cls-41" x="0" y="0">Number</tspan><tspan class="cls-30" x="29.94873" y="0"> </tspan><tspan class="cls-41" x="32.36475" y="0">of times insert</tspan><tspan class="cls-50" x="85.88721" y="0"> </tspan><tspan class="cls-39" x="88.30273" y="0">r</tspan><tspan class="cls-48" x="91.01465" y="0">eplace</tspan><tspan x="115.91553" y="0">d</tspan></text><g><path class="cls-10" d="M118.48486,53.95312v3.01465h3.17969v-3.01465h1.72705v7.85547h-1.72705v-3.38867h-3.17969v3.38867h-1.72705v-7.85547h1.72705Z"></path><path class="cls-10" d="M133.87305,53.95312v7.85547h-1.48486v-.72656h-.02197c-.34131.58398-.94629.88086-1.72754.88086-1.69434,0-2.55225-1.43066-2.55225-3.04785,0-1.57324.87988-2.94824,2.51953-2.94824.68213,0,1.3418.29688,1.68311.84668h.02197v-2.86035h1.56201ZM131.02393,60.78516c.89111,0,1.34229-.69238,1.34229-1.83691,0-1.03418-.396-1.80469-1.35352-1.80469-.89111,0-1.36426.71582-1.36426,1.81543,0,.90234.41846,1.82617,1.37549,1.82617Z"></path><path class="cls-10" d="M136.92969,53.95312v1.28711h-1.56201v-1.28711h1.56201ZM136.92969,56.12109v5.6875h-1.56201v-5.6875h1.56201Z"></path><path class="cls-10" d="M143.37598,56.91309c.41797-.60547,1.03418-.94629,1.72754-.94629,1.4082,0,2.06787.77051,2.06787,2.02441v3.81738h-1.56201v-3.28906c0-.74805-.10986-1.32031-.95703-1.32031-.7373,0-1.04541.5166-1.04541,1.42969v3.17969h-1.56201v-3.35547c0-.7373-.10986-1.25391-.94629-1.25391-.36279,0-1.05615.25293-1.05615,1.29785v3.31152h-1.56201v-5.6875h1.47412v.76953h.02197c.43994-.62695,1.03418-.92383,1.73828-.92383.84717,0,1.39697.35156,1.66113.94629Z"></path><path class="cls-10" d="M154.07861,59.05859c0,.08789-.01123.28613-.01123.28613h-4.10352c.04395.97852.49512,1.44043,1.38623,1.44043.59375,0,1.12207-.34082,1.24316-.7373h1.375c-.41797,1.28809-1.29785,1.91504-2.66211,1.91504-1.8042,0-2.90479-1.24316-2.90479-2.99316,0-1.71582,1.18848-3.00293,2.90479-3.00293,1.79297,0,2.77246,1.4082,2.77246,3.0918ZM152.50537,58.35449c-.1543-.8584-.52832-1.21094-1.25439-1.21094-.75928,0-1.22119.46289-1.28711,1.21094h2.5415Z"></path><path class="cls-10" d="M160.6001,58.26562v3.54297h-1.56201v-3.22363c0-.93457-.2749-1.38574-1.00098-1.38574-.96826,0-1.21045.6377-1.21045,1.65039v2.95898h-1.56201v-5.6875h1.48486v.79199h.0332c.37402-.60547,1.01221-.94629,1.74902-.94629,1.44141,0,2.06836.7041,2.06836,2.29883Z"></path><path class="cls-10" d="M166.90234,57.78223h-1.48486c-.04395-.55078-.41797-.77051-1.06738-.77051-.60498,0-.86914.1875-.86914.52832,0,.36328.34131.5498,1.22119.72559,1.15527.23145,1.57324.40723,1.91455.69336.29688.26465.43994.59473.43994,1.02344,0,1.46289-1.26514,1.98047-2.59619,1.98047-1.55127,0-2.62939-.66016-2.67383-2.00293h1.48535c0,.63867.55029.95703,1.19922.95703.52832,0,1.02295-.23047,1.02295-.72559,0-.41797-.48389-.61621-1.71582-.86914-1.32031-.27539-1.85938-.71484-1.85938-1.5293,0-1.20996.87988-1.82617,2.4751-1.82617,1.54053,0,2.40967.6377,2.5083,1.81543Z"></path><path class="cls-10" d="M169.84912,53.95312v1.28711h-1.56201v-1.28711h1.56201ZM169.84912,56.12109v5.6875h-1.56201v-5.6875h1.56201Z"></path><path class="cls-10" d="M177.06543,58.96973c0,1.83789-1.19873,2.99316-2.94824,2.99316-1.79346,0-2.9375-1.19922-2.9375-2.99316,0-1.81445,1.15527-3.00293,2.9375-3.00293,1.8042,0,2.94824,1.19922,2.94824,3.00293ZM174.11719,60.78516c.92432,0,1.38623-.69238,1.38623-1.81543,0-.92383-.31885-1.82617-1.39746-1.82617-.86865,0-1.36377.66016-1.36377,1.82617,0,1.15527.48389,1.81543,1.375,1.81543Z"></path><path class="cls-10" d="M183.68652,58.26562v3.54297h-1.56201v-3.22363c0-.93457-.2749-1.38574-1.00098-1.38574-.96826,0-1.21045.6377-1.21045,1.65039v2.95898h-1.56201v-5.6875h1.48486v.79199h.0332c.37402-.60547,1.01221-.94629,1.74902-.94629,1.44141,0,2.06836.7041,2.06836,2.29883Z"></path></g><text class="cls-38" transform="translate(322.10474 177.21191) rotate(-90)"><tspan class="cls-16" x="0" y="0">E</tspan><tspan class="cls-41" x="5.0791" y="0">dge</tspan><tspan class="cls-30" x="19.30957" y="0"> </tspan><tspan class="cls-41" x="21.72559" y="0">po</tspan><tspan class="cls-16" x="31.46094" y="0">s</tspan><tspan class="cls-41" x="35.65234" y="0">ition</tspan><tspan class="cls-16" x="51.7627" y="0"> </tspan><tspan class="cls-19" x="54.17773" y="0">(µm</tspan><tspan x="68.12109" y="0">) </tspan></text><text class="cls-38" transform="translate(386.27192 225.72537)"><tspan class="cls-41" x="0" y="0">Number of times insert</tspan><tspan class="cls-30" x="85.89453" y="0"> </tspan><tspan class="cls-31" x="88.31055" y="0">r</tspan><tspan class="cls-37" x="91.02246" y="0">eplace</tspan><tspan x="115.92383" y="0">d</tspan></text><g><path class="cls-10" d="M353.7373,55.19336v6.40332h3.82812v1.45215h-5.55566v-7.85547h1.72754Z"></path><path class="cls-10" d="M367.51953,55.19336v7.85547h-1.48535v-.72656h-.02148c-.34082.58398-.94629.88086-1.72754.88086-1.69434,0-2.55176-1.43066-2.55176-3.04785,0-1.57324.87988-2.94824,2.51855-2.94824.68262,0,1.34277.29688,1.68359.84668h.02246v-2.86035h1.56152ZM364.66992,62.02539c.8916,0,1.34277-.69238,1.34277-1.83691,0-1.03418-.39648-1.80469-1.35352-1.80469-.89062,0-1.36426.71582-1.36426,1.81543,0,.90234.41797,1.82617,1.375,1.82617Z"></path><path class="cls-10" d="M370.57617,55.19336v1.28711h-1.5625v-1.28711h1.5625ZM370.57617,57.36133v5.6875h-1.5625v-5.6875h1.5625Z"></path><path class="cls-10" d="M377.01172,58.15332c.41797-.60547,1.03418-.94629,1.72656-.94629,1.4082,0,2.06836.77051,2.06836,2.02441v3.81738h-1.56152v-3.28906c0-.74805-.11035-1.32031-.95801-1.32031-.73633,0-1.04492.5166-1.04492,1.42969v3.17969h-1.5625v-3.35547c0-.7373-.10938-1.25391-.94531-1.25391-.36328,0-1.05664.25293-1.05664,1.29785v3.31152h-1.5625v-5.6875h1.47461v.76953h.02246c.43945-.62695,1.0332-.92383,1.73828-.92383.84668,0,1.39648.35156,1.66113.94629Z"></path><path class="cls-10" d="M387.71387,60.29883c0,.08789-.01172.28613-.01172.28613h-4.10352c.04395.97852.49512,1.44043,1.38672,1.44043.59375,0,1.12207-.34082,1.24316-.7373h1.375c-.41797,1.28809-1.29785,1.91504-2.66211,1.91504-1.80469,0-2.9043-1.24316-2.9043-2.99316,0-1.71582,1.1875-3.00293,2.9043-3.00293,1.79297,0,2.77246,1.4082,2.77246,3.0918ZM386.14062,59.59473c-.1543-.8584-.52832-1.21094-1.25488-1.21094-.75879,0-1.2207.46289-1.28711,1.21094h2.54199Z"></path><path class="cls-10" d="M394.23535,59.50586v3.54297h-1.5625v-3.22363c0-.93457-.27441-1.38574-1.00098-1.38574-.96777,0-1.20996.6377-1.20996,1.65039v2.95898h-1.5625v-5.6875h1.48535v.79199h.0332c.37402-.60547,1.01172-.94629,1.74902-.94629,1.44141,0,2.06836.7041,2.06836,2.29883Z"></path><path class="cls-10" d="M400.53809,59.02246h-1.48535c-.04395-.55078-.41797-.77051-1.06641-.77051-.60547,0-.86914.1875-.86914.52832,0,.36328.34082.5498,1.2207.72559,1.15527.23145,1.57324.40723,1.91406.69336.29688.26465.44043.59473.44043,1.02344,0,1.46289-1.26562,1.98047-2.59668,1.98047-1.55078,0-2.62891-.66016-2.67285-2.00293h1.48535c0,.63867.5498.95703,1.19922.95703.52734,0,1.02246-.23047,1.02246-.72559,0-.41797-.4834-.61621-1.71582-.86914-1.32031-.27539-1.85938-.71484-1.85938-1.5293,0-1.20996.87988-1.82617,2.47559-1.82617,1.54004,0,2.40918.6377,2.50781,1.81543Z"></path><path class="cls-10" d="M403.48438,55.19336v1.28711h-1.5625v-1.28711h1.5625ZM403.48438,57.36133v5.6875h-1.5625v-5.6875h1.5625Z"></path><path class="cls-10" d="M410.70117,60.20996c0,1.83789-1.19922,2.99316-2.94824,2.99316-1.79297,0-2.9375-1.19922-2.9375-2.99316,0-1.81445,1.15527-3.00293,2.9375-3.00293,1.80469,0,2.94824,1.19922,2.94824,3.00293ZM407.75293,62.02539c.92383,0,1.38574-.69238,1.38574-1.81543,0-.92383-.31836-1.82617-1.39648-1.82617-.86914,0-1.36426.66016-1.36426,1.82617,0,1.15527.48438,1.81543,1.375,1.81543Z"></path><path class="cls-10" d="M417.31152,59.50586v3.54297h-1.5625v-3.22363c0-.93457-.27441-1.38574-1.00098-1.38574-.96777,0-1.20996.6377-1.20996,1.65039v2.95898h-1.5625v-5.6875h1.48535v.79199h.0332c.37402-.60547,1.01172-.94629,1.74902-.94629,1.44141,0,2.06836.7041,2.06836,2.29883Z"></path></g><g><text class="cls-38" transform="translate(524.90961 80.15311)"><tspan x="0" y="0">r</tspan></text><text class="cls-38" transform="translate(520.20454 80.15311)"><tspan x="0" y="0">o</tspan></text><text class="cls-38" transform="translate(517.70747 80.15311)"><tspan x="0" y="0">t</tspan></text><text class="cls-38" transform="translate(515.81879 80.15311)"><tspan x="0" y="0">i</tspan></text><text class="cls-38" transform="translate(513.24555 80.15311)"><tspan x="0" y="0">t</tspan></text><text class="cls-38" transform="translate(508.83735 80.15311)"><tspan x="0" y="0">e</tspan></text><text class="cls-38" transform="translate(503.9809 80.15311)"><tspan x="0" y="0">p</tspan></text><text class="cls-38" transform="translate(497.04438 80.15311)"><tspan x="0" y="0">m</tspan></text><text class="cls-38" transform="translate(492.34028 80.15311)"><tspan x="0" y="0">o</tspan></text><text class="cls-38" transform="translate(486.45161 80.15311)"><tspan x="0" y="0">C</tspan></text><text class="cls-38" transform="translate(256.7519 80.15311)"><tspan x="0" y="0">r</tspan></text><text class="cls-38" transform="translate(252.0478 80.15311)"><tspan x="0" y="0">o</tspan></text><text class="cls-38" transform="translate(249.55024 80.15311)"><tspan x="0" y="0">t</tspan></text><text class="cls-38" transform="translate(247.66157 80.15311)"><tspan x="0" y="0">i</tspan></text><text class="cls-38" transform="translate(245.08833 80.15311)"><tspan x="0" y="0">t</tspan></text><text class="cls-38" transform="translate(240.67963 80.15311)"><tspan x="0" y="0">e</tspan></text><text class="cls-38" transform="translate(235.82319 80.15311)"><tspan x="0" y="0">p</tspan></text><text class="cls-38" transform="translate(228.88715 80.15311)"><tspan x="0" y="0">m</tspan></text><text class="cls-38" transform="translate(224.18305 80.15311)"><tspan x="0" y="0">o</tspan></text><text class="cls-38" transform="translate(218.29438 80.15311)"><tspan x="0" y="0">C</tspan></text></g><g><g><path class="cls-1" d="M226.30073,63.13119l-1.30746,1.68609h-1.94769v4.81484h-2.01984v-4.81484h-2.67797l1.29837-1.68609h6.6546Z"></path><path class="cls-1" d="M228.82532,69.63212h-2.01075v-6.50093h2.01075v6.50093Z"></path><path class="cls-1" d="M237.71393,68.79362c0,.58911-.26757.88366-.80243.88366-.38488,0-.75158-.14429-1.1001-.43288l-3.80506-3.183v3.57072h-2.01984v-5.66243c0-.2403.07669-.43885.23008-.59507.1531-.15622.37096-.23462.65359-.23462.3667,0,.70642.12952,1.01887.38772l3.80506,3.183v-3.57953h2.01984v5.66243Z"></path><path class="cls-1" d="M248.05684,63.13119l-3.85903,4.34588v2.15505h-2.01984v-2.16414l-3.97634-4.33679h2.57884l2.43455,2.6419,2.27207-2.6419h2.56975Z"></path></g><g><path class="cls-1" d="M261.01239,67.95512l-1.29837,1.677h-3.26396c-1.13021,0-2.06642-.31415-2.80892-.94218s-1.11345-1.4171-1.11345-2.36694.3667-1.71904,1.1001-2.30815c.73312-.58911,1.67387-.88366,2.82227-.88366h4.56232l-1.29837,1.68609h-3.26396c-.55332,0-1.01006.14884-1.37051.44623-.36074.29768-.5411.67773-.5411,1.14072,0,.45674.18037.82941.5411,1.118.36045.28859.8172.43288,1.37051.43288h4.56232Z"></path><path class="cls-1" d="M270.11744,66.67465c0,1.97184-1.35262,2.95747-4.05758,2.95747h-.42379c-2.70496,0-4.05758-.98563-4.05758-2.95747v-3.54346h2.01075v3.54346c0,.58911.25848.96802.77544,1.13618.27638.09629.84162.14429,1.69518.14429.67915,0,1.16316-.07215,1.45175-.21644.39056-.18633.58598-.5411.58598-1.06403v-3.54346h2.01984v3.54346Z"></path><path class="cls-1" d="M278.47062,63.13119l-1.30746,1.68609h-1.94769v4.81484h-2.01984v-4.81484h-2.67797l1.29837-1.68609h6.6546Z"></path></g><path class="cls-2" d="M251.70198,69.5898h-2.97494v-9.76147h2.97494v9.76147Z"></path><g><path class="cls-3" d="M255.43433,61.70344c0,.17114-.07783.25649-.2332.25649-.11163,0-.21815-.04175-.31927-.12555l-1.10465-.92414v1.03662h-.58627v-1.64391c0-.06973.02216-.12739.06675-.17284.04431-.04531.10765-.06803.18974-.06803.10623,0,.20508.03764.29569.11262l1.10465.924v-1.03918h.58655v1.64391Z"></path><path class="cls-3" d="M258.9562,60.05954l-.37977.48955h-.56525v1.39778h-.58655v-1.39778h-.77743l.37693-.48955h1.93207Z"></path><path class="cls-3" d="M262.18323,61.46002l-.37693.48685h-1.67274v-1.88733h2.04967l-.37693.48955h-1.08619v.19883h1.37165l-.37693.48699h-.99472v.22511h1.46311Z"></path><path class="cls-3" d="M266.20615,61.94687h-.85071l-.57065-.47379h-.8064v.47379h-.58627v-.96334h1.62814c.09942,0,.1815-.01477.24598-.04445.08209-.03835.12328-.09515.12328-.17014,0-.14657-.12328-.21985-.36926-.21985h-1.62814l.38204-.48955h1.19128c.29484,0,.534.05581.71721.16744.20593.12754.30876.3089.30876.54451,0,.13265-.04147.25266-.12413.36003-.08294.10723-.19769.18974-.34426.2474l.68313.56795Z"></path><path class="cls-3" d="M269.71808,61.70344c0,.17114-.07783.25649-.2332.25649-.11163,0-.21815-.04175-.31927-.12555l-1.10465-.92414v1.03662h-.58627v-1.64391c0-.06973.02216-.12739.06675-.17284.04431-.04531.10765-.06803.18974-.06803.10623,0,.20508.03764.29569.11262l1.10465.924v-1.03918h.58655v1.64391Z"></path><path class="cls-3" d="M271.83336,61.94687l.35335-.48955h.78794l-.48969-.67787-.85071,1.16742h-.72517l1.20946-1.67799c.03835-.05581.09175-.10467.15963-.14657.07527-.04531.1477-.06803.21729-.06803.07158,0,.14401.02272.21729.06803.06476.04019.11703.08905.15708.14657l1.18077,1.67799h-2.21725Z"></path><path class="cls-3" d="M277.25292,61.46002l-.37948.48685h-1.66734v-1.88733h.58371v1.40048h1.46311Z"></path></g></g><g><g><path class="cls-1" d="M494.40073,62.38119l-1.30746,1.68609h-1.94769v4.81484h-2.01984v-4.81484h-2.67797l1.29837-1.68609h6.6546Z"></path><path class="cls-1" d="M496.92532,68.88212h-2.01075v-6.50093h2.01075v6.50093Z"></path><path class="cls-1" d="M505.81393,68.04362c0,.58911-.26757.88366-.80243.88366-.38488,0-.75158-.14429-1.1001-.43288l-3.80506-3.183v3.57072h-2.01984v-5.66243c0-.2403.07669-.43885.23008-.59507.1531-.15622.37096-.23462.65359-.23462.3667,0,.70642.12952,1.01887.38772l3.80506,3.183v-3.57953h2.01984v5.66243Z"></path><path class="cls-1" d="M516.15684,62.38119l-3.85903,4.34588v2.15505h-2.01984v-2.16414l-3.97634-4.33679h2.57884l2.43455,2.6419,2.27207-2.6419h2.56975Z"></path></g><g><path class="cls-1" d="M529.11239,67.20512l-1.29837,1.677h-3.26396c-1.13021,0-2.06642-.31415-2.80892-.94218s-1.11345-1.4171-1.11345-2.36694.3667-1.71904,1.1001-2.30815c.73312-.58911,1.67387-.88366,2.82227-.88366h4.56232l-1.29837,1.68609h-3.26396c-.55332,0-1.01006.14884-1.37051.44623-.36074.29768-.5411.67773-.5411,1.14072,0,.45674.18037.82941.5411,1.118.36045.28859.8172.43288,1.37051.43288h4.56232Z"></path><path class="cls-1" d="M538.21744,65.92465c0,1.97184-1.35262,2.95747-4.05758,2.95747h-.42379c-2.70496,0-4.05758-.98563-4.05758-2.95747v-3.54346h2.01075v3.54346c0,.58911.25848.96802.77544,1.13618.27638.09629.84162.14429,1.69518.14429.67915,0,1.16316-.07215,1.45175-.21644.39056-.18633.58598-.5411.58598-1.06403v-3.54346h2.01984v3.54346Z"></path><path class="cls-1" d="M546.57062,62.38119l-1.30746,1.68609h-1.94769v4.81484h-2.01984v-4.81484h-2.67797l1.29837-1.68609h6.6546Z"></path></g><path class="cls-2" d="M519.80198,68.8398h-2.97494v-9.76147h2.97494v9.76147Z"></path><g><path class="cls-3" d="M523.53433,60.95344c0,.17114-.07783.25649-.2332.25649-.11163,0-.21815-.04175-.31927-.12555l-1.10465-.92414v1.03662h-.58627v-1.64391c0-.06973.02216-.12739.06675-.17284.04431-.04531.10765-.06803.18974-.06803.10623,0,.20508.03764.29569.11262l1.10465.924v-1.03918h.58655v1.64391Z"></path><path class="cls-3" d="M527.0562,59.30954l-.37977.48955h-.56525v1.39778h-.58655v-1.39778h-.77743l.37693-.48955h1.93207Z"></path><path class="cls-3" d="M530.28323,60.71002l-.37693.48685h-1.67274v-1.88733h2.04967l-.37693.48955h-1.08619v.19883h1.37165l-.37693.48699h-.99472v.22511h1.46311Z"></path><path class="cls-3" d="M534.30615,61.19687h-.85071l-.57065-.47379h-.8064v.47379h-.58627v-.96334h1.62814c.09942,0,.1815-.01477.24598-.04445.08209-.03835.12328-.09515.12328-.17014,0-.14657-.12328-.21985-.36926-.21985h-1.62814l.38204-.48955h1.19128c.29484,0,.534.05581.71721.16744.20593.12754.30876.3089.30876.54451,0,.13265-.04147.25266-.12413.36003-.08294.10723-.19769.18974-.34426.2474l.68313.56795Z"></path><path class="cls-3" d="M537.81808,60.95344c0,.17114-.07783.25649-.2332.25649-.11163,0-.21815-.04175-.31927-.12555l-1.10465-.92414v1.03662h-.58627v-1.64391c0-.06973.02216-.12739.06675-.17284.04431-.04531.10765-.06803.18974-.06803.10623,0,.20508.03764.29569.11262l1.10465.924v-1.03918h.58655v1.64391Z"></path><path class="cls-3" d="M539.93336,61.19687l.35335-.48955h.78794l-.48969-.67787-.85071,1.16742h-.72517l1.20946-1.67799c.03835-.05581.09175-.10467.15963-.14657.07527-.04531.1477-.06803.21729-.06803.07158,0,.14401.02272.21729.06803.06476.04019.11703.08905.15708.14657l1.18077,1.67799h-2.21725Z"></path><path class="cls-3" d="M545.35292,60.71002l-.37948.48685h-1.66734v-1.88733h.58371v1.40048h1.46311Z"></path></g></g></svg> 