<?xml version="1.0" encoding="UTF-8"?> <svg xmlns="http://www.w3.org/2000/svg" xmlns:xlink="http://www.w3.org/1999/xlink" id="レイヤー_1" data-name="レイヤー 1" width="500" height="200" viewBox="0 0 500 200"><defs><style> .cls-1, .cls-14, .cls-15, .cls-16, .cls-17, .cls-18, .cls-20, .cls-27, .cls-28, .cls-33, .cls-34, .cls-7, .cls-8, .cls-9 { fill: none; } .cls-2 { clip-path: url(#clip-path); } .cls-3 { fill: url(#名称未設定グラデーション_4); } .cls-4 { clip-path: url(#clip-path-2); } .cls-5 { clip-path: url(#clip-path-3); } .cls-6 { fill: #1d4e90; } .cls-14, .cls-20, .cls-27, .cls-28, .cls-33, .cls-34, .cls-7, .cls-8, .cls-9 { stroke: #040000; } .cls-27, .cls-28, .cls-7, .cls-8, .cls-9 { stroke-miterlimit: 3.86; } .cls-7 { stroke-width: 0.44px; } .cls-8 { stroke-width: 0.92px; } .cls-14, .cls-9 { stroke-width: 1.85px; } .cls-10 { clip-path: url(#clip-path-5); } .cls-11 { fill: url(#名称未設定グラデーション_4-2); } .cls-12 { clip-path: url(#clip-path-6); } .cls-13 { clip-path: url(#clip-path-7); } .cls-15, .cls-17 { stroke: #bd1932; } .cls-15, .cls-16 { stroke-width: 6.12px; } .cls-16, .cls-18 { stroke: #113575; } .cls-17, .cls-18 { stroke-width: 3.06px; } .cls-19 { fill: #040000; } .cls-20 { stroke-width: 1.42px; } .cls-21 { clip-path: url(#clip-path-10); } .cls-22 { clip-path: url(#clip-path-11); } .cls-23 { clip-path: url(#clip-path-12); } .cls-24 { fill: url(#名称未設定グラデーション_4-3); } .cls-25 { clip-path: url(#clip-path-14); } .cls-26 { clip-path: url(#clip-path-15); } .cls-27 { stroke-width: 0.38px; } .cls-28 { stroke-width: 0.81px; } .cls-29 { clip-path: url(#clip-path-16); } .cls-30 { fill: url(#名称未設定グラデーション_4-4); } .cls-31 { clip-path: url(#clip-path-18); } .cls-32 { clip-path: url(#clip-path-19); } .cls-33 { stroke-width: 0.81px; } .cls-34 { stroke-width: 0.8px; } </style><clipPath id="clip-path"><path class="cls-1" d="M417,121.39l1.82.59v7.82s-.16.95,1.26,1.58l1.27.47a2.17,2.17,0,0,1,.78,1.9v1.42a2,2,0,0,1-.71,1l-1.81.94a.9.9,0,0,0-.79,1v2.61s-.15,1,1.27,1.58l1.27.47a2.14,2.14,0,0,1,.78,1.89v1.42a1.92,1.92,0,0,1-.71,1l-1.81.95a.9.9,0,0,0-.79,1v2s-.15,1,1.27,1.58l1.27.47a2.17,2.17,0,0,1,.78,1.9v5.29H466.2V160a1.85,1.85,0,0,1,.73-1.27l1.26-.47c1.42-.48,1.27-1.58,1.27-1.58V154a.9.9,0,0,0-.79-.95l-1.81-.94a2,2,0,0,1-.71-1V149.7a2.16,2.16,0,0,1,.79-1.9l1.26-.47c1.42-.63,1.27-1.58,1.27-1.58V143.7a.9.9,0,0,0-.79-.95l-1.81-.95a2,2,0,0,1-.71-1v-1.42a2.13,2.13,0,0,1,.79-1.89l1.26-.47c1.42-.64,1.27-1.58,1.27-1.58V132.8a.9.9,0,0,0-.79-1l-1.81-.95a2,2,0,0,1-.71-1v-1.42a2.16,2.16,0,0,1,.79-1.9l1.26-.47c1.42-.63,1.26-1.58,1.26-1.58v-2.27h0v-.18l1.23-.67.71-8.64-54.37,0Z"></path></clipPath><linearGradient id="名称未設定グラデーション_4" data-name="名称未設定グラデーション 4" y1="200" x2="1" y2="200" gradientTransform="matrix(54.37, 0, 0, -54.37, 417.02, 11009.74)" gradientUnits="userSpaceOnUse"><stop offset="0" stop-color="#727171"></stop><stop offset="0.52" stop-color="#fff"></stop><stop offset="0.63" stop-color="#dbdbdb"></stop><stop offset="0.88" stop-color="#908f8f"></stop><stop offset="1" stop-color="#727171"></stop></linearGradient><clipPath id="clip-path-2"><rect class="cls-1" x="266.29" y="6.2" width="221.44" height="157.3"></rect></clipPath><clipPath id="clip-path-3"><rect class="cls-1" x="406.55" y="9.83" width="77.55" height="102.5"></rect></clipPath><clipPath id="clip-path-5"><path class="cls-1" d="M324.44,114l4.35,1.42v18.71s-.32,1.94,2.32,3.42A44.48,44.48,0,0,0,360.77,95.6c0-.77,0-1.54-.06-2.3l-36.27,0Z"></path></clipPath><linearGradient id="名称未設定グラデーション_4-2" x1="0" y1="200.27" x2="1" y2="200.27" gradientTransform="matrix(130.09, 0, 0, -130.09, 324.44, 26167.89)" xlink:href="#名称未設定グラデーション_4"></linearGradient><clipPath id="clip-path-6"><path class="cls-1" d="M271.83,95.6A44.47,44.47,0,1,0,316.3,51.13,44.46,44.46,0,0,0,271.83,95.6"></path></clipPath><clipPath id="clip-path-7"><rect class="cls-1" x="298.87" y="-152.42" width="185.55" height="245.27"></rect></clipPath><clipPath id="clip-path-10"><rect class="cls-1" x="52.88" y="93.98" width="90.13" height="85.16"></rect></clipPath><clipPath id="clip-path-11"><path class="cls-1" d="M425.14,171.75l1.09.36v4.69s-.09.57.76.94l.76.29a1.27,1.27,0,0,1,.47,1.13V180a1.12,1.12,0,0,1-.43.61l-1.09.57a.54.54,0,0,0-.47.57v1.56s-.09.57.76.95l.76.28a1.28,1.28,0,0,1,.47,1.14v.85a1.12,1.12,0,0,1-.43.61l-1.09.57a.54.54,0,0,0-.47.57v1.23s-.09.57.76.95l.76.28a1.3,1.3,0,0,1,.47,1.14v3.17h26.4v-.18a1.15,1.15,0,0,1,.44-.77l.76-.28c.86-.29.77-1,.77-1v-1.56a.54.54,0,0,0-.47-.57l-1.09-.57a1.19,1.19,0,0,1-.43-.61v-.86a1.27,1.27,0,0,1,.47-1.13l.76-.28c.86-.38.77-.95.77-.95v-1.23a.54.54,0,0,0-.47-.57L455,184a1.23,1.23,0,0,1-.43-.61v-.86a1.27,1.27,0,0,1,.47-1.13l.76-.29c.86-.38.77-.94.77-.94V178.6a.53.53,0,0,0-.47-.57l-1.09-.57a1.24,1.24,0,0,1-.43-.62V176a1.27,1.27,0,0,1,.47-1.13l.76-.29c.86-.38.76-.94.76-.94v-1.36h0v-.11l.74-.41.42-5.17-32.6,0Z"></path></clipPath><clipPath id="clip-path-12"><rect class="cls-1" x="425.14" y="166.56" width="32.6" height="28.51"></rect></clipPath><linearGradient id="名称未設定グラデーション_4-3" x1="0" y1="200" x2="1" y2="200" gradientTransform="matrix(32.6, 0, 0, -32.6, 425.14, 6700.46)" xlink:href="#名称未設定グラデーション_4"></linearGradient><clipPath id="clip-path-14"><rect class="cls-1" x="418.86" y="104.88" width="46.49" height="61.45"></rect></clipPath><clipPath id="clip-path-15"><rect class="cls-1" x="418.86" y="104.88" width="46.49" height="61.45"></rect></clipPath><clipPath id="clip-path-16"><polygon class="cls-1" points="64.26 158.58 63.53 179.13 109.05 179.13 108.32 158.58 64.26 158.58"></polygon></clipPath><linearGradient id="名称未設定グラデーション_4-4" x1="0" y1="202.84" x2="1" y2="202.84" gradientTransform="matrix(60.44, 0, 0, -60.44, 56.07, 12429.71)" xlink:href="#名称未設定グラデーション_4"></linearGradient><clipPath id="clip-path-18"><rect class="cls-1" x="63.37" y="97.17" width="46.47" height="61.42"></rect></clipPath><clipPath id="clip-path-19"><rect class="cls-1" x="63.37" y="97.17" width="46.47" height="61.42"></rect></clipPath></defs><g><g class="cls-2"><rect class="cls-3" x="417.02" y="112.73" width="54.37" height="47.55"></rect></g><g class="cls-4"><g class="cls-5"><g class="cls-5"><path class="cls-6" d="M481.63,101.76l-2.27-7.23a120.27,120.27,0,0,1,2.27-19.31V72.15l1.24-1.54V68.45h-1.54V62.91l.61-3.38L480.4,58.3v-8l-2.15-1.22.31-3.39,2.15-1.23-3.07-3.08V34.52a61.47,61.47,0,0,0,6.46-20.85L481,10.29H459.79L457.47,13,445.35,10.6l-3.41.3H437v1.54h-3.69v.93h-1.61l-3-3.54H409.09l-2.54,3.69,2.1,13.2,3.69,9-2.1,3.91v6.93h-.92v4.15h.92l-1.85,4.39,1.23,3.69V62l-2.15,2.46s-1.83,18.69,3,29.19A62,62,0,0,0,408,112.33h73.62V101.76"></path></g></g><path class="cls-7" d="M467.11,158.29s-.59.4-4.93.48m-10.65,1.1,10.73-1.1c1.18-.12,1.06-1.11,1.06-1.11l-.24-3.2c-.15-.71-.73-.84-1.3-.79-2.72,0-5.08-.07-8.08.12m15.15-1.1a39.8,39.8,0,0,1-6.32,1.1m4.25-2.23s-2.68,1.06-13.08,2.22m13.41-6.41s-4.21,1.81-22.77,2.52c0,0-14.46.44-22.79,2.77m45.56-5.29s-4.21,1.1-22.77,1.81c0,0-16.41.35-24.74,2.67m49.17-9.51s-4.76,1.74-24.51,2.45c0,0-16.84.39-24.53,2.84m47-6.39S463,143,444.26,144.08c0,0-16.84,1.1-24.53,3.55M467,137.05s-4.21,1.82-22.77,2.53c0,0-14.46.43-22.79,2.76M467,137.05s-4.21,1.11-22.77,1.82c0,0-16.29.27-24.62,2.6m49.13-10s-4.76,1.73-24.51,2.44c0,0-16.84.4-24.53,2.85m47-6.4s-3.74,1.74-22.46,2.84c0,0-16.84,1.11-24.53,3.56M467,126.16s-4.21,1.81-22.77,2.52c0,0-14.46.44-22.79,2.77M467,126.16s-4.21,1.1-22.77,1.81c0,0-16.37.32-24.7,2.65"></path><path class="cls-8" d="M469.56,121.83H419m52.52-9.48-.71,8.63-1.22.68v2.44s.16,1-1.26,1.58l-1.27.48a2.13,2.13,0,0,0-.79,1.89v1.42a2,2,0,0,0,.71,1l1.82.95a.9.9,0,0,1,.79.94V135s.15.94-1.27,1.58l-1.27.47a2.15,2.15,0,0,0-.79,1.89v1.43a2,2,0,0,0,.71,1l1.82.94a.9.9,0,0,1,.79.95v2.05s.15.95-1.27,1.59l-1.27.47a2.13,2.13,0,0,0-.79,1.89v1.42a2,2,0,0,0,.71,1l1.82.95a.9.9,0,0,1,.79.94v2.61s.15,1.11-1.27,1.58l-1.27.48a1.85,1.85,0,0,0-.73,1.27v.3h-44v-5.29a2.13,2.13,0,0,0-.79-1.89l-1.26-.47c-1.42-.64-1.28-1.59-1.28-1.59v-2a.9.9,0,0,1,.79-1l1.82-.94a2,2,0,0,0,.71-1v-1.42a2.16,2.16,0,0,0-.79-1.9l-1.26-.47c-1.42-.63-1.28-1.58-1.28-1.58v-2.6a.9.9,0,0,1,.79-.95l1.82-1a2,2,0,0,0,.71-1v-1.43a2.13,2.13,0,0,0-.79-1.89l-1.26-.48c-1.42-.63-1.27-1.58-1.27-1.58v-7.81l-1.81-.6v-8.66"></path><path class="cls-8" d="M481.63,75.22c-5.15,27.39,0,32.64,0,32.64v4.47H408c0-36.8,19.16-36.49,62.55-95.58"></path><path class="cls-8" d="M406.55,13.52c2.77-3.69,11.5,1.27,12,9.94m13.18-10.09-3-3.54H409.09l-2.54,3.69s1.28,15.54,5.79,22.17m31.44,40.67H431.16v26.86h40.32V77.68m0,2s7.69-1.66,10.15-4.43V72.14l1.24-1.54V68.45h-1.54V62.91l.61-3.38L480.4,58.3V54.6m-1,39.93,2.27,7.23v6.1m-10.15-4.64L468.4,106H439.78l-8.62-2.77M448,25S430.24,50.6,425.4,70.17m27.92-55.88V28.75M464.4,14.91,453.32,28.75l-8-5.54m0-10.15C437.63,18,427.47,30,425,32.75l-.31,1.54-6.15,6.47.31,1.84-5.24,5.85-.3,2.77-3.7,5.84V62l-2.15,2.46s-1.83,18.69,3,29.19m47-80.68L445.35,10.6M463,54.44c-2.88,16.47-21.12,39.79-25.3,43.47M481,10.29l3.08,3.38C481,38,466.25,50.6,453.94,64.14s-18.16,22.78-18.16,31.08c0,2.77,1.23,2.77,4,2.77s24-9.23,31.39-20.31l-.31-2.15,1.54-.31-.3-2.46,4.3-4.62-.31-5.23,2.16-1.54V54.91l2.15-.31V50.29l-2.15-1.23.31-3.38,2.15-1.23-3.08-3.08v-6M481,10.29H459.79l-4,4.62L445.35,10.6l-3.41.3H437v1.54h-3.69v.93h-3.08v.92h-3.38v1.23h-4.93v3.39M480.4,58.53h-2.15M481,63.14h-4.93m5.16,3h-4.93m5.05,2.28H476.4m-4.3,4.31H481m-8.55,2.46h8.85M437,12.44s-.92,1.77,8.34.62m-7.18,5.85H419.7v2.46l-2.3,4.15-3.93,4.62V33.6l-3.23,6v6.93h-.92v4.15h.92l-1.85,4.39,1.23,3.69m-.88-4.53h2.42m-.92-3.55h3.23m-3.23-4.15h4.85m-4.85-1.62h6.38m-6.38-3.23h8.23m-7.08-4.16h9.85m-7.77-3.23H424.7m-11.23-4.15h14.08m-10.39-4.62h14.08M419.7,21.37h15.24m27.92-9.23h17.35M459.79,10.6l3.07,1.54,1.54,2.77,4.31.61,1.85,1.23s9.84-1.54,10.46-6.46"></path><path class="cls-9" d="M398.77,117.83a14.52,14.52,0,1,1,14.52,14.52A14.53,14.53,0,0,1,398.77,117.83Z"></path></g><polyline class="cls-9" points="358.31 106.09 362.03 122.44 399.19 122.44"></polyline><g class="cls-10"><rect class="cls-11" x="324.44" y="93.28" width="36.33" height="44.26"></rect></g><g class="cls-12"><g class="cls-13"><g class="cls-13"><path class="cls-6" d="M478.53,67.55l-5.44-17.3C473.32,39,474.78,24,478.53,4V-3.32L481.47-7v-5.14h-3.68V-25.41l1.48-8.1-3.68-3V-55.6l-5.16-2.95.74-8.1,5.15-2.93L469-76.95V-93.33a146.46,146.46,0,0,0,15.46-49.89l-7.36-8.1H426.25l-5.54,6.39-29-5.65-8.17.73H371.77v3.68h-8.84V-144h-3.86l-7.18-8.46H305l-6.08,8.83,5,31.6,8.85,21.44-5,9.37v16.56H305.5v9.94h2.21l-4.42,10.5,2.95,8.83v7.74l-5.16,5.88S296.7,23,308.21,48.11c-3.91,12.53-5.85,26.77-5.85,44.73H478.53V67.55"></path></g></g><path class="cls-7" d="M443.78,202.81s-1.42.94-11.8,1.13m-25.48,2.65,25.67-2.65c2.83-.28,2.54-2.63,2.54-2.63l-.56-7.66c-.38-1.71-1.76-2-3.12-1.89-6.52-.1-12.15-.18-19.34.28m36.25-2.65s-3.27,1.14-15.12,2.65M443,186.69s-6.39,2.55-31.29,5.32m32.09-15.35s-10.09,4.35-54.48,6.05c0,0-34.6,1-54.53,6.61m109-12.66s-10.09,2.65-54.48,4.35c0,0-39.26.82-59.19,6.39m117.64-22.75s-11.4,4.15-58.63,5.85c0,0-40.31.94-58.7,6.79M442.84,162s-8.95,4.15-53.72,6.8c0,0-40.31,2.64-58.7,8.49M443.59,152s-10.08,4.34-54.47,6c0,0-34.61,1-54.54,6.62m109-12.66s-10.08,2.65-54.47,4.34c0,0-39,.67-58.92,6.23m117.55-24s-11.4,4.15-58.63,5.85c0,0-40.31,1-58.7,6.81m112.42-15.29s-8.95,4.14-53.72,6.78c0,0-40.31,2.66-58.7,8.51m113.17-25.31s-10.08,4.34-54.47,6c0,0-34.61,1-54.54,6.61m109-12.65s-10.08,2.63-54.47,4.34c0,0-39.18.75-59.11,6.33"></path><path class="cls-8" d="M449.65,115.57h-121M454.26,92.88l-1.7,20.64-2.92,1.63V121s.37,2.27-3,3.78l-3,1.14s-1.88,1.13-1.88,4.53v3.39a4.81,4.81,0,0,0,1.69,2.46l4.35,2.27a2.16,2.16,0,0,1,1.89,2.27l0,6.24s.35,2.25-3.05,3.77l-3,1.14s-1.88,1.13-1.88,4.52v3.42a4.77,4.77,0,0,0,1.69,2.45l4.35,2.27a2.15,2.15,0,0,1,1.89,2.27l0,4.91s.35,2.26-3.05,3.78l-3,1.12s-1.88,1.14-1.88,4.54v3.39a4.77,4.77,0,0,0,1.69,2.46l4.35,2.27a2.17,2.17,0,0,1,1.89,2.27l0,6.23s.35,2.65-3.05,3.78l-3,1.14a4.51,4.51,0,0,0-1.75,3v.74H336.47V193.93c0-3.41-1.89-4.54-1.89-4.54l-3-1.13c-3.39-1.51-3.05-3.78-3.05-3.78l0-4.91a2.16,2.16,0,0,1,1.89-2.28l4.35-2.25a4.79,4.79,0,0,0,1.7-2.46v-3.41c0-3.4-1.89-4.52-1.89-4.52l-3-1.14c-3.39-1.51-3.05-3.77-3.05-3.77l0-6.24a2.16,2.16,0,0,1,1.89-2.27l4.35-2.27a4.74,4.74,0,0,0,1.7-2.44v-3.41c0-3.4-1.89-4.54-1.89-4.54l-3-1.13c-3.39-1.51-3-3.77-3-3.77V115l-4.35-1.44V92.81"></path><path class="cls-8" d="M478.53,4c-12.33,65.54,0,78.09,0,78.09V92.84H302.36c0-88.06,45.84-87.32,149.67-228.7"></path><path class="cls-8" d="M298.87-143.59c6.63-8.83,27.53,3,28.68,23.79M359.06-144l-7.17-8.46H305l-6.08,8.83s3.07,37.18,13.87,53M388,6.76H357.77V71.05h96.47V9.94m0,4.7s18.4-4,24.29-10.6V-3.32L481.47-7v-5.14h-3.68V-25.41l1.48-8.1-3.68-3v-8.83m-2.5,95.53,5.44,17.31V82.13M454.24,71.05l-7.37,6.62H378.39l-20.62-6.62M398-116s-42.45,61.14-54,108m66.81-133.69v34.61m26.51-33.13-26.51,33.13-19.08-13.25m0-24.3c-18.47,11.78-42.78,40.49-48.66,47.12l-.74,3.68L327.59-78.43l.73,4.42L315.8-60l-.73,6.63-8.83,14v11.79l-5.16,5.88S296.7,23,308.21,48.11m112.51-193-29-5.65m42.16,104.9c-6.88,39.41-50.52,95.2-60.53,104M477.06-151.32l7.36,8.1C477.06-85,441.72-54.87,412.26-22.47S368.81,32,368.81,51.9c0,6.63,3,6.63,9.58,6.63S435.83,36.44,453.5,9.94l-.74-5.17L456.44,4l-.73-5.89,10.31-11-.74-12.52,5.15-3.69V-44.56l5.16-.73V-55.6l-5.16-2.95.74-8.1,5.15-2.93L469-76.95v-14.4m8.09-60H426.25l-9.57,11-25-10.31-8.17.73H371.77v3.68h-8.84V-144h-7.37v2.21h-8.09v2.94H335.68v8.1M475.59-35.9h-5.16m6.53,11H465.18m12.33,7.23H465.74m12.05,5.47H466M455.71-1.85h21.18M456.44,4h21.17M371.77-146.17s-2.21,4.24,19.94,1.48m-17.18,14H330.35v5.9l-5.52,9.94-9.39,11.05v8.28l-7.73,14.36v16.57H305.5v9.93h2.21l-4.42,10.5,2.95,8.83m-2.11-10.83h5.79m-2.21-8.5h7.73m-7.73-9.93h11.6m-11.6-3.87H323m-15.27-7.74h19.68m-16.92-9.94H334m-18.58-7.73h26.87m-26.87-9.93h33.69m-24.85-11.05H358m-27.62-9.94H366.8m66.82-22.09h41.5m-48.87-3.68,7.37,3.68,3.68,6.63,10.31,1.46,4.42,2.95s23.56-3.68,25-15.46"></path></g><g class="cls-4"><path class="cls-14" d="M360.77,95.6A44.48,44.48,0,1,1,316.3,51.13,44.47,44.47,0,0,1,360.77,95.6Z"></path></g><line class="cls-15" x1="301.76" y1="95.23" x2="322.81" y2="95.23"></line><line class="cls-16" x1="324.59" y1="116.25" x2="322.16" y2="92.35"></line><line class="cls-17" x1="482.15" y1="113.86" x2="473.83" y2="113.86"></line><line class="cls-18" x1="473.08" y1="112.14" x2="472.05" y2="121.49"></line><line class="cls-17" x1="407.62" y1="114.3" x2="417" y2="114.3"></line><line class="cls-18" x1="415.92" y1="112.7" x2="416.95" y2="121.49"></line><rect class="cls-19" x="6.95" y="46.05" width="12.08" height="12.1"></rect><rect class="cls-20" x="0.71" y="38.86" width="242.36" height="145.98"></rect><g class="cls-21"><g class="cls-22"><g class="cls-23"><rect class="cls-24" x="425.14" y="166.56" width="32.6" height="28.51"></rect></g></g></g><g class="cls-21"><g class="cls-25"><g class="cls-26"><path class="cls-6" d="M463.89,160l-1.38-4.33a69.68,69.68,0,0,1,1.38-11.58v-1.84l.72-.93V140h-.92V136.7l.37-2-.93-.73v-4.8l-1.28-.74.18-2,1.31-.74-1.86-1.84v-4.1a36.42,36.42,0,0,0,3.87-12.5l-1.86-2H450.77l-1.38,1.6-7.27-1.42-2.05.19h-2.94v.92h-2.22V107h-1l-1.79-2.12H420.39l-1.53,2.21,1.26,7.92,2.22,5.37-1.26,2.35v4.15h-.56v2.49h.56L420,132l.74,2.21v1.94l-1.29,1.47s-1.1,11.21,1.78,17.5a37.1,37.1,0,0,0-1.46,11.21h44.15V160"></path></g></g><path class="cls-27" d="M455.17,193.88s-.35.23-3,.28m-6.39.66,6.44-.66c.71-.07.64-.66.64-.66l-.15-1.92c-.09-.42-.44-.5-.78-.47-1.63,0-3-.05-4.84.07m9.09-.66a24.53,24.53,0,0,1-3.79.66m2.54-1.34s-1.6.64-7.84,1.33m8-3.84s-2.53,1.09-13.65,1.51c0,0-8.67.26-13.66,1.66m27.31-3.17s-2.53.66-13.65,1.09c0,0-9.83.2-14.83,1.6m29.48-5.7s-2.86,1-14.7,1.46c0,0-10.09.24-14.7,1.7m28.17-3.83s-2.25,1-13.47,1.71c0,0-10.09.66-14.7,2.12m28.36-6.33s-2.53,1.08-13.66,1.51c0,0-8.67.26-13.66,1.66m27.32-3.17s-2.53.66-13.66,1.08c0,0-9.76.17-14.76,1.56m29.46-6s-2.86,1.05-14.7,1.47c0,0-10.09.24-14.7,1.7m28.17-3.83s-2.25,1-13.47,1.71c0,0-10.09.66-14.7,2.12m28.36-6.34s-2.53,1.09-13.66,1.52c0,0-8.67.26-13.66,1.65m27.32-3.17s-2.53.66-13.66,1.09c0,0-9.81.19-14.8,1.58"></path><path class="cls-28" d="M456.65,172H426.31m31.49-5.68-.42,5.17-.73.41v1.46s.1.57-.76,1l-.76.28a1.29,1.29,0,0,0-.48,1.14v.85a1.24,1.24,0,0,0,.43.62l1.09.56a.55.55,0,0,1,.48.57v1.57s.1.56-.76.94l-.76.29a1.26,1.26,0,0,0-.48,1.13v.85a1.24,1.24,0,0,0,.43.62l1.09.57a.54.54,0,0,1,.48.57v1.23s.1.56-.76.94l-.76.29a1.26,1.26,0,0,0-.48,1.13v.85a1.24,1.24,0,0,0,.43.62l1.09.57a.53.53,0,0,1,.48.56v1.57s.1.66-.76.94l-.76.29a1.07,1.07,0,0,0-.44.76v.19H428.28v-3.18a1.27,1.27,0,0,0-.47-1.13l-.76-.29c-.85-.38-.76-.94-.76-.94v-1.23a.53.53,0,0,1,.47-.57l1.09-.57a1.18,1.18,0,0,0,.42-.62v-.85a1.27,1.27,0,0,0-.47-1.13l-.76-.29c-.85-.38-.76-.94-.76-.94v-1.56a.55.55,0,0,1,.47-.58l1.09-.56a1.18,1.18,0,0,0,.42-.62v-.85a1.3,1.3,0,0,0-.47-1.14l-.76-.28c-.85-.38-.75-.95-.75-.95v-4.68l-1.09-.36v-5.19"></path><path class="cls-28" d="M463.89,144.08c-3.1,16.42,0,19.56,0,19.56v2.69H419.74c0-22.06,11.48-21.88,37.5-57.3"></path><path class="cls-28" d="M418.86,107.09c1.67-2.21,6.9.76,7.19,6m7.89-6.06-1.79-2.12H420.39l-1.53,2.21s.77,9.32,3.48,13.29m18.83,24.38h-7.55v16.1H457.8v-15.3m0,1.17s4.6-1,6.09-2.65v-1.84l.72-.93V140h-.92V136.7l.37-2-.93-.74v-2.21m-.62,23.93,1.38,4.34v3.65m-6.09-2.78L456,162.53H438.79l-5.17-1.67M443.7,114s-10.64,15.32-13.54,27.05m16.74-33.49v8.66m6.65-8.3-6.65,8.3-4.78-3.31m0-6.09c-4.62,3-10.71,10.14-12.19,11.8l-.18.93-3.69,3.87.18,1.11-3.13,3.5-.19,1.66-2.21,3.51v3l-1.29,1.47s-1.1,11.21,1.78,17.5m28.19-48.36-7.27-1.42m10.56,26.28C451,141.5,440,155.47,437.52,157.68m26-52.52,1.86,2c-1.86,14.57-10.7,22.13-18.08,30.25s-10.87,13.65-10.87,18.63c0,1.66.73,1.66,2.39,1.66s14.38-5.53,18.82-12.17l-.18-1.29.92-.19-.19-1.48,2.58-2.76-.18-3.14,1.29-.92V131.9l1.28-.18v-2.58l-1.28-.74.18-2,1.31-.74-1.86-1.84v-3.61m2-15H450.77l-2.39,2.76-6.26-2.58-2.05.19h-2.94v.92h-2.21V107h-1.86v.56h-2v.73h-3v2m35,23.75h-1.28m1.61,2.77h-2.93m3.12,1.81h-3m3,1.37h-2.95m-2.58,2.58h5.27m-5.08,1.48h5.3m-26.52-37.63s-.56,1.06,5,.37m-4.31,3.5H426.75v1.48l-1.38,2.49L423,117.06v2.07l-1.94,3.6v4.15h-.55v2.49h.55L420,132l.74,2.21m-.53-2.71h1.45m-.55-2.13H423m-1.94-2.49H424m-2.9-1h3.83M421.08,124H426m-4.24-2.49h5.9M423,119.55h6.73M423,117.06h8.44m-6.23-2.77h8.43m-6.91-2.49h9.13m16.74-5.54H463m-12.25-.92,1.85.92.93,1.66,2.59.37,1.1.74s5.89-.92,6.25-3.87"></path></g><g class="cls-29"><rect class="cls-30" x="63.53" y="158.58" width="45.51" height="20.56"></rect></g><g class="cls-21"><polygon class="cls-28" points="114.75 294.44 109.49 191.77 108.32 158.58 64.26 158.58 63.09 191.77 57.82 294.44 56.07 304.54 56.07 416.46 56.07 520.25 58.12 522.89 86.23 522.9 114.46 522.89 116.51 520.25 116.51 415.05 116.51 414.33 116.51 304.54 114.75 294.44"></polygon><g class="cls-31"><g class="cls-32"><path class="cls-6" d="M108.36,152.26,107,147.92a71.47,71.47,0,0,1,1.36-11.57v-1.84l.74-.92v-1.3h-.92V129l.37-2-.92-.74v-4.79l-1.29-.74.18-2,1.29-.74L106,116.07V112a36.79,36.79,0,0,0,3.87-12.5l-1.85-2H95.27L93.89,99l-7.26-1.41-2,.18h-3v.93H79.41v.55h-1l-1.8-2.12H64.89l-1.52,2.21,1.26,7.91,2.21,5.37L65.59,115v4.15H65v2.49h.56l-1.11,2.63.74,2.21v1.94l-1.3,1.47s-1.09,11.2,1.79,17.49a37,37,0,0,0-1.46,11.2h44.11v-6.33"></path></g></g><path class="cls-28" d="M108.36,136.35c-3.08,16.41,0,19.56,0,19.56v2.68H64.25c0-22.06,11.47-21.87,37.47-57.27"></path><path class="cls-28" d="M63.37,99.38c1.66-2.21,6.89.76,7.19,6m7.89-6-1.8-2.12H64.89l-1.52,2.21s.77,9.31,3.47,13.28M85.68,137H78.12v16.1h24.16v-15.3m0,1.17s4.61-1,6.08-2.65v-1.84l.74-.93v-1.29h-.92V129l.37-2-.92-.74V124M107,147.92l1.36,4.34v3.65m-6.08-2.78-1.84,1.66H83.28l-5.16-1.66M88.2,106.28s-10.63,15.32-13.53,27M91.4,99.84v8.67m6.64-8.3-6.64,8.3-4.77-3.32m0-6.09c-4.64,3-10.72,10.15-12.19,11.8l-.19.93-3.69,3.87.19,1.11-3.14,3.5L67.43,122l-2.21,3.5v2.95l-1.3,1.48s-1.09,11.2,1.79,17.49M93.89,99l-7.26-1.41M97.18,123.9c-1.72,9.87-12.65,23.84-15.16,26m26-52.51,1.84,2C108,114,99.15,121.6,91.77,129.71s-10.89,13.65-10.89,18.63c0,1.66.74,1.66,2.4,1.66s14.39-5.53,18.82-12.17l-.19-1.3.92-.18-.18-1.47,2.58-2.77-.18-3.13,1.29-.93v-3.87l1.29-.18v-2.58l-1.29-.74.18-2,1.29-.74L106,116.07v-3.61m2-15H95.27l-2.39,2.77-6.25-2.58-2,.18h-3v.93h-2.2v.55H77.57v.55h-2v.74h-3v2m35,23.74h-1.29m1.63,2.77h-3m3.09,1.81h-3m3,1.36h-3m-2.58,2.59H108m-5.12,1.47h5.31M81.62,98.74s-.55,1.05,5,.36m-4.31,3.51H71.25v1.47l-1.38,2.49-2.35,2.77v2.07L65.59,115v4.15H65v2.49h.56l-1.11,2.63.74,2.21m-.54-2.72h1.46m-.55-2.12h1.93m-1.93-2.49h2.9m-2.9-1h3.82m-3.82-1.94h4.92m-4.23-2.49h5.9m-4.66-1.93h6.73m-6.73-2.49H76m-6.23-2.77h8.44m-6.92-2.49h9.13m16.74-5.53h10.39m-12.24-.92,1.85.92.92,1.66,2.58.37,1.1.74s5.91-.93,6.28-3.88"></path></g><line class="cls-33" x1="83.81" y1="71.09" x2="83.81" y2="89.98"></line><polygon class="cls-19" points="81.12 87.66 83.81 98.17 86.69 87.66 81.12 87.66"></polygon><line class="cls-33" x1="136.91" y1="104.72" x2="117.17" y2="104.72"></line><polygon class="cls-19" points="119.5 102.03 108.99 104.73 119.5 107.61 119.5 102.03"></polygon><path class="cls-19" d="M312.44,158.58h-3.33v-1.12h8v1.12h-3.34v8.88h-1.33Z"></path><path class="cls-19" d="M323.19,167.43a1.73,1.73,0,0,1-.85.19c-.62,0-1-.33-1-1.12a3.15,3.15,0,0,1-2.55,1.12c-1.31,0-2.39-.57-2.39-2,0-1.64,1.22-2,2.45-2.22s2.44-.16,2.44-1.07-.87-1.2-1.61-1.2c-1,0-1.76.3-1.81,1.37h-1.19c.07-1.79,1.44-2.42,3.07-2.42,1.3,0,2.71.29,2.71,2v3.72c0,.56,0,.81.38.81a1,1,0,0,0,.36-.07Zm-1.93-3.71c-.92.68-3.61,0-3.61,1.79,0,.78.67,1.06,1.4,1.06,1.57,0,2.21-1,2.21-1.64Z"></path><path class="cls-19" d="M324.33,160.21h1.19v1h0a2.45,2.45,0,0,1,2.32-1.14c2.22,0,3.33,1.76,3.33,3.81s-1.09,3.76-3.31,3.76a2.78,2.78,0,0,1-2.34-1.13h0v3.74h-1.19Zm3.36.89c-1.61,0-2.22,1.38-2.22,2.73s.65,2.74,2.29,2.74,2.17-1.38,2.17-2.8S329.23,161.1,327.69,161.1Z"></path><path class="cls-19" d="M338.76,165.16a2.89,2.89,0,0,1-3.09,2.46c-2.31,0-3.41-1.61-3.48-3.81a3.48,3.48,0,0,1,3.41-3.76c2.56,0,3.34,2.39,3.27,4.14h-5.42a2.14,2.14,0,0,0,2.26,2.38,1.73,1.73,0,0,0,1.88-1.41Zm-1.15-2a2.08,2.08,0,0,0-2.08-2,2.05,2.05,0,0,0-2.08,2Z"></path><path class="cls-19" d="M340.1,160.21h1.12v1.53h0a2.6,2.6,0,0,1,2.66-1.69v1.26c-1.92,0-2.62,1.08-2.62,2.92v3.23H340.1Z"></path><path class="cls-19" d="M271.14,147.25h6.57v1.12h-5.24v3.18h4.59v1.12h-4.59v4.58h-1.33Z"></path><path class="cls-19" d="M285,157.22a1.62,1.62,0,0,1-.85.2c-.62,0-1-.34-1-1.12a3.18,3.18,0,0,1-2.55,1.12c-1.32,0-2.4-.58-2.4-2,0-1.64,1.22-2,2.46-2.23s2.43-.15,2.43-1.06c0-1.06-.87-1.21-1.61-1.21-1,0-1.75.31-1.8,1.37h-1.2c.07-1.79,1.45-2.42,3.07-2.42,1.31,0,2.72.29,2.72,2v3.72c0,.57,0,.82.38.82a1.21,1.21,0,0,0,.36-.07Zm-1.93-3.71c-.93.69-3.61,0-3.61,1.79,0,.79.67,1.07,1.4,1.07,1.56,0,2.21-1,2.21-1.64Z"></path><path class="cls-19" d="M291,152.33a1.67,1.67,0,0,0-1.79-1.44c-1.72,0-2.26,1.37-2.26,2.83s.61,2.65,2.12,2.65a1.86,1.86,0,0,0,2-1.77h1.22a3,3,0,0,1-3.2,2.82c-2.21,0-3.39-1.53-3.39-3.7s1.12-3.88,3.42-3.88c1.65,0,2.94.77,3.12,2.49Z"></path><path class="cls-19" d="M299.73,155a2.91,2.91,0,0,1-3.1,2.47c-2.31,0-3.4-1.61-3.47-3.81a3.48,3.48,0,0,1,3.4-3.77c2.57,0,3.35,2.4,3.28,4.15h-5.42a2.13,2.13,0,0,0,2.26,2.38,1.72,1.72,0,0,0,1.87-1.42Zm-1.15-2a2.09,2.09,0,0,0-2.09-2.05,2.06,2.06,0,0,0-2.07,2.05Z"></path><path class="cls-19" d="M420.06,167.09h4.38c2,0,3.07,1.09,3.07,2.95a2.72,2.72,0,0,1-3.07,3h-3.05v4.09h-1.33Zm1.33,4.79H424c1.52,0,2.19-.65,2.19-1.84s-.67-1.83-2.19-1.83h-2.6Z"></path><path class="cls-19" d="M428.71,169.85h1.12v1.52h0a2.62,2.62,0,0,1,2.66-1.69v1.26c-1.92,0-2.62,1.08-2.62,2.93v3.22h-1.19Z"></path><path class="cls-19" d="M439.49,174.79a2.9,2.9,0,0,1-3.09,2.47c-2.31,0-3.41-1.61-3.48-3.81a3.48,3.48,0,0,1,3.41-3.77c2.56,0,3.34,2.39,3.27,4.14h-5.42a2.15,2.15,0,0,0,2.26,2.39,1.74,1.74,0,0,0,1.88-1.42Zm-1.15-2a2.08,2.08,0,0,0-2.08-2,2.05,2.05,0,0,0-2.08,2Z"></path><path class="cls-19" d="M445.82,172.17a1.67,1.67,0,0,0-1.79-1.44c-1.73,0-2.26,1.37-2.26,2.83s.6,2.65,2.12,2.65a1.86,1.86,0,0,0,2-1.77h1.21a3,3,0,0,1-3.19,2.82c-2.21,0-3.39-1.53-3.39-3.7s1.12-3.88,3.42-3.88c1.65,0,2.94.77,3.12,2.49Z"></path><path class="cls-19" d="M449.64,168.54h-1.19v-1.45h1.19Zm-1.19,1.31h1.19v7.24h-1.19Z"></path><path class="cls-19" d="M452.17,174.8c0,1.07,1,1.41,1.95,1.41.74,0,1.75-.17,1.75-1.08,0-1.87-4.73-.61-4.73-3.39,0-1.46,1.42-2.06,2.7-2.06,1.62,0,2.86.5,3,2.27h-1.19c-.07-.93-.91-1.22-1.68-1.22s-1.54.19-1.54.92,1.26,1,2.36,1.26,2.37.68,2.37,2.06c0,1.74-1.61,2.29-3.08,2.29-1.63,0-3-.66-3.07-2.46Z"></path><path class="cls-19" d="M459.66,168.54h-1.19v-1.45h1.19Zm-1.19,1.31h1.19v7.24h-1.19Z"></path><path class="cls-19" d="M464.56,169.68c2.3,0,3.52,1.66,3.52,3.79s-1.22,3.79-3.52,3.79-3.51-1.67-3.51-3.79S462.27,169.68,464.56,169.68Zm0,6.53c1.25,0,2.26-1,2.26-2.74s-1-2.74-2.26-2.74-2.25,1-2.25,2.74S463.32,176.21,464.56,176.21Z"></path><path class="cls-19" d="M469.43,169.85h1.12V171h0a2.53,2.53,0,0,1,2.36-1.31c1.9,0,2.49,1.09,2.49,2.65v4.76h-1.19v-4.9a1.36,1.36,0,0,0-1.47-1.46,2,2,0,0,0-2.15,2.27v4.09h-1.19Z"></path><path class="cls-19" d="M430.25,181.84h1.44v1h-1.44v4.5c0,.56.15.65.9.65h.54v1.05h-.91c-1.23,0-1.72-.26-1.72-1.59v-4.61h-1.23v-1h1.23v-2.17h1.19Z"></path><path class="cls-19" d="M432.88,179.08h1.19v3.83h0a2.43,2.43,0,0,1,2.28-1.23c1.91,0,2.5,1.09,2.5,2.64v4.77h-1.19v-4.91a1.36,1.36,0,0,0-1.47-1.45,2,2,0,0,0-2.15,2.27v4.09h-1.19Z"></path><path class="cls-19" d="M440.58,181.84h1.12v1.53h0a2.59,2.59,0,0,1,2.66-1.69v1.26c-1.92,0-2.62,1.08-2.62,2.92v3.23h-1.19Z"></path><path class="cls-19" d="M451.37,186.79a2.9,2.9,0,0,1-3.1,2.46c-2.31,0-3.4-1.61-3.48-3.81a3.48,3.48,0,0,1,3.41-3.76c2.56,0,3.35,2.39,3.28,4.14h-5.42a2.13,2.13,0,0,0,2.25,2.38,1.72,1.72,0,0,0,1.88-1.41Zm-1.15-2a2.09,2.09,0,0,0-2.09-2,2,2,0,0,0-2.07,2Z"></path><path class="cls-19" d="M459.13,189.06a1.73,1.73,0,0,1-.85.19c-.62,0-1-.33-1-1.12a3.15,3.15,0,0,1-2.55,1.12c-1.31,0-2.39-.57-2.39-2,0-1.64,1.21-2,2.45-2.22s2.43-.16,2.43-1.07-.86-1.2-1.61-1.2c-1,0-1.75.31-1.8,1.37h-1.19c.07-1.79,1.44-2.42,3.06-2.42,1.31,0,2.72.29,2.72,2v3.72c0,.56,0,.81.38.81a1,1,0,0,0,.36-.07Zm-1.93-3.71c-.92.68-3.61,0-3.61,1.79,0,.78.67,1.06,1.4,1.06,1.57,0,2.21-1,2.21-1.64Z"></path><path class="cls-19" d="M466.64,189.09h-1.19v-1h0a2.43,2.43,0,0,1-2.31,1.14c-2.23,0-3.34-1.76-3.34-3.81s1.1-3.76,3.31-3.76a2.78,2.78,0,0,1,2.34,1.13h0v-3.73h1.19Zm-3.36-.89c1.61,0,2.21-1.38,2.21-2.73s-.64-2.74-2.28-2.74-2.17,1.38-2.17,2.8S461.74,188.2,463.28,188.2Z"></path><line class="cls-34" x1="306.93" y1="103.79" x2="281.81" y2="144.59"></line><polygon class="cls-19" points="304.42 104.01 310.1 98.22 308.07 106.08 304.42 104.01"></polygon><line class="cls-34" x1="320.15" y1="122.19" x2="311.9" y2="153.9"></line><polygon class="cls-19" points="317.87 123.26 321.23 115.88 322.01 123.96 317.87 123.26"></polygon><path class="cls-19" d="M23,45.87h1.52v4.92h6V45.87h1.52V57.3H30.57V52.07h-6V57.3H23Z"></path><path class="cls-19" d="M41.41,54.68a3.31,3.31,0,0,1-3.53,2.82c-2.64,0-3.89-1.85-4-4.36s1.63-4.31,3.89-4.31c2.93,0,3.82,2.74,3.74,4.74H35.35a2.44,2.44,0,0,0,2.57,2.72,2,2,0,0,0,2.15-1.61ZM40.1,52.37A2.38,2.38,0,0,0,37.72,50a2.34,2.34,0,0,0-2.37,2.33Z"></path><path class="cls-19" d="M50.28,57.27a1.87,1.87,0,0,1-1,.23c-.7,0-1.15-.39-1.15-1.29a3.61,3.61,0,0,1-2.91,1.29c-1.51,0-2.74-.66-2.74-2.33,0-1.87,1.39-2.29,2.8-2.54s2.78-.18,2.78-1.22c0-1.2-1-1.37-1.84-1.37-1.15,0-2,.35-2.06,1.56H42.82c.08-2,1.65-2.77,3.5-2.77,1.49,0,3.11.34,3.11,2.28v4.26c0,.64,0,.92.43.92a1.35,1.35,0,0,0,.42-.08ZM48.07,53c-1.06.78-4.13,0-4.13,2,0,.89.77,1.21,1.6,1.21,1.79,0,2.53-1.1,2.53-1.87Z"></path><path class="cls-19" d="M58.93,57.3H57.57V56.18h0A2.78,2.78,0,0,1,54.9,57.5c-2.54,0-3.81-2-3.81-4.36s1.25-4.31,3.78-4.31a3.18,3.18,0,0,1,2.67,1.3h0V45.87h1.36Zm-3.84-1c1.84,0,2.53-1.58,2.53-3.12S56.88,50,55,50s-2.48,1.58-2.48,3.2S53.33,56.29,55.09,56.29Z"></path><path class="cls-19" d="M72.53,54.68A3.31,3.31,0,0,1,69,57.5c-2.65,0-3.89-1.85-4-4.36s1.63-4.31,3.89-4.31c2.92,0,3.82,2.74,3.74,4.74H66.47A2.44,2.44,0,0,0,69,56.29a2,2,0,0,0,2.15-1.61Zm-1.31-2.31A2.38,2.38,0,0,0,68.84,50a2.34,2.34,0,0,0-2.37,2.33Z"></path><path class="cls-19" d="M76,53,73.12,49h1.75l2,2.89L78.92,49h1.63L77.7,52.84l3.2,4.46H79.16l-2.31-3.42-2.3,3.42H72.9Z"></path><path class="cls-19" d="M87.41,51.68a1.9,1.9,0,0,0-2-1.64c-2,0-2.57,1.56-2.57,3.23s.69,3,2.41,3a2.13,2.13,0,0,0,2.28-2h1.39a3.42,3.42,0,0,1-3.65,3.22c-2.53,0-3.87-1.75-3.87-4.23s1.28-4.44,3.9-4.44c1.89,0,3.36.89,3.57,2.85Z"></path><path class="cls-19" d="M90.39,45.87h1.36v4.37h0a2.78,2.78,0,0,1,2.61-1.41c2.18,0,2.85,1.25,2.85,3V57.3H95.88V51.7A1.55,1.55,0,0,0,94.2,50a2.32,2.32,0,0,0-2.45,2.59V57.3H90.39Z"></path><path class="cls-19" d="M106.61,57.27a1.83,1.83,0,0,1-1,.23c-.71,0-1.16-.39-1.16-1.29a3.61,3.61,0,0,1-2.91,1.29c-1.5,0-2.74-.66-2.74-2.33,0-1.87,1.4-2.29,2.8-2.54s2.79-.18,2.79-1.22c0-1.2-1-1.37-1.84-1.37-1.15,0-2,.35-2.07,1.56H99.15c.08-2,1.65-2.77,3.51-2.77,1.49,0,3.1.34,3.1,2.28v4.26c0,.64,0,.92.44.92a1.24,1.24,0,0,0,.41-.08ZM104.4,53c-1.05.78-4.13,0-4.13,2,0,.89.77,1.21,1.61,1.21,1.79,0,2.52-1.1,2.52-1.87Z"></path><path class="cls-19" d="M107.87,49h1.28v1.31h0a2.86,2.86,0,0,1,2.69-1.51c2.17,0,2.84,1.25,2.84,3V57.3h-1.36V51.7A1.55,1.55,0,0,0,111.68,50a2.33,2.33,0,0,0-2.45,2.59V57.3h-1.36Z"></path><path class="cls-19" d="M123.91,56.6c0,2.7-1.22,4.06-3.84,4.06-1.55,0-3.35-.64-3.43-2.43H118c0,1,1.27,1.35,2.15,1.35,1.77,0,2.48-1.29,2.48-3.14v-.55h0A2.77,2.77,0,0,1,120,57.4c-2.47,0-3.7-1.94-3.7-4.19,0-2,1-4.38,3.83-4.38a2.69,2.69,0,0,1,2.46,1.38h0V49h1.28ZM122.56,53c0-1.46-.64-3-2.35-3s-2.45,1.42-2.45,3,.55,3.16,2.34,3.16S122.56,54.55,122.56,53Z"></path><path class="cls-19" d="M133,54.68a3.31,3.31,0,0,1-3.53,2.82c-2.65,0-3.89-1.85-4-4.36s1.63-4.31,3.89-4.31c2.92,0,3.82,2.74,3.74,4.74H127a2.43,2.43,0,0,0,2.57,2.72,2,2,0,0,0,2.15-1.61Zm-1.31-2.31A2.38,2.38,0,0,0,129.32,50,2.34,2.34,0,0,0,127,52.37Z"></path><path class="cls-19" d="M146.33,57.27a1.89,1.89,0,0,1-1,.23c-.71,0-1.15-.39-1.15-1.29a3.63,3.63,0,0,1-2.92,1.29c-1.5,0-2.73-.66-2.73-2.33,0-1.87,1.39-2.29,2.8-2.54s2.78-.18,2.78-1.22c0-1.2-1-1.37-1.84-1.37-1.15,0-2,.35-2.06,1.56h-1.36c.08-2,1.64-2.77,3.5-2.77,1.49,0,3.11.34,3.11,2.28v4.26c0,.64,0,.92.43.92a1.35,1.35,0,0,0,.42-.08ZM144.12,53c-1.06.78-4.13,0-4.13,2,0,.89.76,1.21,1.6,1.21,1.79,0,2.53-1.1,2.53-1.87Z"></path><path class="cls-19" d="M153.2,51.68a1.9,1.9,0,0,0-2-1.64c-2,0-2.58,1.56-2.58,3.23s.69,3,2.42,3a2.12,2.12,0,0,0,2.27-2h1.39A3.42,3.42,0,0,1,151,57.5c-2.53,0-3.87-1.75-3.87-4.23s1.28-4.44,3.9-4.44c1.89,0,3.36.89,3.57,2.85Z"></path><path class="cls-19" d="M161.8,51.68A1.92,1.92,0,0,0,159.75,50c-2,0-2.58,1.56-2.58,3.23s.69,3,2.42,3a2.12,2.12,0,0,0,2.27-2h1.39a3.42,3.42,0,0,1-3.65,3.22c-2.53,0-3.87-1.75-3.87-4.23s1.28-4.44,3.9-4.44c1.89,0,3.37.89,3.57,2.85Z"></path><path class="cls-19" d="M171.62,57.3h-1.28V56h0a2.88,2.88,0,0,1-2.69,1.51c-2.18,0-2.85-1.25-2.85-3V49h1.36v5.6a1.55,1.55,0,0,0,1.68,1.66,2.32,2.32,0,0,0,2.45-2.59V49h1.36Z"></path><path class="cls-19" d="M173.62,49h1.28v1.74h0a3,3,0,0,1,3-1.94v1.45c-2.19,0-3,1.23-3,3.34V57.3h-1.36Z"></path><path class="cls-19" d="M185.94,57.27a1.87,1.87,0,0,1-1,.23c-.7,0-1.15-.39-1.15-1.29a3.61,3.61,0,0,1-2.91,1.29c-1.51,0-2.74-.66-2.74-2.33,0-1.87,1.39-2.29,2.8-2.54s2.79-.18,2.79-1.22c0-1.2-1-1.37-1.84-1.37-1.16,0-2,.35-2.07,1.56h-1.36c.08-2,1.65-2.77,3.51-2.77,1.49,0,3.1.34,3.1,2.28v4.26c0,.64,0,.92.43.92a1.3,1.3,0,0,0,.42-.08ZM183.73,53c-1.06.78-4.13,0-4.13,2,0,.89.77,1.21,1.6,1.21,1.8,0,2.53-1.1,2.53-1.87Z"></path><path class="cls-19" d="M192.82,51.68a1.91,1.91,0,0,0-2-1.64c-2,0-2.58,1.56-2.58,3.23s.69,3,2.42,3a2.11,2.11,0,0,0,2.27-2h1.4a3.43,3.43,0,0,1-3.65,3.22c-2.53,0-3.88-1.75-3.88-4.23s1.28-4.44,3.91-4.44c1.89,0,3.36.89,3.57,2.85Z"></path><path class="cls-19" d="M199,58.41c-.64,1.6-1.18,2.21-2.4,2.21a2.72,2.72,0,0,1-.94-.15V59.22a2.76,2.76,0,0,0,.8.2,1.16,1.16,0,0,0,1.12-.76l.56-1.41L194.9,49h1.53l2.42,6.77h0L201.2,49h1.44Z"></path><path class="cls-19" d="M95.12,70h1.53V74.9h6V70h1.52V81.41h-1.52V76.18h-6v5.23H95.12Z"></path><path class="cls-19" d="M113.51,78.79A3.32,3.32,0,0,1,110,81.61c-2.64,0-3.89-1.84-4-4.36s1.64-4.3,3.89-4.3c2.93,0,3.83,2.73,3.75,4.73h-6.2A2.45,2.45,0,0,0,110,80.41a2,2,0,0,0,2.15-1.62Zm-1.31-2.31a2.38,2.38,0,0,0-2.39-2.33,2.35,2.35,0,0,0-2.37,2.33Z"></path><path class="cls-19" d="M116.48,71.65h-1.36V70h1.36Zm-1.36,1.49h1.36v8.27h-1.36Z"></path><path class="cls-19" d="M125.73,80.71c0,2.71-1.21,4.07-3.84,4.07-1.55,0-3.34-.65-3.42-2.44h1.36c0,1,1.26,1.35,2.14,1.35,1.78,0,2.48-1.28,2.48-3.14V80h0a2.76,2.76,0,0,1-2.58,1.5c-2.46,0-3.69-1.94-3.69-4.19,0-2,.94-4.37,3.82-4.37a2.71,2.71,0,0,1,2.47,1.37h0V73.14h1.28Zm-1.34-3.6c0-1.46-.64-3-2.35-3s-2.45,1.42-2.45,3,.54,3.15,2.33,3.15S124.39,78.66,124.39,77.11Z"></path><path class="cls-19" d="M127.78,70h1.36v4.37h0A2.77,2.77,0,0,1,131.78,73c2.18,0,2.85,1.25,2.85,3v5.44h-1.36v-5.6a1.55,1.55,0,0,0-1.68-1.66,2.32,2.32,0,0,0-2.45,2.59v4.67h-1.36Z"></path><path class="cls-19" d="M138.56,73.14h1.65v1.2h-1.65v5.14c0,.64.18.73,1,.73h.62v1.2h-1c-1.41,0-2-.28-2-1.8V74.34h-1.4v-1.2h1.4V70.66h1.36Z"></path><path class="cls-19" d="M143.4,74.64h-1.59V73.06h1.59Zm-1.59,7V80.1h1.59v1.59Z"></path><path class="cls-19" d="M150.63,76h3.49V73.33h1.09V76h3.49v1.09h-3.49v2.67h-1.09V77.08h-3.49Zm0,4.34h8.07v1.08h-8.07Z"></path><path class="cls-19" d="M167.48,76.77c1.92-1.2,2.9-1.87,2.9-3.46a2.07,2.07,0,0,0-2.2-2c-1.58,0-2.26,1.45-2.21,2.81h-1.36a3.51,3.51,0,0,1,3.65-4c2,0,3.56,1.15,3.56,3.26s-1.35,3-2.76,3.89-2.93,1.6-3.18,3h5.82v1.2h-7.41C164.5,78.74,165.88,77.73,167.48,76.77Z"></path><path class="cls-19" d="M173.48,75.84c0-2.49.22-5.77,3.77-5.77S181,73.35,181,75.84s-.22,5.77-3.78,5.77S173.48,78.34,173.48,75.84Zm6.11,0c0-1.68,0-4.56-2.34-4.56s-2.33,2.88-2.33,4.56,0,4.58,2.33,4.58S179.59,77.52,179.59,75.83Z"></path><path class="cls-19" d="M194,81.41h-1.28V80.1h0a2.89,2.89,0,0,1-2.51,1.51,2.23,2.23,0,0,1-1.59-.56h0v3.53h-1.36V73.14h1.36v5.6a1.54,1.54,0,0,0,1.65,1.67,2.33,2.33,0,0,0,2.43-2.6V73.14H194Z"></path><path class="cls-19" d="M196.07,73.14h1.28v1.22h0A3,3,0,0,1,200.05,73a2.17,2.17,0,0,1,2.28,1.41A3,3,0,0,1,204.92,73c1.65,0,2.75.68,2.75,2.4v6.06h-1.36V76c0-1-.27-1.84-1.6-1.84a2,2,0,0,0-2.16,2.11v5.15h-1.36V76c0-1.07-.34-1.84-1.55-1.84a2.23,2.23,0,0,0-2.21,2.11v5.15h-1.36Z"></path><path class="cls-19" d="M147.32,99.89h5.37c2.16,0,3.48,1.15,3.48,3a2.71,2.71,0,0,1-2,2.9v0c1.33.26,1.59,1.25,1.72,2.36s0,2.38.67,3.15h-1.7c-.43-.47-.19-1.7-.41-2.82s-.44-2.06-1.91-2.06h-3.71v4.88h-1.52Zm4.69,5.27c1.4,0,2.64-.37,2.64-2a1.81,1.81,0,0,0-2-2h-3.77v4Z"></path><path class="cls-19" d="M164.9,111.32h-1.28V110h0a2.87,2.87,0,0,1-2.69,1.5c-2.18,0-2.85-1.25-2.85-3V103h1.36v5.61a1.55,1.55,0,0,0,1.68,1.66,2.32,2.32,0,0,0,2.45-2.59V103h1.36Z"></path><path class="cls-19" d="M167,103h1.28v1.32h0a2.86,2.86,0,0,1,2.69-1.51c2.18,0,2.85,1.25,2.85,3v5.44h-1.36v-5.6a1.55,1.55,0,0,0-1.68-1.67,2.33,2.33,0,0,0-2.45,2.59v4.68H167Z"></path><path class="cls-19" d="M183.86,102.85c2.63,0,4,1.91,4,4.34s-1.39,4.32-4,4.32-4-1.9-4-4.32S181.24,102.85,183.86,102.85Zm0,7.46c1.43,0,2.58-1.12,2.58-3.12s-1.15-3.14-2.58-3.14-2.58,1.14-2.58,3.14S182.44,110.31,183.86,110.31Z"></path><path class="cls-19" d="M196.33,111.32h-1.28V110h0a2.85,2.85,0,0,1-2.68,1.5c-2.18,0-2.85-1.25-2.85-3V103h1.36v5.61a1.55,1.55,0,0,0,1.68,1.66,2.32,2.32,0,0,0,2.45-2.59V103h1.36Z"></path><path class="cls-19" d="M200.26,103h1.65v1.2h-1.65v5.14c0,.64.18.74,1,.74h.62v1.2h-1c-1.41,0-2-.29-2-1.81v-5.27h-1.41V103h1.41v-2.48h1.36Z"></path><path class="cls-19" d="M205.09,104.55h-1.58V103h1.58Zm-1.58,7V110h1.58v1.58Z"></path><path class="cls-19" d="M154.16,129.4h-7.41v-1h7.41Zm-5.5-4.11,5.5,1.71v1.12l-7.39-2.32v-1l7.39-2.32v1.11Z"></path><path class="cls-19" d="M162.87,124.68c1.92-1.2,2.9-1.88,2.9-3.46a2.08,2.08,0,0,0-2.2-2c-1.58,0-2.25,1.46-2.21,2.82H160a3.52,3.52,0,0,1,3.65-4c2,0,3.56,1.15,3.56,3.27s-1.35,3-2.76,3.88-2.93,1.61-3.18,3h5.82v1.2h-7.41C159.89,126.65,161.27,125.64,162.87,124.68Z"></path><path class="cls-19" d="M168.87,123.75c0-2.5.22-5.78,3.78-5.78s3.77,3.28,3.77,5.78-.22,5.76-3.77,5.76S168.87,126.25,168.87,123.75Zm6.11,0c0-1.68,0-4.56-2.33-4.56s-2.34,2.88-2.34,4.56,0,4.58,2.34,4.58S175,125.43,175,123.73Z"></path><path class="cls-19" d="M189.41,129.32h-1.28V128h0a2.9,2.9,0,0,1-2.51,1.5A2.19,2.19,0,0,1,184,129h0v3.54h-1.36V121H184v5.61a1.54,1.54,0,0,0,1.65,1.66,2.32,2.32,0,0,0,2.43-2.59V121h1.36Z"></path><path class="cls-19" d="M191.46,121h1.28v1.22h0a3,3,0,0,1,2.68-1.41,2.17,2.17,0,0,1,2.27,1.41,3,3,0,0,1,2.59-1.41c1.65,0,2.75.69,2.75,2.4v6.07H201.7v-5.43c0-1-.27-1.84-1.6-1.84a2,2,0,0,0-2.16,2.11v5.16h-1.36v-5.43c0-1.07-.33-1.84-1.55-1.84a2.23,2.23,0,0,0-2.21,2.11v5.16h-1.36Z"></path></g></svg> 